<svg id="Capa_1" data-name="Capa 1" xmlns="http://www.w3.org/2000/svg" viewBox="0 0 768.15 693.67">
  <defs>
    <style>
      .cls-1 {
        fill: #26752b;
      }

      .cls-1, .cls-2, .cls-3, .cls-4 {
        fill-rule: evenodd;
      }

      .cls-2 {
        fill: #2fc92f;
      }

      .cls-3 {
        fill: #00993e;
      }

      .cls-4 {
        fill: #47ea47;
      }
    </style>
  </defs>
  <title>Matas</title>
  <g>
    <path class="cls-1" d="M287.46,201.33c-14.66-6.9-34.53-5.08-53.52,11.94-28.8,25.79-22.34,71.85-28,111.82-1.25,8.88-14.09,22.64-21.29,3.59-8.29-21.93-20.12-59.86-43.54-58.75-31.66,1.5-53.09,36-37.09,70.49,9.7,20.93,51.38,14.33,66.78,31.5,7.49,8.37.64,24-10.58,24.38-8.66.28-21.64-5.7-34-19.16-19.76-21.59-42.2-36.63-58-18.16v72.63c20.51,7.8,67.68-12.56,84.43-1.12,9.36,6.39,7,32.31-4.21,33.75-21.59,2.76-38.36-24.67-60.12-25.51a30.81,30.81,0,0,0-20.1,6.82v57.22c21.29,8.29,47.7-8.85,69.91-2,7.1,2.17,3.15,20.18-4.08,21.92-18,4.34-38.3.26-55-7.68a20.76,20.76,0,0,0-10.8-1.65v59c18-5.77,38.44-21.87,56.65-20.12,7.28.7,4,23.7-8.49,24.68-16,1.25-34.57-6.65-48.16,1.47v29.8c7.38,4.11,17,6.21,24.68,4.94,13.92-2.31,25.66-10.25,39.22-15.71-6.3,31.63-11.83,63.84-16.52,96.32h7c4.2-32.5,9.27-64.73,15.25-96.34,22.1,15.13,39.55,33.6,67,30,30.93-4.09,33.26-35.17,13.83-49.22-12.9-9.33-35.19,4.42-49.5-6.84-11-8.63-4.31-28.84,9-25.7,35.27,8.31,61.87,36.18,94.61,20.65,22.45-10.66,30.68-52.42,9.64-65.63-25.81-16.22-62,7.75-91-1.62-13.47-4.35-5.48-26.59,8-30.85,34.62-10.94,82,35.31,110.71,13.12,21.63-16.72,27.5-62.57,3.3-75.29-27.47-14.44-60.29,16.67-91.28,15-12.69-.7-12.57-20.14-1.37-26.16,26.16-14.09,68,10.45,88.45-11.1,17.14-18.06,15.64-64.89-7.41-74.31-24.75-10.12-40.5,42.56-67.21,43.8-12.78.59-17.79-18.54-6.37-23.07,17.72-7,46-34,66.79-57.67C320.36,243.75,310.19,212,287.46,201.33Z"/>
    <path class="cls-2" d="M256.92,693.67C224,617.5,281.1,534.5,365.11,530.94c-5.35,25.33-15.93,50.1-16.06,76-.12,23,15.93,24.2,21.92,1.68,6.75-25.39,1.58-53.18,16.17-76.76,4.87-7.86,10.17-17.66,20.74-22.25,27.74-12.06,72.28-8.34,89.74-7.23-26.34,19.5-40.82,42.2-43.09,76.72-1.43,21.66,18.09,34,25.87,7,6.11-21.2,11-42.67,25-61.94,24.75-34,59.61-27.62,93.82-7.45-16.92,10.95-32.56,18.47-40.92,46.16-8.61,28.53-4.46,34.6,15.54,12.6,10.69-11.75,14.4-25.92,23.41-34.91,34.85-34.79,65.18-7.56,95.78,10.7-24.46-2.33-43.34,17.13-62.3,30.3-26.46,18.39-16.59,34.67,16,19.81,12.49-5.69,16.63-20.73,27.9-26.57,43.89-22.73,77.75,26.55,93.49,62.06-19.15,2.4-33.46,10.86-44.34,23.6-15.5,18.17-21.32,29-26.56,33.21H684.91c-7.77-3.77-20.13-12.61-44.08-25.89-14.06-7.79-33.46-6-18.37,17.06a94.61,94.61,0,0,0,6.54,8.83Zm266.51-136h0c.08,5.33,3.56,7,10.07,1.5,3.74-3.14,4.42-8.48,6.72-13.24,1.11-2.29,1.68-7,3-9.84,3.16-6.54,1.69-8.66-5.39-6.35-4.85,1.59-7.5,11.24-9.51,16-1.75,4.16-5,6.72-4.94,11.92ZM395,633.55h0c8.9,28.15,22.42,1.4,28.53-10.79,4.3-8.6,19.76-50.3,4.39-50.81-5.75-.19-19.19,11-21.35,15.83-5.6,12.57-16.69,29.56-11.57,45.77ZM291.48,644h0c-4.53,37.8,10.7,2.69,20.4-5.35,8.78-7.28,9.95-24.3,11.84-37,7.1-47.66-18.13-8.8-22,9.4C299.19,623,292.79,633,291.48,644Z"/>
    <path class="cls-3" d="M0,128.66c2.68,8.9,5.55,17.7,7.8,26.29,11.49,43.9,37.81,38.74,34-11.63-1.47-19.27-19.36-32-21.62-49.77C11.36,24.5,92.94,3.6,147.52,0c-6.1,26.48-1.86,49.5,9.73,70.06,42.63,75.65,51.61,42.21-30.53,113.28-17.12,14.82-24.11,41.35,13.65,32.57,31.41-7.31,69.26-28,82-72.12,58.62,98.36,41.9,179.6-23.81,215.1-15.16,8.19-33,15-53.13,20.55-55,15.14-17.2,48,7.58,36.79,30-13.53,54.92-36.22,82.37-54.33,33.64,79.7,14.76,115.58-81,183.18-36,25.45-31.22,42.65,7.75,31.86s66.4-37.71,92.05-62.87c25.6,80.59-24.38,150.16-93.86,179.6H0v-565ZM72.24,481.47h0c-14.16-2.58,15.05,20.16,21.4,23,6.06,2.68,26.07-.75,33.18-3.27,30-10.65,30.59-73-3.18-49.46-18.19,12.66-23.59,34.84-51.4,29.76Zm55.85-141.63h0c16.37,4.57,62.62-3.55,28.42-22.19-7.49-4.08-20.77-1.18-29.57-1C115.47,316.78,116.65,336.64,128.09,339.84Z"/>
    <path class="cls-4" d="M483.33,347.8c-13.46-9.56-33.71-11.3-55.82,2.35-33.51,20.69-35.32,68-48.15,107.12-2.85,8.67-18.2,20.17-22-.23-4.37-23.48-9.42-63.64-33.1-66.74-32-4.2-59.72,26.54-49.88,64,6,22.73,49,23.6,61.31,43.6,6,9.73-3.67,24.19-15,22.54-8.73-1.27-20.68-9.6-30.61-25.32-20.37-32.22-47.07-54.5-70.67-6.81-7.78,15.73-10.22,34.42-2.35,46.33,12.63,19.14,73.58,2.67,89.93,18.74,8.24,8.09,1.25,33.66-10.28,33.09-22.15-1.11-34-31.63-55.71-36.39-30.95-6.79-60.86,39.57-33.68,59.27,19.83,14.37,50.71.67,72.49,11.86,6.73,3.46-.47,20.81-8,21.25C253,643.6,233.33,635.86,218,624.89c-20.23-14.47-74.37,15.73-45,48.77,18.49,20.81,57.5-10.74,84.31-3.22,6.81,1.91.46,22.21-11,23.23h49.6c-4.63-10.75,4.77-25.2,16.12-20.28,12.33,5.34,23,13.07,33.41,20.28h79.43c9.62-15.08,11.84-35.7-.2-46.66-23-20.9-63.58-3.37-91-18-12.72-6.78-.71-27.65,13.59-29.5,36.68-4.75,75.87,50.15,108.67,33.06,24.69-12.88,38.82-57.81,16.83-74.92-24.95-19.42-63.45,5.89-94.23-1.39-12.61-3-9-22.45,3.33-26.48,28.77-9.43,66.31,22.71,90.7,4.77,20.43-15,27.34-62.27,5.93-75.86-23-14.6-48.27,35.41-75.28,31.84-12.92-1.7-14.51-21.79-2.25-24.27,19-3.85,52.23-25.87,77.36-45.84,30.44-24.18,25.95-57.82,5.07-72.64ZM244.44,693.67H184.66c2.13-2.46,5.42-4.77,10.13-6.8,15.31-6.58,33,5.14,49.54,6.8Z"/>
  </g>
</svg>
