<svg id="Capa_1" data-name="Capa 1" xmlns="http://www.w3.org/2000/svg" xmlns:xlink="http://www.w3.org/1999/xlink" viewBox="0 0 1447 1080"><defs><style>.cls-1,.cls-6{fill:none;}.cls-2,.cls-5{fill:#fff;}.cls-3{fill:#212121;}.cls-4{fill:#55ce4d;}.cls-10,.cls-5,.cls-7,.cls-8,.cls-9{isolation:isolate;font-family:Roboto-Bold, Roboto;font-weight:700;}.cls-5{font-size:36px;}.cls-6{stroke:#212121;stroke-miterlimit:10;stroke-width:2px;}.cls-10,.cls-7,.cls-8,.cls-9{font-size:32px;}.cls-8{letter-spacing:-0.12em;}.cls-9{letter-spacing:0.01em;}.cls-10{letter-spacing:-0.02em;}.cls-11{clip-path:url(#clip-path);}.cls-12{clip-path:url(#clip-path-2);}.cls-13{clip-path:url(#clip-path-3);}.cls-14{clip-path:url(#clip-path-4);}.cls-15{clip-path:url(#clip-path-5);}.cls-16{clip-path:url(#clip-path-6);}</style><clipPath id="clip-path"><rect class="cls-1" x="644" y="905" width="90.88" height="84.11"/></clipPath><clipPath id="clip-path-2"><rect class="cls-1" x="641" y="371" width="99.2" height="99.2"/></clipPath><clipPath id="clip-path-3"><rect class="cls-1" x="156.97" y="642" width="94.15" height="90.72"/></clipPath><clipPath id="clip-path-4"><rect class="cls-1" x="156.63" y="641.99" width="94.17" height="90.72"/></clipPath><clipPath id="clip-path-5"><rect class="cls-1" x="155" y="127" width="88.66" height="89.9"/></clipPath><clipPath id="clip-path-6"><rect class="cls-1" x="154.63" y="126.62" width="88.69" height="89.89"/></clipPath><symbol id="Anuncio" data-name="Anuncio" viewBox="0 0 64.02 59.22"><path class="cls-2" d="M61.52,13.38a3.36,3.36,0,0,0-1.25.25l-9.38,3.61a7.78,7.78,0,0,0-2.24-1.32L5.65.34A5.33,5.33,0,0,0,3.84,0C1.61,0,0,1.65,0,4.24V46.67c0,2.57,1.57,4.24,3.74,4.24a5.46,5.46,0,0,0,1.87-.37L33,40.09a11,11,0,0,0,1.11,2.29,9.2,9.2,0,0,0,8,4.27h.45a3.09,3.09,0,0,0,.14.43l6.1,11.36A1.63,1.63,0,0,0,51,59a1.59,1.59,0,0,0,.33-.25L58.65,52A2.45,2.45,0,0,0,59,49l-2.8-5.37a27,27,0,0,1-1-3.86l-.65-4.63V32.32l5.71,2.19a3.57,3.57,0,0,0,1.25.25A2.52,2.52,0,0,0,64,32.19h0v-16a2.52,2.52,0,0,0-2.21-2.79A1.23,1.23,0,0,0,61.52,13.38ZM6,6.84,46.6,21.55a1.74,1.74,0,0,1,.61.43,4,4,0,0,1-.06.69v2.76a5.3,5.3,0,0,0,.49,2.11,2.86,2.86,0,0,1-1.1,1L6,44Zm31.51,33.4a6.93,6.93,0,0,1-.73-1.56l4.15-1.58.75,5.52A5,5,0,0,1,37.51,40.24Z"/></symbol><symbol id="Comprobar" data-name="Comprobar" viewBox="0 0 63.8 63.8"><path class="cls-2" d="M54.38,9.27a31.9,31.9,0,1,0,.15.15ZM50.84,51A27,27,0,0,1,12.66,12.81,27,27,0,0,1,50.84,51Z"/><polygon class="cls-2" points="27.37 33.44 20.78 26.27 13.48 33.57 13.48 33.56 27.24 47.32 50.46 24.08 45.16 18.69 27.37 33.44"/></symbol><symbol id="Buscar_2" data-name="Buscar 2" viewBox="0 0 63.15 61.3"><path class="cls-2" d="M.52,54a2,2,0,0,1,.13-2.83h0L17.56,35.78a2,2,0,0,1,2.83.13h0l6,6.68a2,2,0,0,1-.13,2.82L9.38,60.78a2,2,0,0,1-2.82-.13h0Z"/><path class="cls-2" d="M41.05,0A22.08,22.08,0,1,1,20.13,14.9,22.11,22.11,0,0,1,41.05,0m0,6A16.14,16.14,0,1,0,56.32,27.42h0a16.12,16.12,0,0,0-10-20.51h0A16,16,0,0,0,41.05,6Z"/></symbol><symbol id="Herramientas" data-name="Herramientas" viewBox="0 0 62.02 61.98"><path class="cls-2" d="M51.77,41.54H51.2L31.88,22.25a4.88,4.88,0,0,0-5-1.14l3-8.84a5.07,5.07,0,0,0-1.1-4.69L22.47,1.27A5.13,5.13,0,0,0,17.78.17L14,1.46a1.57,1.57,0,0,0-1.11,1,1.51,1.51,0,0,0,.56,1.39L17.51,7.9a3.69,3.69,0,0,1,0,5.22l-4.37,4.36a3.66,3.66,0,0,1-2.6,1.07,3.6,3.6,0,0,1-2.62-1.07l-4-4a1.55,1.55,0,0,0-1.4-.56,1.57,1.57,0,0,0-1,1.11L.18,17.77a5,5,0,0,0,1.1,4.69l6.31,6.32a5.11,5.11,0,0,0,4.68,1.09l8.85-3a4.86,4.86,0,0,0,1.14,5L41.58,51.19a5.42,5.42,0,0,0,0,.57A10.22,10.22,0,1,0,51.8,41.54h0Zm0,15.58a5.36,5.36,0,1,1,5.35-5.37h0A5.37,5.37,0,0,1,51.77,57.12Z"/></symbol></defs><title>Instructivo2</title><circle class="cls-3" cx="203.76" cy="172.22" r="118.27"/><path d="M203.77,54.46A117.77,117.77,0,1,1,120.49,89a117.77,117.77,0,0,1,83.28-34.54m0-1A118.77,118.77,0,1,0,322.54,172.27h0A118.78,118.78,0,0,0,203.79,53.46Z"/><circle class="cls-4" cx="203.15" cy="53.46" r="33.96"/><path class="cls-2" d="M203.15,20a33.46,33.46,0,1,1-33.46,33.46h0A33.51,33.51,0,0,1,203.15,20m0-1a34.46,34.46,0,1,0,34.47,34.46A34.46,34.46,0,0,0,203.15,19Z"/><text class="cls-5" transform="translate(193.92 66.59)">5</text><circle class="cls-3" cx="682" cy="420.23" r="118.27"/><path d="M682,302.46A117.77,117.77,0,1,1,598.72,337,117.77,117.77,0,0,1,682,302.46m0-1A118.77,118.77,0,1,0,800.77,420.23,118.78,118.78,0,0,0,682,301.46Z"/><path class="cls-4" d="M681.38,335.42a34,34,0,1,1,34-34A34,34,0,0,1,681.38,335.42Z"/><path class="cls-2" d="M681.38,268a33.46,33.46,0,1,1-33.46,33.46A33.46,33.46,0,0,1,681.38,268h0m0-1a34.46,34.46,0,1,0,34.47,34.46A34.46,34.46,0,0,0,681.38,267Z"/><text class="cls-5" transform="translate(672.15 314.59)">6</text><line class="cls-6" x1="307" y1="231" x2="578" y2="363"/><circle class="cls-3" cx="203.5" cy="687.23" r="118.27"/><path d="M203.5,569.46A117.77,117.77,0,1,1,120.22,604a117.77,117.77,0,0,1,83.28-34.54m0-1A118.77,118.77,0,1,0,322.27,687.27h0A118.78,118.78,0,0,0,203.5,568.46Z"/><path class="cls-4" d="M202.88,602.42a34,34,0,1,1,34-34h0A34,34,0,0,1,202.88,602.42Z"/><path class="cls-2" d="M202.88,535a33.46,33.46,0,1,1-33.46,33.46A33.46,33.46,0,0,1,202.88,535h0m0-1a34.46,34.46,0,1,0,34.47,34.46A34.46,34.46,0,0,0,202.88,534Z"/><text class="cls-5" transform="translate(193.65 581.59)">7</text><line class="cls-6" x1="599" y1="505" x2="313" y2="642"/><circle class="cls-3" cx="690.2" cy="942.19" r="118.27"/><path d="M690.17,824.46A117.77,117.77,0,1,1,606.89,859a117.77,117.77,0,0,1,83.28-34.54m0-1A118.77,118.77,0,1,0,808.94,942.27h0A118.78,118.78,0,0,0,690.19,823.46Z"/><path class="cls-4" d="M689.55,857.42a34,34,0,1,1,34-34,34,34,0,0,1-34,34Z"/><path class="cls-2" d="M689.55,790a33.46,33.46,0,1,1-33.46,33.46A33.46,33.46,0,0,1,689.55,790h0m0-1A34.46,34.46,0,1,0,724,823.47h0A34.46,34.46,0,0,0,689.55,789Z"/><text class="cls-5" transform="translate(680.32 836.59)">8</text><line class="cls-6" x1="694" y1="920" x2="296" y2="761"/><path class="cls-3" d="M359.45,149.36c0-5.85,3.19-9.52,7.89-9.52a6.37,6.37,0,0,1,4.79,2.2l-.75.87a5.25,5.25,0,0,0-4-1.9c-4.05,0-6.55,3.22-6.55,8.34s2.48,8.44,6.44,8.44a6,6,0,0,0,4.67-2.27l.75.8A6.83,6.83,0,0,1,367.2,159C362.63,159,359.45,155.23,359.45,149.36Z"/><path class="cls-3" d="M376.29,145.18h1l.13,2.51h.06c.91-1.65,2.23-2.85,3.83-2.85a2.89,2.89,0,0,1,1.33.28l-.28,1.12a3,3,0,0,0-1.21-.22c-1.21,0-2.65.92-3.67,3.46v9.15h-1.24Z"/><path class="cls-3" d="M383.75,151.93c0-4.39,2.85-7.09,5.87-7.09,3.18,0,5.14,2.27,5.14,6.22a5.61,5.61,0,0,1-.07,1H385c0,3.4,2,5.82,5.06,5.82a6.1,6.1,0,0,0,3.61-1.19l.51.94A7.37,7.37,0,0,1,390,159C386.54,159,383.75,156.32,383.75,151.93Zm9.85-.88c0-3.43-1.56-5.14-4-5.14s-4.33,1.93-4.61,5.14Z"/><path class="cls-3" d="M397,155.28c0-3,2.69-4.41,8.67-5.07,0-2.07-.53-4.28-3.17-4.28a7.39,7.39,0,0,0-4.28,1.58l-.57-.92a9,9,0,0,1,5-1.75c3.18,0,4.26,2.32,4.26,5.19v8.6h-1.05l-.13-1.75h-.07a7.88,7.88,0,0,1-4.77,2.08,3.51,3.51,0,0,1-3.87-3.13A3.37,3.37,0,0,1,397,155.28Zm8.67.44v-4.57c-5.52.64-7.41,1.92-7.41,4.06a2.54,2.54,0,0,0,2.35,2.7,2.09,2.09,0,0,0,.5,0c1.57,0,2.89-.75,4.59-2.17Z"/><path class="cls-3" d="M411.74,145.18h1l.14,2.51H413c.91-1.65,2.23-2.85,3.83-2.85a2.89,2.89,0,0,1,1.33.28l-.28,1.12a3,3,0,0,0-1.22-.22c-1.21,0-2.64.92-3.67,3.46v9.15h-1.23Z"/><path class="cls-3" d="M425.08,151.93c0-4.39,2.85-7.09,5.86-7.09,3.19,0,5.15,2.27,5.15,6.22a5.61,5.61,0,0,1-.07,1h-9.67c0,3.4,2,5.82,5.07,5.82A6.07,6.07,0,0,0,435,156.7l.51.94A7.38,7.38,0,0,1,431.3,159C427.86,159,425.08,156.32,425.08,151.93Zm9.85-.88c0-3.43-1.56-5.14-4-5.14s-4.33,1.93-4.61,5.14Z"/><path class="cls-3" d="M439.74,156.82V138.48H441V157c0,.6.25.88.59.88a2.07,2.07,0,0,0,.5-.06l.21,1a3,3,0,0,1-.89.14C440.3,159,439.74,158.29,439.74,156.82Z"/><path class="cls-3" d="M452,145.18h1l.13,1.69h.07a7.77,7.77,0,0,1,4.56-2c3.61,0,5.38,2.7,5.38,6.86,0,4.57-2.75,7.26-5.92,7.26a7,7,0,0,1-4.05-1.65v7.4H452Zm9.89,6.53c0-3.31-1.17-5.77-4.28-5.77-1.33,0-2.75.79-4.37,2.22v8a6.52,6.52,0,0,0,4,1.73c2.66,0,4.62-2.54,4.62-6.18Z"/><path class="cls-3" d="M467.2,145.18h1.05l.14,2.51h.06c.91-1.65,2.22-2.85,3.82-2.85a2.89,2.89,0,0,1,1.33.28l-.28,1.12a3,3,0,0,0-1.21-.22c-1.21,0-2.64.92-3.67,3.46v9.15H467.2Z"/><path class="cls-3" d="M474.67,151.93c0-4.5,2.8-7.09,6-7.09s6,2.59,6,7.09-2.8,7-6,7S474.67,156.37,474.67,151.93Zm10.77,0c0-3.54-2-6-4.73-6s-4.74,2.45-4.74,6,2,5.94,4.74,5.94S485.44,155.47,485.44,151.93Z"/><path class="cls-3" d="M488.83,164.47l.29-1.07a3.4,3.4,0,0,0,1.09.21c1.64,0,2.76-1.51,3.45-3.56l.37-1.17-5.52-13.7h1.33l3.25,8.45,1.46,3.77h.11c.43-1.19.86-2.63,1.25-3.77l2.86-8.45H500l-5.31,15.14c-.75,2.24-2.11,4.43-4.53,4.43A3.56,3.56,0,0,1,488.83,164.47Z"/><path class="cls-3" d="M501.8,151.93c0-4.39,2.85-7.09,5.86-7.09,3.19,0,5.15,2.27,5.15,6.22a5.61,5.61,0,0,1-.07,1h-9.67c.05,3.4,2,5.82,5.06,5.82a6.13,6.13,0,0,0,3.62-1.19l.51.94A7.31,7.31,0,0,1,508,159C504.58,159,501.8,156.32,501.8,151.93Zm9.85-.88c0-3.43-1.56-5.14-4-5.14s-4.32,1.93-4.6,5.14Z"/><path class="cls-3" d="M515.32,151.93c0-4.5,2.88-7.09,6.15-7.09a5.54,5.54,0,0,1,3.93,1.66l-.72.86a4.62,4.62,0,0,0-3.18-1.42c-2.75,0-4.88,2.45-4.88,6s1.94,5.94,4.86,5.94a5.36,5.36,0,0,0,3.6-1.55l.64.87a6.4,6.4,0,0,1-4.3,1.77C518,159,515.32,156.37,515.32,151.93Z"/><path class="cls-3" d="M529.06,154.91v-8.65H527v-1l2.13-.12.16-3.89h1v3.89h3.9v1.08h-3.9V155c0,1.72.43,2.88,2.28,2.88a4.68,4.68,0,0,0,1.69-.43l.32,1a7.83,7.83,0,0,1-2.19.5C529.82,159,529.06,157.32,529.06,154.91Z"/><path class="cls-3" d="M536,151.93c0-4.5,2.81-7.09,6-7.09s6,2.59,6,7.09-2.81,7-6,7S536,156.37,536,151.93Zm10.78,0c0-3.54-2-6-4.74-6s-4.74,2.45-4.74,6,2,5.94,4.74,5.94,4.78-2.4,4.78-5.94Z"/><path class="cls-3" d="M556.61,151.93c0-4.34,2.75-7.09,6-7.09a6.21,6.21,0,0,1,4.06,1.66l-.07-2.5v-5.55h1.24V158.6h-1l-.14-1.75h-.06a6.29,6.29,0,0,1-4.38,2.08C558.8,159,556.61,156.46,556.61,151.93Zm9.95,3.72v-8a5.66,5.66,0,0,0-3.92-1.73c-2.67,0-4.73,2.61-4.73,6,0,3.58,1.59,5.94,4.44,5.94C563.83,157.86,565.15,157.08,566.56,155.65Z"/><path class="cls-3" d="M571.83,151.93c0-4.39,2.85-7.09,5.86-7.09,3.19,0,5.15,2.27,5.15,6.22a5.61,5.61,0,0,1-.07,1H573.1c0,3.4,2,5.82,5.06,5.82a6,6,0,0,0,3.61-1.19l.51.94A7.39,7.39,0,0,1,578,159C574.61,159,571.83,156.32,571.83,151.93Zm9.84-.88c0-3.43-1.55-5.14-4-5.14s-4.33,1.93-4.61,5.14Z"/><path class="cls-3" d="M590.41,157.1l.72-.9a6.21,6.21,0,0,0,4.27,1.7c2.11,0,3.21-1.23,3.21-2.65,0-1.69-1.74-2.43-3.29-3-2-.72-4.28-1.54-4.28-3.84,0-1.94,1.53-3.58,4.33-3.58a6.32,6.32,0,0,1,3.84,1.4l-.67.89a5.08,5.08,0,0,0-3.2-1.23c-2.1,0-3.05,1.21-3.05,2.45,0,1.53,1.58,2.12,3.19,2.72,2.08.79,4.39,1.48,4.39,4.1,0,2-1.62,3.79-4.53,3.79A7.63,7.63,0,0,1,590.41,157.1Z"/><path class="cls-3" d="M602.29,151.93c0-4.39,2.85-7.09,5.86-7.09,3.19,0,5.15,2.27,5.15,6.22a5.61,5.61,0,0,1-.07,1h-9.67c.05,3.4,2,5.82,5.06,5.82a6.13,6.13,0,0,0,3.62-1.19l.51.94a7.29,7.29,0,0,1-4.24,1.32C605.07,159,602.29,156.32,602.29,151.93Zm9.85-.88c0-3.43-1.56-5.14-4-5.14s-4.33,1.93-4.61,5.14Z"/><path class="cls-3" d="M617,156.82V138.48h1.23V157c0,.6.25.88.59.88a2.07,2.07,0,0,0,.5-.06l.21,1a3,3,0,0,1-.89.14C617.51,159,617,158.29,617,156.82Z"/><path class="cls-3" d="M622.45,151.93c0-4.39,2.85-7.09,5.86-7.09,3.19,0,5.15,2.27,5.15,6.22a5.61,5.61,0,0,1-.07,1h-9.67c0,3.4,2,5.82,5.06,5.82a6.13,6.13,0,0,0,3.62-1.19l.51.94a7.29,7.29,0,0,1-4.24,1.32C625.23,159,622.45,156.32,622.45,151.93Zm9.85-.88c0-3.43-1.56-5.14-4-5.14s-4.33,1.93-4.61,5.14Z"/><path class="cls-3" d="M636,151.93c0-4.5,2.88-7.09,6.15-7.09a5.54,5.54,0,0,1,3.93,1.66l-.72.86a4.62,4.62,0,0,0-3.18-1.42c-2.75,0-4.88,2.45-4.88,6s1.94,5.94,4.86,5.94a5.36,5.36,0,0,0,3.6-1.55l.64.87a6.4,6.4,0,0,1-4.3,1.77C638.6,159,636,156.37,636,151.93Z"/><path class="cls-3" d="M648.07,151.93c0-4.5,2.87-7.09,6.14-7.09a5.57,5.57,0,0,1,3.94,1.66l-.73.86a4.62,4.62,0,0,0-3.18-1.42c-2.75,0-4.87,2.45-4.87,6s1.93,5.94,4.85,5.94a5.45,5.45,0,0,0,3.61-1.55l.63.87a6.37,6.37,0,0,1-4.29,1.77C650.7,159,648.07,156.37,648.07,151.93Z"/><path class="cls-3" d="M661.29,140.83a1.13,1.13,0,1,1,1.25,1h-.25A1.13,1.13,0,0,1,661.29,140.83Zm.48,4.35H663v13.45h-1.24Z"/><path class="cls-3" d="M667.05,151.93c0-4.5,2.81-7.09,6-7.09s6,2.59,6,7.09-2.81,7-6,7S667.05,156.37,667.05,151.93Zm10.78,0c0-3.54-2-6-4.74-6s-4.74,2.45-4.74,6,2,5.94,4.74,5.94S677.83,155.47,677.83,151.93Zm-6.23-10,3.77-4.41.93.83-4,4.22Z"/><path class="cls-3" d="M683.16,145.18h1.05l.14,2.08h.06c1.37-1.36,2.77-2.42,4.62-2.42,2.78,0,4.07,1.69,4.07,5.16v8.63h-1.24v-8.47c0-2.85-.9-4.2-3.06-4.2-1.6,0-2.76.84-4.4,2.52v10.15h-1.24Z"/><path class="cls-3" d="M701.74,164.47l.29-1.07a3.4,3.4,0,0,0,1.09.21c1.64,0,2.76-1.51,3.45-3.56l.37-1.17-5.52-13.7h1.33l3.25,8.45,1.46,3.77h.11c.43-1.19.86-2.63,1.25-3.77l2.86-8.45H713l-5.31,15.14c-.75,2.24-2.11,4.43-4.53,4.43A3.46,3.46,0,0,1,701.74,164.47Z"/><path class="cls-3" d="M726.1,155.28c0-3,2.7-4.41,8.68-5.07,0-2.07-.53-4.28-3.17-4.28a7.32,7.32,0,0,0-4.28,1.58l-.58-.92a9,9,0,0,1,5-1.75c3.19,0,4.27,2.32,4.27,5.19v8.6h-1l-.14-1.75h-.06A7.87,7.87,0,0,1,730,159C727.87,159,726.1,157.8,726.1,155.28Zm8.68.44v-4.57c-5.52.64-7.41,1.92-7.41,4.06a2.54,2.54,0,0,0,2.35,2.7,2.09,2.09,0,0,0,.5,0c1.54,0,2.9-.75,4.56-2.17Z"/><path class="cls-3" d="M739.14,157.1l.72-.9a6.21,6.21,0,0,0,4.27,1.7c2.12,0,3.22-1.23,3.22-2.65,0-1.69-1.75-2.43-3.3-3-2-.72-4.28-1.54-4.28-3.84,0-1.94,1.53-3.58,4.33-3.58a6.32,6.32,0,0,1,3.84,1.4l-.66.89a5.13,5.13,0,0,0-3.21-1.23c-2.1,0-3.05,1.21-3.05,2.45,0,1.53,1.59,2.12,3.19,2.72,2.08.79,4.39,1.48,4.39,4.1,0,2-1.62,3.79-4.53,3.79A7.68,7.68,0,0,1,739.14,157.1Z"/><path class="cls-3" d="M751,151.93c0-4.5,2.81-7.09,6-7.09s6,2.59,6,7.09-2.81,7-6,7S751,156.37,751,151.93Zm10.78,0c0-3.54-2-6-4.74-6s-4.74,2.45-4.74,6,2,5.94,4.74,5.94,4.76-2.4,4.76-5.94Z"/><path class="cls-3" d="M766,151.93c0-4.5,2.88-7.09,6.15-7.09a5.54,5.54,0,0,1,3.93,1.66l-.72.86a4.62,4.62,0,0,0-3.18-1.42c-2.75,0-4.88,2.45-4.88,6s1.94,5.94,4.86,5.94a5.36,5.36,0,0,0,3.6-1.55l.64.87a6.4,6.4,0,0,1-4.3,1.77C768.63,159,766,156.37,766,151.93Z"/><path class="cls-3" d="M779.23,140.83a1.13,1.13,0,1,1,1.25,1h-.25A1.13,1.13,0,0,1,779.23,140.83Zm.48,4.35h1.23v13.45h-1.23Z"/><path class="cls-3" d="M785.16,155.28c0-3,2.69-4.41,8.67-5.07,0-2.07-.53-4.28-3.17-4.28a7.39,7.39,0,0,0-4.28,1.58l-.57-.92a9,9,0,0,1,5-1.75c3.18,0,4.26,2.32,4.26,5.19v8.6H794l-.13-1.75h-.07A7.9,7.9,0,0,1,789,159a3.49,3.49,0,0,1-3.83-3.11A4.14,4.14,0,0,1,785.16,155.28Zm8.67.44v-4.57c-5.52.64-7.41,1.92-7.41,4.06a2.54,2.54,0,0,0,2.35,2.7,2.09,2.09,0,0,0,.5,0c1.54,0,2.9-.75,4.56-2.17Z"/><path class="cls-3" d="M799.87,145.18h1l.14,2.51h.06c.91-1.65,2.23-2.85,3.82-2.85a3,3,0,0,1,1.34.28l-.28,1.12a3,3,0,0,0-1.22-.22c-1.21,0-2.64.92-3.67,3.46v9.15h-1.23Z"/><path class="cls-3" d="M809.05,147a1.19,1.19,0,1,1,1.19,1.25,1.21,1.21,0,0,1-1.19-1.23h0Zm0,10.69a1.19,1.19,0,0,1,2.37-.22h0a.81.81,0,0,1,0,.22,1.19,1.19,0,1,1-2.37.22A.81.81,0,0,1,809.05,157.69Z"/><text class="cls-7" transform="translate(358 110.96) scale(0.85 1)">CREAR</text><path class="cls-3" d="M841.51,401.5h10.1v1.11H842.8v7h7.4v1.11h-7.4v8.14h9.09V420H841.51Z"/><path class="cls-3" d="M852.3,426l.29-1a4.83,4.83,0,0,0,1.41.27c1.51,0,1.8-1.22,1.8-2.93V406.51H857v15.94c0,2.63-.93,3.93-3,3.93A4.73,4.73,0,0,1,852.3,426Zm3-23.88a1.13,1.13,0,1,1,1.25,1h-.25A1.13,1.13,0,0,1,855.3,402.12Z"/><path class="cls-3" d="M861.07,413.26c0-4.39,2.86-7.09,5.87-7.09,3.18,0,5.14,2.27,5.14,6.22a5.61,5.61,0,0,1-.07,1h-9.66c0,3.4,2,5.82,5.06,5.82A6,6,0,0,0,871,418l.51.94a7.29,7.29,0,0,1-4.24,1.32C863.86,420.29,861.07,417.65,861.07,413.26Zm9.85-.88c0-3.43-1.56-5.14-4-5.14s-4.33,1.93-4.61,5.14Z"/><path class="cls-3" d="M874.6,413.26c0-4.5,2.87-7.09,6.14-7.09a5.52,5.52,0,0,1,3.94,1.66l-.73.86a4.62,4.62,0,0,0-3.18-1.42c-2.75,0-4.87,2.45-4.87,6s1.93,5.94,4.85,5.94a5.36,5.36,0,0,0,3.6-1.55l.64.87a6.37,6.37,0,0,1-4.29,1.77C877.23,420.29,874.6,417.7,874.6,413.26Z"/><path class="cls-3" d="M888.09,415.13v-8.62h1.24V415c0,2.85.9,4.21,3.06,4.21,1.6,0,2.76-.84,4.33-2.75v-9.92H898V420h-1l-.13-2.25h-.06c-1.32,1.55-2.71,2.59-4.57,2.59C889.38,420.29,888.09,418.6,888.09,415.13Z"/><path class="cls-3" d="M903.43,416.24v-8.65h-2.1v-1l2.13-.12.15-3.89h1v3.89h3.9v1.08h-3.9v8.74c0,1.72.44,2.88,2.29,2.88a4.68,4.68,0,0,0,1.68-.43l.33,1a8,8,0,0,1-2.2.5C904.18,420.29,903.43,418.65,903.43,416.24Z"/><path class="cls-3" d="M910.27,416.61c0-3,2.69-4.41,8.67-5.07,0-2.07-.52-4.28-3.17-4.28a7.39,7.39,0,0,0-4.28,1.58l-.57-.92a9,9,0,0,1,5-1.75c3.19,0,4.26,2.32,4.26,5.19V420h-1l-.14-1.74h0a7.94,7.94,0,0,1-4.77,2.08C912,420.29,910.27,419.13,910.27,416.61Zm8.67.44v-4.57c-5.52.64-7.4,1.92-7.4,4.06a2.54,2.54,0,0,0,2.35,2.7,2.09,2.09,0,0,0,.5,0C915.93,419.22,917.28,418.47,918.94,417.05Z"/><path class="cls-3" d="M925,406.51h1l.13,2.51h.06c.91-1.65,2.23-2.85,3.83-2.85a2.77,2.77,0,0,1,1.33.28l-.28,1.12a3,3,0,0,0-1.21-.22c-1.21,0-2.65.92-3.67,3.46V420H925Z"/><path class="cls-3" d="M938.33,413.26c0-4.39,2.85-7.09,5.86-7.09,3.19,0,5.15,2.27,5.15,6.22a6.73,6.73,0,0,1-.07,1H939.6c0,3.4,2,5.82,5.06,5.82a6.1,6.1,0,0,0,3.61-1.19l.51.94a7.29,7.29,0,0,1-4.24,1.32C941.11,420.29,938.33,417.65,938.33,413.26Zm9.84-.88c0-3.43-1.56-5.14-4-5.14s-4.33,1.93-4.61,5.14Z"/><path class="cls-3" d="M953,418.15V399.81h1.24v18.51c0,.6.24.88.58.88a2.07,2.07,0,0,0,.5-.06l.21,1a3,3,0,0,1-.89.14C953.54,420.29,953,419.62,953,418.15Z"/><path class="cls-3" d="M965.22,406.51h1l.14,2.09h.06c1.22-1.37,2.75-2.43,4.25-2.43a3.49,3.49,0,0,1,3.71,2.75c1.53-1.68,3-2.75,4.57-2.75,2.67,0,4,1.69,4,5.16V420h-1.24v-8.46c0-2.85-1-4.2-3-4.2-1.27,0-2.55.84-4,2.52V420h-1.24v-8.46c0-2.85-1-4.2-3-4.2-1.22,0-2.54.84-4,2.52V420h-1.23Z"/><path class="cls-3" d="M986.82,413.26c0-4.5,2.81-7.09,6-7.09s6,2.59,6,7.09-2.8,7-6,7S986.82,417.7,986.82,413.26Zm10.77,0c0-3.54-2-6-4.73-6s-4.74,2.45-4.74,6,2,5.94,4.74,5.94S997.59,416.8,997.59,413.26Z"/><path class="cls-3" d="M1001.81,413.26c0-4.34,2.76-7.09,6-7.09a6.16,6.16,0,0,1,4.05,1.66l-.07-2.47v-5.55H1013V420h-1l-.13-1.74h-.06a6.33,6.33,0,0,1-4.39,2.08C1004,420.29,1001.81,417.79,1001.81,413.26Zm10,3.72v-8a5.66,5.66,0,0,0-3.92-1.73c-2.67,0-4.73,2.61-4.73,6,0,3.58,1.59,5.94,4.44,5.94,1.4,0,2.75-.78,4.16-2.19Z"/><path class="cls-3" d="M1017,413.26c0-4.39,2.85-7.09,5.87-7.09,3.18,0,5.14,2.27,5.14,6.22a5.61,5.61,0,0,1-.07,1h-9.67c.05,3.4,2,5.82,5.07,5.82A6,6,0,0,0,1027,418l.51.94a7.29,7.29,0,0,1-4.24,1.32C1019.82,420.29,1017,417.65,1017,413.26Zm9.85-.88c0-3.43-1.56-5.14-4-5.14s-4.33,1.93-4.61,5.14Z"/><path class="cls-3" d="M1031.69,418.15V399.81h1.23v18.51c0,.6.25.88.59.88a2.07,2.07,0,0,0,.5-.06l.21,1a3,3,0,0,1-.89.14C1032.25,420.29,1031.69,419.62,1031.69,418.15Z"/><path class="cls-3" d="M1037.19,413.26c0-4.5,2.81-7.09,6-7.09s6,2.59,6,7.09-2.81,7-6,7S1037.19,417.7,1037.19,413.26Zm10.78,0c0-3.54-2-6-4.74-6s-4.74,2.45-4.74,6,2,5.94,4.74,5.94,4.77-2.4,4.77-5.94Z"/><path class="cls-3" d="M1057.75,413.26c0-4.34,2.76-7.09,6-7.09a6.16,6.16,0,0,1,4,1.66l-.06-2.47v-5.55h1.23V420h-1l-.14-1.74h-.06a6.29,6.29,0,0,1-4.38,2.08C1059.94,420.29,1057.75,417.79,1057.75,413.26Zm10,3.72v-8a5.66,5.66,0,0,0-3.92-1.73c-2.68,0-4.74,2.61-4.74,6,0,3.58,1.59,5.94,4.45,5.94,1.46,0,2.75-.78,4.17-2.19Z"/><path class="cls-3" d="M1073,413.26c0-4.39,2.85-7.09,5.86-7.09,3.19,0,5.15,2.27,5.15,6.22a6.73,6.73,0,0,1-.07,1h-9.67c0,3.4,2,5.82,5.06,5.82a6.1,6.1,0,0,0,3.61-1.19l.51.94a7.29,7.29,0,0,1-4.24,1.32C1075.76,420.29,1073,417.65,1073,413.26Zm9.84-.88c0-3.43-1.56-5.14-4-5.14s-4.33,1.93-4.61,5.14Z"/><path class="cls-3" d="M1092.27,416.61c0-3,2.69-4.41,8.67-5.07,0-2.07-.52-4.28-3.17-4.28a7.39,7.39,0,0,0-4.28,1.58l-.57-.92a9,9,0,0,1,5-1.75c3.18,0,4.26,2.32,4.26,5.19V420h-1l-.13-1.74h0a7.94,7.94,0,0,1-4.77,2.08C1094,420.29,1092.27,419.13,1092.27,416.61Zm8.67.44v-4.57c-5.52.64-7.41,1.92-7.41,4.06a2.54,2.54,0,0,0,2.35,2.7,2.09,2.09,0,0,0,.5,0c1.54,0,2.9-.75,4.56-2.17Z"/><path class="cls-3" d="M1107,406.51h1l.13,2.08h.06c1.37-1.36,2.77-2.42,4.63-2.42,2.78,0,4.06,1.69,4.06,5.16V420h-1.24v-8.46c0-2.85-.9-4.2-3.06-4.2-1.6,0-2.76.84-4.39,2.52V420H1107Z"/><path class="cls-3" d="M1120.91,416.61c0-3,2.69-4.41,8.68-5.07,0-2.07-.53-4.28-3.17-4.28a7.38,7.38,0,0,0-4.29,1.58l-.57-.92a9,9,0,0,1,5-1.75c3.19,0,4.26,2.32,4.26,5.19V420h-1l-.14-1.74h-.06a7.94,7.94,0,0,1-4.77,2.08C1122.68,420.29,1120.91,419.13,1120.91,416.61Zm8.68.44v-4.57c-5.53.64-7.41,1.92-7.41,4.06a2.54,2.54,0,0,0,2.35,2.7,2.09,2.09,0,0,0,.5,0c1.54,0,2.89-.75,4.56-2.17Zm-4.65-13.8,3.77-4.41.93.83-4,4.22Z"/><path class="cls-3" d="M1135.62,418.15V399.81h1.24v18.51c0,.6.25.88.58.88a2.22,2.22,0,0,0,.51-.06l.2,1a3,3,0,0,1-.89.14C1136.18,420.29,1135.62,419.62,1135.62,418.15Z"/><path class="cls-3" d="M1141.78,402.16a1.13,1.13,0,1,1,1.25,1h-.25A1.13,1.13,0,0,1,1141.78,402.16Zm.48,4.35h1.24V420h-1.24Z"/><path class="cls-3" d="M1147,418.43l.71-.9a6.25,6.25,0,0,0,4.28,1.7c2.11,0,3.21-1.24,3.21-2.65,0-1.69-1.74-2.43-3.29-3-2-.72-4.29-1.54-4.29-3.84,0-1.94,1.54-3.58,4.34-3.58a6.32,6.32,0,0,1,3.84,1.4l-.67.89a5.13,5.13,0,0,0-3.21-1.23c-2.09,0-3,1.21-3,2.45,0,1.53,1.58,2.12,3.18,2.72,2.09.79,4.39,1.48,4.39,4.1,0,2-1.62,3.79-4.53,3.79A7.6,7.6,0,0,1,1147,418.43Z"/><path class="cls-3" d="M1159.53,402.16a1.13,1.13,0,1,1,1.25,1h-.25A1.13,1.13,0,0,1,1159.53,402.16Zm.48,4.35h1.24V420H1160Z"/><path class="cls-3" d="M1164.75,418.43l.71-.9a6.25,6.25,0,0,0,4.28,1.7c2.11,0,3.21-1.24,3.21-2.65,0-1.69-1.74-2.43-3.29-3-2-.72-4.29-1.54-4.29-3.84,0-1.94,1.54-3.58,4.34-3.58a6.32,6.32,0,0,1,3.84,1.4l-.67.89a5.13,5.13,0,0,0-3.21-1.23c-2.09,0-3,1.21-3,2.45,0,1.53,1.58,2.12,3.19,2.72,2.08.79,4.39,1.48,4.39,4.1,0,2-1.62,3.79-4.54,3.79A7.65,7.65,0,0,1,1164.75,418.43Z"/><path class="cls-3" d="M837.88,459.64l.29-1a4.83,4.83,0,0,0,1.41.27c1.51,0,1.8-1.22,1.8-2.93V440.11h1.24v15.94c0,2.63-.93,3.93-3,3.93A4.9,4.9,0,0,1,837.88,459.64Zm3-23.88a1.13,1.13,0,1,1,1.25,1h-.25A1.13,1.13,0,0,1,840.88,435.76Z"/><path class="cls-3" d="M846.65,446.86c0-4.39,2.86-7.09,5.87-7.09,3.18,0,5.14,2.27,5.14,6.22a5.61,5.61,0,0,1-.07,1h-9.66c0,3.4,2,5.82,5.06,5.82a6.1,6.1,0,0,0,3.61-1.19l.51.94a7.29,7.29,0,0,1-4.24,1.32C849.44,453.89,846.65,451.25,846.65,446.86Zm9.85-.88c0-3.43-1.56-5.14-4-5.14s-4.33,1.93-4.61,5.14Z"/><path class="cls-3" d="M861.31,440.11h1.05l.13,2.51h.06c.91-1.65,2.23-2.85,3.83-2.85a2.77,2.77,0,0,1,1.33.28l-.28,1.12a3,3,0,0,0-1.21-.22c-1.21,0-2.65.92-3.67,3.46v9.14h-1.24Z"/><path class="cls-3" d="M868.63,450.21c0-3,2.7-4.41,8.68-5.07,0-2.07-.53-4.28-3.17-4.28a7.32,7.32,0,0,0-4.28,1.58l-.58-.92a9,9,0,0,1,5-1.75c3.19,0,4.27,2.32,4.27,5.19v8.59h-1l-.14-1.74h-.06a7.88,7.88,0,0,1-4.77,2.08C870.4,453.89,868.63,452.73,868.63,450.21Zm8.68.44v-4.57c-5.52.64-7.41,1.92-7.41,4.06a2.54,2.54,0,0,0,2.35,2.7,2.09,2.09,0,0,0,.5,0C874.29,452.82,875.65,452.07,877.31,450.65Zm-4.65-13.8,3.77-4.41.93.83-4,4.22Z"/><path class="cls-3" d="M883.35,440.11h1l.14,2.51h.06c.91-1.65,2.22-2.85,3.82-2.85a2.84,2.84,0,0,1,1.34.28l-.28,1.12a3,3,0,0,0-1.22-.22c-1.21,0-2.64.92-3.67,3.46v9.14h-1.23Z"/><path class="cls-3" d="M900.77,454.45l.07-2.66a6.57,6.57,0,0,1-4.46,2.1c-3.37,0-5.56-2.5-5.56-7,0-4.34,2.76-7.09,6-7.09a6.12,6.12,0,0,1,4,1.59h.06l.14-1.25h1v19.53h-1.24Zm0-3.87v-8a5.66,5.66,0,0,0-3.92-1.73c-2.67,0-4.73,2.61-4.73,6,0,3.58,1.59,5.94,4.44,5.94,1.49,0,2.8-.79,4.21-2.21Z"/><path class="cls-3" d="M907,448.73v-8.62h1.24v8.46c0,2.85.9,4.21,3.06,4.21,1.6,0,2.76-.84,4.34-2.75v-9.92h1.23v13.44h-1l-.14-2.25h-.06c-1.32,1.55-2.71,2.59-4.56,2.59C908.25,453.89,907,452.21,907,448.73Z"/><path class="cls-3" d="M921.5,435.76a1.13,1.13,0,1,1,1.25,1h-.25A1.13,1.13,0,0,1,921.5,435.76Zm.48,4.35h1.24v13.44H922Z"/><path class="cls-3" d="M927.27,446.86c0-4.5,2.87-7.09,6.14-7.09a5.52,5.52,0,0,1,3.94,1.66l-.73.86a4.62,4.62,0,0,0-3.18-1.42c-2.75,0-4.88,2.45-4.88,6s1.94,5.94,4.86,5.94a5.36,5.36,0,0,0,3.6-1.55l.64.87a6.4,6.4,0,0,1-4.3,1.77C929.89,453.89,927.27,451.3,927.27,446.86Z"/><path class="cls-3" d="M939.36,446.86c0-4.5,2.81-7.09,6-7.09s6,2.59,6,7.09-2.8,7-6,7S939.36,451.3,939.36,446.86Zm10.78,0c0-3.54-2-6-4.74-6s-4.74,2.45-4.74,6,2,5.94,4.74,5.94S950.14,450.4,950.14,446.86Z"/><path class="cls-3" d="M959.92,446.86c0-4.34,2.76-7.09,6-7.09a6.16,6.16,0,0,1,4.05,1.66l-.06-2.47v-5.55h1.23v20.14h-1l-.14-1.74h-.06a6.33,6.33,0,0,1-4.39,2.08C962.11,453.89,959.92,451.39,959.92,446.86Zm10,3.72v-8a5.66,5.66,0,0,0-3.92-1.73c-2.68,0-4.74,2.61-4.74,6,0,3.58,1.59,5.94,4.44,5.94,1.45,0,2.76-.79,4.18-2.21Z"/><path class="cls-3" d="M975.14,446.86c0-4.39,2.86-7.09,5.87-7.09,3.18,0,5.14,2.27,5.14,6.22a5.61,5.61,0,0,1-.07,1h-9.66c0,3.4,2,5.82,5.06,5.82a6.1,6.1,0,0,0,3.61-1.19l.51.94a7.29,7.29,0,0,1-4.24,1.32C977.93,453.89,975.14,451.25,975.14,446.86ZM985,446c0-3.43-1.56-5.14-4-5.14s-4.33,1.93-4.61,5.14Z"/><path class="cls-3" d="M994.44,450.21c0-3,2.69-4.41,8.67-5.07,0-2.07-.53-4.28-3.17-4.28a7.39,7.39,0,0,0-4.28,1.58l-.57-.92a9,9,0,0,1,5-1.75c3.18,0,4.26,2.32,4.26,5.19v8.59h-1.05l-.13-1.74h-.07a7.88,7.88,0,0,1-4.77,2.08C996.21,453.89,994.44,452.73,994.44,450.21Zm8.67.44v-4.57c-5.52.64-7.41,1.92-7.41,4.06a2.54,2.54,0,0,0,2.35,2.7,2.09,2.09,0,0,0,.5,0C1000.09,452.82,1001.45,452.07,1003.11,450.65Z"/><path class="cls-3" d="M1009.15,451.75V433.41h1.23v18.51c0,.6.25.88.59.88a2.07,2.07,0,0,0,.5-.06l.21,1a3,3,0,0,1-.89.14C1009.71,453.89,1009.15,453.22,1009.15,451.75Z"/><path class="cls-3" d="M1016.1,449.84v-8.65H1014v-1l2.13-.12.15-3.89h1.05v3.89h3.9v1.08h-3.9v8.74c0,1.72.44,2.88,2.29,2.88a4.68,4.68,0,0,0,1.68-.43l.33,1a8,8,0,0,1-2.2.5C1016.85,453.89,1016.1,452.25,1016.1,449.84Z"/><path class="cls-3" d="M1023.08,446.86c0-4.39,2.85-7.09,5.86-7.09,3.19,0,5.15,2.27,5.15,6.22a5.61,5.61,0,0,1-.07,1h-9.67c.05,3.4,2,5.82,5.06,5.82a6.13,6.13,0,0,0,3.62-1.19l.51.94a7.29,7.29,0,0,1-4.24,1.32C1025.86,453.89,1023.08,451.25,1023.08,446.86Zm9.84-.88c0-3.43-1.55-5.14-4-5.14s-4.32,1.93-4.6,5.14Z"/><path class="cls-3" d="M1037.74,440.11h1l.14,2.51h.06c.91-1.65,2.22-2.85,3.82-2.85a2.84,2.84,0,0,1,1.34.28l-.28,1.12a3,3,0,0,0-1.22-.22c-1.21,0-2.64.92-3.67,3.46v9.14h-1.23Z"/><path class="cls-3" d="M1046.61,440.11h1.05l.13,2.08h.06c1.38-1.36,2.78-2.42,4.63-2.42,2.78,0,4.06,1.69,4.06,5.16v8.62h-1.23v-8.46c0-2.85-.9-4.2-3.07-4.2-1.6,0-2.76.84-4.39,2.52v10.14h-1.24Z"/><path class="cls-3" d="M1060.54,450.21c0-3,2.7-4.41,8.68-5.07,0-2.07-.53-4.28-3.17-4.28a7.38,7.38,0,0,0-4.29,1.58l-.57-.92a9,9,0,0,1,5-1.75c3.19,0,4.27,2.32,4.27,5.19v8.59h-1l-.14-1.74h-.06a7.88,7.88,0,0,1-4.77,2.08C1062.31,453.89,1060.54,452.73,1060.54,450.21Zm8.68.44v-4.57c-5.52.64-7.41,1.92-7.41,4.06a2.54,2.54,0,0,0,2.35,2.7,2.09,2.09,0,0,0,.5,0c1.54,0,2.89-.75,4.56-2.17Z"/><path class="cls-3" d="M1075.26,449.84v-8.65h-2.1v-1l2.13-.12.16-3.89h1v3.89h3.9v1.08h-3.9v8.74c0,1.72.43,2.88,2.28,2.88a4.68,4.68,0,0,0,1.69-.43l.32,1a7.83,7.83,0,0,1-2.19.5C1076,453.89,1075.26,452.25,1075.26,449.84Z"/><path class="cls-3" d="M1083.2,435.76a1.13,1.13,0,1,1,1.25,1h-.25A1.13,1.13,0,0,1,1083.2,435.76Zm.48,4.35h1.24v13.44h-1.24Z"/><path class="cls-3" d="M1087.85,440.11h1.34l3,8.42c.44,1.3.92,2.66,1.36,3.87h.11c.44-1.21.93-2.57,1.36-3.87l3-8.42h1.26l-5,13.44h-1.47Z"/><path class="cls-3" d="M1100.72,450.21c0-3,2.7-4.41,8.68-5.07,0-2.07-.53-4.28-3.17-4.28a7.38,7.38,0,0,0-4.29,1.58l-.57-.92a9,9,0,0,1,5-1.75c3.19,0,4.26,2.32,4.26,5.19v8.59h-1l-.14-1.74h-.06a7.94,7.94,0,0,1-4.77,2.08C1102.49,453.89,1100.72,452.73,1100.72,450.21Zm8.68.44v-4.57c-5.52.64-7.41,1.92-7.41,4.06a2.54,2.54,0,0,0,2.35,2.7,2.09,2.09,0,0,0,.5,0C1106.38,452.82,1107.73,452.07,1109.4,450.65Z"/><path class="cls-3" d="M1113.76,452l.72-.9a6.21,6.21,0,0,0,4.27,1.7c2.12,0,3.21-1.24,3.21-2.65,0-1.69-1.74-2.43-3.29-3-2-.72-4.28-1.54-4.28-3.84,0-1.94,1.53-3.58,4.33-3.58a6.32,6.32,0,0,1,3.84,1.4l-.66.89a5.13,5.13,0,0,0-3.21-1.23c-2.1,0-3,1.21-3,2.45,0,1.53,1.59,2.12,3.19,2.72,2.08.79,4.39,1.48,4.39,4.1,0,2-1.62,3.79-4.53,3.79A7.65,7.65,0,0,1,1113.76,452Z"/><path class="cls-3" d="M1126.07,452.64a1.19,1.19,0,1,1,1.19,1.19h0A1.19,1.19,0,0,1,1126.07,452.64Z"/><text class="cls-7" transform="translate(838.93 375.52) scale(0.85 1)">EJECU</text><text class="cls-8" transform="translate(920.43 375.52) scale(0.85 1)">T</text><text class="cls-7" transform="translate(935.66 375.52) scale(0.85 1)">AR</text><path class="cls-3" d="M359.39,715c0-5.85,3.29-9.53,8.16-9.53a6.62,6.62,0,0,1,5,2.21l-.75.86a5.52,5.52,0,0,0-4.26-1.9c-4.23,0-6.83,3.22-6.83,8.34s2.47,8.45,6.67,8.45a6,6,0,0,0,4.13-1.4v-5.74H367.1v-1.1h5.64v7.32a7.35,7.35,0,0,1-5.46,2.09C362.57,724.58,359.39,720.84,359.39,715Z"/><path class="cls-3" d="M376.24,717.54c0-4.38,2.86-7.08,5.87-7.08,3.18,0,5.14,2.27,5.14,6.22a5.61,5.61,0,0,1-.07,1h-9.66c0,3.39,2,5.82,5.06,5.82a6,6,0,0,0,3.61-1.2l.51.94a7.3,7.3,0,0,1-4.24,1.33C379,724.58,376.24,721.94,376.24,717.54Zm9.85-.87c0-3.43-1.56-5.14-4-5.14s-4.33,1.93-4.61,5.14Z"/><path class="cls-3" d="M390.9,710.79H392l.13,2.09h.06c1.37-1.37,2.77-2.42,4.63-2.42,2.78,0,4.06,1.68,4.06,5.16v8.62H399.6v-8.46c0-2.85-.91-4.21-3.07-4.21-1.6,0-2.76.85-4.39,2.53v10.14H390.9Z"/><path class="cls-3" d="M404.66,717.54c0-4.38,2.85-7.08,5.87-7.08,3.18,0,5.14,2.27,5.14,6.22a5.61,5.61,0,0,1-.07,1h-9.66c0,3.39,2,5.82,5.06,5.82a6,6,0,0,0,3.61-1.2l.51.94a7.3,7.3,0,0,1-4.24,1.33C407.45,724.58,404.66,721.94,404.66,717.54Zm9.85-.87c0-3.43-1.56-5.14-4-5.14s-4.33,1.93-4.61,5.14Z"/><path class="cls-3" d="M419.32,710.79h1.05l.13,2.51h.06c.91-1.65,2.23-2.84,3.83-2.84a2.77,2.77,0,0,1,1.33.28l-.28,1.12a3,3,0,0,0-1.21-.23c-1.21,0-2.65.92-3.67,3.47v9.14h-1.24Z"/><path class="cls-3" d="M426.64,720.89c0-3,2.7-4.41,8.68-5.07,0-2.06-.53-4.28-3.17-4.28a7.38,7.38,0,0,0-4.29,1.58l-.57-.91a9,9,0,0,1,5-1.75c3.19,0,4.27,2.31,4.27,5.19v8.59h-1.05l-.14-1.75h-.06a7.9,7.9,0,0,1-4.77,2.09C428.41,724.58,426.64,723.42,426.64,720.89Zm8.68.45v-4.58c-5.52.64-7.41,1.93-7.41,4.07,0,1.93,1.3,2.67,2.85,2.67S433.65,722.76,435.32,721.34Z"/><path class="cls-3" d="M441.35,710.79h1l.14,2.51h.06c.91-1.65,2.22-2.84,3.82-2.84a2.84,2.84,0,0,1,1.34.28l-.28,1.12a3,3,0,0,0-1.22-.23c-1.21,0-2.64.92-3.67,3.47v9.14H441.3Z"/><path class="cls-3" d="M455.83,722.44V704.1h1.24v18.51c0,.6.24.87.58.87a2.73,2.73,0,0,0,.5-.05l.21,1a3,3,0,0,1-.89.14C456.39,724.58,455.83,723.91,455.83,722.44Z"/><path class="cls-3" d="M461.33,717.54c0-4.49,2.81-7.08,6-7.08s6,2.59,6,7.08-2.81,7-6,7S461.33,722,461.33,717.54Zm10.78,0c0-3.54-2-6-4.74-6s-4.74,2.45-4.74,6,2,5.94,4.74,5.94S472.11,721.08,472.11,717.54Z"/><path class="cls-3" d="M475.74,722.72l.72-.9a6.21,6.21,0,0,0,4.27,1.7c2.12,0,3.22-1.24,3.22-2.66,0-1.68-1.74-2.42-3.3-3-2-.72-4.28-1.55-4.28-3.84,0-1.94,1.54-3.58,4.34-3.58a6.38,6.38,0,0,1,3.84,1.39l-.67.89a5.17,5.17,0,0,0-3.21-1.22c-2.1,0-3,1.2-3,2.44,0,1.54,1.58,2.12,3.18,2.73,2.08.79,4.39,1.47,4.39,4.1,0,2-1.62,3.79-4.53,3.79A7.74,7.74,0,0,1,475.74,722.72Z"/><path class="cls-3" d="M493.4,720.89c0-3,2.69-4.41,8.67-5.07,0-2.06-.53-4.28-3.17-4.28a7.32,7.32,0,0,0-4.28,1.58l-.58-.91a9,9,0,0,1,5-1.75c3.19,0,4.27,2.31,4.27,5.19v8.59h-1.05l-.13-1.75h-.07a7.9,7.9,0,0,1-4.77,2.09C495.16,724.58,493.4,723.42,493.4,720.89Zm8.67.45v-4.58c-5.52.64-7.41,1.93-7.41,4.07,0,1.93,1.3,2.67,2.85,2.67S500.41,722.76,502.07,721.34Z"/><path class="cls-3" d="M508.11,710.79h1l.14,2.09h.06c1.37-1.37,2.77-2.42,4.62-2.42,2.78,0,4.07,1.68,4.07,5.16v8.62h-1.2v-8.46c0-2.85-.9-4.21-3.06-4.21-1.6,0-2.76.85-4.4,2.53v10.14h-1.23Z"/><path class="cls-3" d="M522,720.89c0-3,2.69-4.41,8.67-5.07,0-2.06-.52-4.28-3.17-4.28a7.39,7.39,0,0,0-4.28,1.58l-.57-.91a9,9,0,0,1,5-1.75c3.19,0,4.26,2.31,4.26,5.19v8.59h-1l-.13-1.75h-.06a8,8,0,0,1-4.77,2.09C523.81,724.58,522,723.42,522,720.89Zm8.67.45v-4.58c-5.52.64-7.41,1.93-7.41,4.07,0,1.93,1.31,2.67,2.85,2.67s2.94-.74,4.6-2.16ZM526,707.54l3.77-4.41.93.82-4,4.22Z"/><path class="cls-3" d="M536.75,722.44V704.1H538v18.51c0,.6.24.87.58.87a2.73,2.73,0,0,0,.5-.05l.21,1a3,3,0,0,1-.89.14C537.31,724.58,536.75,723.91,536.75,722.44Z"/><path class="cls-3" d="M542.9,706.45a1.13,1.13,0,1,1,1.13,1.13A1.15,1.15,0,0,1,542.9,706.45Zm.49,4.34h1.23v13.45h-1.23Z"/><path class="cls-3" d="M548.12,722.72l.72-.9a6.21,6.21,0,0,0,4.27,1.7c2.12,0,3.22-1.24,3.22-2.66,0-1.68-1.74-2.42-3.3-3-2-.72-4.28-1.55-4.28-3.84,0-1.94,1.53-3.58,4.33-3.58a6.43,6.43,0,0,1,3.85,1.39l-.67.89a5.17,5.17,0,0,0-3.21-1.22c-2.1,0-3,1.2-3,2.44,0,1.54,1.59,2.12,3.19,2.73,2.08.79,4.39,1.47,4.39,4.1,0,2-1.62,3.79-4.53,3.79A7.77,7.77,0,0,1,548.12,722.72Z"/><path class="cls-3" d="M560.66,706.45a1.13,1.13,0,1,1,1.25,1h-.25A1.13,1.13,0,0,1,560.66,706.45Zm.48,4.34h1.24v13.45h-1.24Z"/><path class="cls-3" d="M565.88,722.72l.71-.9a6.21,6.21,0,0,0,4.27,1.7c2.12,0,3.22-1.24,3.22-2.66,0-1.68-1.74-2.42-3.29-3-2-.72-4.29-1.55-4.29-3.84,0-1.94,1.54-3.58,4.34-3.58a6.38,6.38,0,0,1,3.84,1.39l-.67.89a5.17,5.17,0,0,0-3.21-1.22c-2.09,0-3,1.2-3,2.44,0,1.54,1.58,2.12,3.18,2.73,2.09.79,4.39,1.47,4.39,4.1,0,2-1.62,3.79-4.53,3.79A7.7,7.7,0,0,1,565.88,722.72Z"/><path class="cls-3" d="M583.37,717.54c0-4.34,2.75-7.08,6-7.08a6.2,6.2,0,0,1,4.06,1.65l-.07-2.47V704.1h1.24v20.14h-1l-.13-1.74h-.07a6.29,6.29,0,0,1-4.38,2.08C585.56,724.58,583.37,722.08,583.37,717.54Zm10,3.72v-8a5.66,5.66,0,0,0-3.92-1.73c-2.67,0-4.73,2.61-4.73,6,0,3.58,1.59,5.94,4.44,5.94,1.43,0,2.75-.77,4.16-2.21Z"/><path class="cls-3" d="M598.59,717.54c0-4.38,2.85-7.08,5.86-7.08,3.19,0,5.15,2.27,5.15,6.22a5.61,5.61,0,0,1-.07,1h-9.67c0,3.39,2,5.82,5.06,5.82a6,6,0,0,0,3.62-1.2l.5.94a7.29,7.29,0,0,1-4.23,1.33C601.37,724.58,598.59,721.94,598.59,717.54Zm9.84-.87c0-3.43-1.55-5.14-4-5.14s-4.32,1.93-4.61,5.14Z"/><path class="cls-3" d="M358.76,756.32l.72-.9a6.21,6.21,0,0,0,4.27,1.7c2.12,0,3.22-1.24,3.22-2.66,0-1.68-1.75-2.42-3.3-3-2-.72-4.28-1.55-4.28-3.84,0-1.94,1.53-3.58,4.33-3.58a6.38,6.38,0,0,1,3.84,1.39l-.66.89a5.17,5.17,0,0,0-3.21-1.22c-2.1,0-3.05,1.2-3.05,2.44,0,1.54,1.59,2.12,3.19,2.73,2.08.79,4.39,1.47,4.39,4.1,0,2-1.62,3.79-4.53,3.79A7.75,7.75,0,0,1,358.76,756.32Z"/><path class="cls-3" d="M370.64,751.14c0-4.38,2.86-7.08,5.87-7.08,3.18,0,5.14,2.27,5.14,6.22a5.61,5.61,0,0,1-.07,1h-9.66c0,3.39,2,5.82,5.06,5.82a6,6,0,0,0,3.61-1.2l.51,1a7.29,7.29,0,0,1-4.24,1.32C373.43,758.18,370.64,755.54,370.64,751.14Zm9.85-.87c0-3.43-1.56-5.14-4-5.14s-4.33,1.92-4.61,5.14Z"/><path class="cls-3" d="M385.3,744.4h1.05l.13,2.08h.06c1.38-1.37,2.77-2.42,4.63-2.42,2.78,0,4.06,1.68,4.06,5.16v8.62H394v-8.46c0-2.85-.9-4.21-3.07-4.21-1.6,0-2.76.85-4.39,2.53v10.14H385.3Z"/><path class="cls-3" d="M398.52,756.32l.72-.9a6.21,6.21,0,0,0,4.27,1.7c2.12,0,3.22-1.24,3.22-2.66,0-1.68-1.75-2.42-3.3-3-2-.72-4.28-1.55-4.28-3.84,0-1.94,1.53-3.58,4.33-3.58a6.38,6.38,0,0,1,3.84,1.39l-.66.89a5.17,5.17,0,0,0-3.21-1.22c-2.1,0-3.05,1.2-3.05,2.44,0,1.54,1.59,2.12,3.19,2.73,2.08.79,4.39,1.47,4.39,4.1,0,2-1.62,3.79-4.53,3.79A7.75,7.75,0,0,1,398.52,756.32Z"/><path class="cls-3" d="M411.05,740.05a1.13,1.13,0,1,1,1.13,1.13A1.15,1.15,0,0,1,411.05,740.05Zm.49,4.35h1.23v13.44h-1.23Z"/><path class="cls-3" d="M419.18,756.48h-.06l-.14,1.36h-1V737.7h1.23v5.84l-.06,2.63a7.69,7.69,0,0,1,4.63-2.11c3.61,0,5.39,2.7,5.39,6.86,0,4.56-2.76,7.26-5.93,7.26A6.82,6.82,0,0,1,419.18,756.48Zm8.66-5.56c0-3.3-1.18-5.76-4.28-5.76-1.33,0-2.8.78-4.38,2.21v8a6.44,6.44,0,0,0,4,1.73C425.88,757.08,427.84,754.57,427.84,750.92Z"/><path class="cls-3" d="M432.64,740.05a1.13,1.13,0,1,1,1.25,1h-.25A1.13,1.13,0,0,1,432.64,740.05Zm.48,4.35h1.24v13.44h-1.24Z"/><path class="cls-3" d="M439.53,756V737.7h1.24v18.51c0,.59.25.87.58.87a2.94,2.94,0,0,0,.51-.05l.21,1a3,3,0,0,1-.89.14C440.09,758.18,439.53,757.51,439.53,756Z"/><path class="cls-3" d="M445.69,740.05a1.13,1.13,0,1,1,1.25,1h-.25A1.13,1.13,0,0,1,445.69,740.05Zm.48,4.35h1.24v13.44h-1.24Z"/><path class="cls-3" d="M451.46,751.14c0-4.34,2.76-7.08,6-7.08a6.15,6.15,0,0,1,4.05,1.65l-.07-2.47V737.7h1.24v20.14h-1l-.13-1.74h-.06a6.33,6.33,0,0,1-4.39,2.08C453.65,758.18,451.46,755.68,451.46,751.14Zm10,3.72v-8a5.66,5.66,0,0,0-3.92-1.73c-2.67,0-4.73,2.61-4.73,6,0,3.58,1.59,5.94,4.44,5.94,1.44,0,2.75-.77,4.16-2.21Z"/><path class="cls-3" d="M466.85,754.49c0-3,2.69-4.41,8.68-5.07,0-2.06-.53-4.27-3.17-4.27a7.44,7.44,0,0,0-4.29,1.57l-.57-.91a9,9,0,0,1,5-1.75c3.19,0,4.26,2.31,4.26,5.19v8.59h-1l-.14-1.75h-.06a8,8,0,0,1-4.77,2.09C468.62,758.18,466.85,757,466.85,754.49Zm8.68.45v-4.58c-5.53.64-7.41,1.93-7.41,4.07,0,1.93,1.3,2.67,2.85,2.67S473.86,756.36,475.53,754.94Z"/><path class="cls-3" d="M480.44,751.14c0-4.34,2.76-7.08,6-7.08a6.2,6.2,0,0,1,4,1.65l-.07-2.47V737.7h1.24v20.14h-1.05l-.13-1.74h-.06a6.37,6.37,0,0,1-4.39,2.08C482.63,758.18,480.44,755.68,480.44,751.14Zm9.95,3.72v-8a5.66,5.66,0,0,0-3.92-1.73c-2.67,0-4.73,2.61-4.73,6,0,3.58,1.59,5.94,4.44,5.94C487.67,757.08,489,756.3,490.39,754.86Z"/><path class="cls-3" d="M501.27,751.14c0-4.34,2.76-7.08,6-7.08a6.15,6.15,0,0,1,4.05,1.65l-.07-2.47V737.7h1.24v20.14h-1l-.14-1.74h-.06a6.33,6.33,0,0,1-4.39,2.08C503.46,758.18,501.27,755.68,501.27,751.14Zm10,3.72v-8a5.66,5.66,0,0,0-3.92-1.73c-2.67,0-4.73,2.61-4.73,6,0,3.58,1.59,5.94,4.44,5.94,1.44,0,2.75-.77,4.16-2.21Z"/><path class="cls-3" d="M516.49,751.14c0-4.38,2.85-7.08,5.87-7.08,3.18,0,5.14,2.27,5.14,6.22a5.61,5.61,0,0,1-.07,1h-9.66c0,3.39,2,5.82,5.06,5.82a6,6,0,0,0,3.61-1.2l.51,1a7.29,7.29,0,0,1-4.24,1.32C519.28,758.18,516.49,755.54,516.49,751.14Zm9.85-.87c0-3.43-1.56-5.14-4-5.14s-4.33,1.92-4.61,5.14Z"/><path class="cls-3" d="M535.62,751.14c0-4.49,2.87-7.08,6.14-7.08a5.52,5.52,0,0,1,3.94,1.66l-.73.86a4.57,4.57,0,0,0-3.18-1.43c-2.75,0-4.87,2.45-4.87,6s1.93,5.94,4.85,5.94a5.31,5.31,0,0,0,3.6-1.55l.64.87a6.43,6.43,0,0,1-4.29,1.78C538.24,758.18,535.62,755.59,535.62,751.14Z"/><path class="cls-3" d="M547.71,751.14c0-4.49,2.81-7.08,6-7.08s6,2.59,6,7.08-2.81,7-6,7S547.71,755.59,547.71,751.14Zm10.78,0c0-3.54-2-6-4.74-6s-4.74,2.45-4.74,6,2,5.94,4.74,5.94S558.49,754.68,558.49,751.14Z"/><path class="cls-3" d="M562.12,756.32l.72-.9a6.21,6.21,0,0,0,4.27,1.7c2.12,0,3.22-1.24,3.22-2.66,0-1.68-1.75-2.42-3.3-3-2-.72-4.28-1.55-4.28-3.84,0-1.94,1.53-3.58,4.33-3.58a6.43,6.43,0,0,1,3.85,1.39l-.67.89a5.17,5.17,0,0,0-3.21-1.22c-2.1,0-3,1.2-3,2.44,0,1.54,1.59,2.12,3.19,2.73,2.08.79,4.39,1.47,4.39,4.1,0,2-1.62,3.79-4.53,3.79A7.77,7.77,0,0,1,562.12,756.32Z"/><path class="cls-3" d="M574.89,754.13v-8.65h-2.1v-1l2.13-.11.16-3.9h1v3.9H580v1.08h-3.9v8.74c0,1.72.43,2.88,2.28,2.88a5,5,0,0,0,1.69-.43l.32,1a7.51,7.51,0,0,1-2.19.51C575.65,758.18,574.89,756.54,574.89,754.13Z"/><path class="cls-3" d="M581.87,751.14c0-4.49,2.81-7.08,6-7.08s6,2.59,6,7.08-2.81,7-6,7S581.87,755.59,581.87,751.14Zm10.78,0c0-3.54-2-6-4.74-6s-4.74,2.45-4.74,6,2,5.94,4.74,5.94S592.65,754.68,592.65,751.14Z"/><path class="cls-3" d="M596.28,756.32l.72-.9a6.21,6.21,0,0,0,4.27,1.7c2.12,0,3.22-1.24,3.22-2.66,0-1.68-1.74-2.42-3.3-3-2-.72-4.28-1.55-4.28-3.84,0-1.94,1.53-3.58,4.33-3.58a6.43,6.43,0,0,1,3.85,1.39l-.67.89a5.17,5.17,0,0,0-3.21-1.22c-2.1,0-3.05,1.2-3.05,2.44,0,1.54,1.59,2.12,3.19,2.73,2.08.79,4.39,1.47,4.39,4.1,0,2-1.62,3.79-4.53,3.79A7.75,7.75,0,0,1,596.28,756.32Z"/><path class="cls-3" d="M613,763.68l.28-1.07a3.17,3.17,0,0,0,1.1.22c1.64,0,2.76-1.52,3.44-3.57l.37-1.17-5.52-13.69H614l3.24,8.45c.44,1.13,1,2.57,1.46,3.77h.12c.43-1.19.86-2.63,1.24-3.77l2.87-8.45h1.26l-5.31,15.13c-.75,2.24-2.11,4.43-4.52,4.43A3.35,3.35,0,0,1,613,763.68Z"/><path class="cls-3" d="M633.94,756.48h-.06l-.15,1.36h-1V737.7H634v5.84l-.06,2.63a7.63,7.63,0,0,1,4.63-2.11c3.61,0,5.38,2.7,5.38,6.86,0,4.56-2.75,7.26-5.92,7.26A6.84,6.84,0,0,1,633.94,756.48Zm8.65-5.56c0-3.3-1.17-5.76-4.27-5.76-1.34,0-2.8.78-4.38,2.21v8a6.39,6.39,0,0,0,4,1.73C640.63,757.08,642.59,754.57,642.59,750.92Z"/><path class="cls-3" d="M646.75,751.14c0-4.38,2.85-7.08,5.86-7.08,3.19,0,5.15,2.27,5.15,6.22a5.61,5.61,0,0,1-.07,1H648c0,3.39,2,5.82,5.06,5.82a6,6,0,0,0,3.61-1.2l.51,1a7.28,7.28,0,0,1-4.23,1.32C649.53,758.18,646.75,755.54,646.75,751.14Zm9.84-.87c0-3.43-1.55-5.14-4-5.14s-4.33,1.92-4.61,5.14Z"/><path class="cls-3" d="M661.4,744.4h1.05l.14,2.08h.06c1.37-1.37,2.77-2.42,4.62-2.42,2.78,0,4.07,1.68,4.07,5.16v8.62H670.1v-8.46c0-2.85-.9-4.21-3.06-4.21-1.6,0-2.76.85-4.4,2.53v10.14H661.4Z"/><path class="cls-3" d="M675.17,751.14c0-4.38,2.85-7.08,5.86-7.08,3.19,0,5.15,2.27,5.15,6.22a5.61,5.61,0,0,1-.07,1h-9.67c0,3.39,2,5.82,5.06,5.82a6,6,0,0,0,3.61-1.2l.51,1a7.29,7.29,0,0,1-4.24,1.32C678,758.18,675.17,755.54,675.17,751.14Zm9.84-.87c0-3.43-1.55-5.14-4-5.14-2.27,0-4.33,1.92-4.61,5.14Z"/><path class="cls-3" d="M688.13,744.51l1.88-.11h4.32v1.08h-6.2ZM690,741.4c0-2.66,1.2-4,3.33-4a5,5,0,0,1,2,.46l-.34,1a3.55,3.55,0,0,0-1.6-.38c-1.45,0-2.11,1.1-2.11,3v16.35H690Z"/><path class="cls-3" d="M696.68,740.05a1.13,1.13,0,1,1,1.25,1h-.25A1.13,1.13,0,0,1,696.68,740.05Zm.48,4.35h1.24v13.44h-1.24Z"/><path class="cls-3" d="M702.44,751.14c0-4.49,2.87-7.08,6.14-7.08a5.52,5.52,0,0,1,3.94,1.66l-.73.86a4.57,4.57,0,0,0-3.18-1.43c-2.75,0-4.87,2.45-4.87,6s1.93,5.94,4.85,5.94a5.36,5.36,0,0,0,3.61-1.55l.63.87a6.38,6.38,0,0,1-4.29,1.78C705.07,758.18,702.44,755.59,702.44,751.14Z"/><path class="cls-3" d="M715.66,740.05a1.13,1.13,0,1,1,1.25,1h-.25A1.13,1.13,0,0,1,715.66,740.05Zm.48,4.35h1.24v13.44h-1.24Z"/><path class="cls-3" d="M721.42,751.14c0-4.49,2.81-7.08,6-7.08s6,2.59,6,7.08-2.81,7-6,7S721.42,755.59,721.42,751.14Zm10.78,0c0-3.54-2-6-4.74-6s-4.74,2.45-4.74,6,2,5.94,4.74,5.94S732.2,754.68,732.2,751.14Z"/><path class="cls-3" d="M735.83,756.32l.72-.9a6.21,6.21,0,0,0,4.27,1.7c2.12,0,3.22-1.24,3.22-2.66,0-1.68-1.75-2.42-3.3-3-2-.72-4.28-1.55-4.28-3.84,0-1.94,1.53-3.58,4.33-3.58a6.43,6.43,0,0,1,3.85,1.39l-.67.89a5.17,5.17,0,0,0-3.21-1.22c-2.1,0-3,1.2-3,2.44,0,1.54,1.59,2.12,3.19,2.73,2.08.79,4.39,1.47,4.39,4.1,0,2-1.62,3.79-4.53,3.79A7.77,7.77,0,0,1,735.83,756.32Z"/><text class="cls-7" transform="translate(357.99 679.8) scale(0.85 1)">A</text><text class="cls-9" transform="translate(376.29 679.8) scale(0.85 1)">N</text><text class="cls-7" transform="translate(395.74 679.8) scale(0.85 1)">ALISIS</text><path class="cls-3" d="M849.39,967c0-5.85,3.29-9.53,8.16-9.53a6.62,6.62,0,0,1,5,2.21l-.75.86a5.52,5.52,0,0,0-4.26-1.9c-4.23,0-6.83,3.22-6.83,8.34s2.47,8.45,6.67,8.45a6,6,0,0,0,4.13-1.4v-5.74H857.1v-1.1h5.64v7.32a7.35,7.35,0,0,1-5.46,2.09C852.57,976.58,849.39,972.84,849.39,967Z"/><path class="cls-3" d="M866.24,969.54c0-4.38,2.86-7.08,5.87-7.08,3.18,0,5.14,2.27,5.14,6.22a5.61,5.61,0,0,1-.07,1h-9.66c0,3.39,2,5.82,5.06,5.82a6,6,0,0,0,3.61-1.2l.51.94a7.3,7.3,0,0,1-4.24,1.33C869,976.58,866.24,973.94,866.24,969.54Zm9.85-.87c0-3.43-1.56-5.14-4-5.14s-4.33,1.93-4.61,5.14Z"/><path class="cls-3" d="M880.9,962.79H882l.13,2.09h.06c1.37-1.37,2.77-2.42,4.63-2.42,2.78,0,4.06,1.68,4.06,5.16v8.62H889.6v-8.46c0-2.85-.91-4.21-3.07-4.21-1.6,0-2.76.85-4.39,2.53v10.14H880.9Z"/><path class="cls-3" d="M894.66,969.54c0-4.38,2.85-7.08,5.87-7.08,3.18,0,5.14,2.27,5.14,6.22a5.61,5.61,0,0,1-.07,1h-9.66c0,3.39,2,5.82,5.06,5.82a6,6,0,0,0,3.61-1.2l.51.94a7.3,7.3,0,0,1-4.24,1.33C897.45,976.58,894.66,973.94,894.66,969.54Zm9.85-.87c0-3.43-1.56-5.14-4-5.14s-4.33,1.93-4.61,5.14Z"/><path class="cls-3" d="M909.32,962.79h1l.13,2.51h.06c.91-1.65,2.23-2.84,3.83-2.84a2.77,2.77,0,0,1,1.33.28l-.28,1.12a3,3,0,0,0-1.21-.23c-1.21,0-2.65.92-3.67,3.47v9.14h-1.24Z"/><path class="cls-3" d="M916.64,972.89c0-3,2.7-4.41,8.68-5.07,0-2.06-.53-4.28-3.17-4.28a7.38,7.38,0,0,0-4.29,1.58l-.57-.91a9,9,0,0,1,5-1.75c3.19,0,4.27,2.31,4.27,5.19v8.59h-1l-.14-1.75h-.06a7.9,7.9,0,0,1-4.77,2.09C918.41,976.58,916.64,975.42,916.64,972.89Zm8.68.45v-4.58c-5.52.64-7.41,1.93-7.41,4.07,0,1.93,1.3,2.67,2.85,2.67S923.65,974.76,925.32,973.34Z"/><path class="cls-3" d="M931.35,962.79h1l.14,2.51h.06c.91-1.65,2.22-2.84,3.82-2.84a2.84,2.84,0,0,1,1.34.28l-.28,1.12a3,3,0,0,0-1.22-.23c-1.21,0-2.64.92-3.67,3.47v9.14H931.3Z"/><path class="cls-3" d="M945.83,962.79h1l.13,2.51h0c.91-1.65,2.23-2.84,3.83-2.84a2.77,2.77,0,0,1,1.33.28l-.28,1.12a3,3,0,0,0-1.21-.23c-1.21,0-2.65.92-3.67,3.47v9.14h-1.24Z"/><path class="cls-3" d="M953.29,969.54c0-4.38,2.86-7.08,5.87-7.08,3.18,0,5.14,2.27,5.14,6.22a5.61,5.61,0,0,1-.07,1h-9.66c0,3.39,2,5.82,5.06,5.82a6,6,0,0,0,3.61-1.2l.51.94a7.3,7.3,0,0,1-4.24,1.33C956.08,976.58,953.29,973.94,953.29,969.54Zm9.85-.87c0-3.43-1.56-5.14-4-5.14s-4.33,1.93-4.61,5.14Z"/><path class="cls-3" d="M968,962.79h1l.13,1.7h.06a7.8,7.8,0,0,1,4.57-2c3.6,0,5.38,2.7,5.38,6.86,0,4.56-2.76,7.26-5.93,7.26a7,7,0,0,1-4-1.66v7.41H968Zm9.89,6.53c0-3.3-1.18-5.76-4.28-5.76-1.33,0-2.75.78-4.37,2.21v8a6.52,6.52,0,0,0,4,1.73c2.64,0,4.6-2.5,4.6-6.18Z"/><path class="cls-3" d="M982.05,969.54c0-4.49,2.81-7.08,6-7.08s6,2.59,6,7.08-2.8,7-6,7S982.05,974,982.05,969.54Zm10.78,0c0-3.54-2-6-4.74-6s-4.74,2.45-4.74,6,2,5.94,4.74,5.94S992.83,973.08,992.83,969.54Z"/><path class="cls-3" d="M998.16,962.79h1.05l.13,2.51h.06c.91-1.65,2.23-2.84,3.83-2.84a2.77,2.77,0,0,1,1.33.28l-.28,1.12a3,3,0,0,0-1.21-.23c-1.21,0-2.65.92-3.67,3.47v9.14h-1.24Z"/><path class="cls-3" d="M1007.35,972.53v-8.65h-2.1v-1l2.13-.12.16-3.89h1.05v3.89h3.9v1.09h-3.9v8.74c0,1.72.43,2.88,2.28,2.88a5,5,0,0,0,1.69-.43l.32,1a7.51,7.51,0,0,1-2.19.51C1008.11,976.58,1007.35,974.94,1007.35,972.53Z"/><path class="cls-3" d="M1014.33,969.54c0-4.38,2.85-7.08,5.87-7.08,3.18,0,5.14,2.27,5.14,6.22a5.61,5.61,0,0,1-.07,1h-9.66c0,3.39,2,5.82,5.06,5.82a6,6,0,0,0,3.61-1.2l.51.94a7.3,7.3,0,0,1-4.24,1.33C1017.12,976.58,1014.33,973.94,1014.33,969.54Zm9.85-.87c0-3.43-1.56-5.14-4-5.14s-4.33,1.93-4.61,5.14Z"/><path class="cls-3" d="M1027.31,974.72l.72-.9a6.21,6.21,0,0,0,4.27,1.7c2.12,0,3.22-1.24,3.22-2.66,0-1.68-1.74-2.42-3.29-3-2-.72-4.29-1.55-4.29-3.84,0-1.94,1.54-3.58,4.34-3.58a6.38,6.38,0,0,1,3.84,1.39l-.67.89a5.17,5.17,0,0,0-3.21-1.22c-2.09,0-3,1.2-3,2.44,0,1.54,1.58,2.12,3.18,2.73,2.09.79,4.39,1.47,4.39,4.1,0,2-1.62,3.79-4.53,3.79A7.74,7.74,0,0,1,1027.31,974.72Z"/><path class="cls-3" d="M1044.8,969.54c0-4.49,2.87-7.08,6.14-7.08a5.52,5.52,0,0,1,3.94,1.66l-.73.86a4.57,4.57,0,0,0-3.18-1.43c-2.75,0-4.87,2.45-4.87,6s1.93,5.94,4.85,5.94a5.31,5.31,0,0,0,3.6-1.55l.64.87a6.43,6.43,0,0,1-4.29,1.78C1047.42,976.58,1044.8,974,1044.8,969.54Z"/><path class="cls-3" d="M1056.89,969.54c0-4.49,2.81-7.08,6-7.08s6,2.59,6,7.08-2.81,7-6,7S1056.89,974,1056.89,969.54Zm10.78,0c0-3.54-2-6-4.74-6s-4.74,2.45-4.74,6,2,5.94,4.74,5.94S1067.67,973.08,1067.67,969.54Z"/><path class="cls-3" d="M1073,962.79h1l.14,2.09h.06a6.22,6.22,0,0,1,4.25-2.42,3.49,3.49,0,0,1,3.71,2.74c1.53-1.68,3-2.74,4.56-2.74,2.68,0,4,1.68,4,5.16v8.62h-1.23v-8.46c0-2.85-1-4.21-3-4.21-1.26,0-2.54.84-4,2.53v10.14h-1.24v-8.46c0-2.85-1-4.21-3-4.21-1.22,0-2.54.84-4,2.53v10.14H1073Z"/><path class="cls-3" d="M1095.74,962.79h1l.13,1.7h.06a7.8,7.8,0,0,1,4.57-2c3.6,0,5.38,2.7,5.38,6.86,0,4.56-2.76,7.26-5.93,7.26a7,7,0,0,1-4-1.66v7.41h-1.24Zm9.89,6.53c0-3.3-1.18-5.76-4.28-5.76-1.33,0-2.75.78-4.37,2.21v8a6.52,6.52,0,0,0,4,1.73C1103.67,975.48,1105.63,973,1105.63,969.32Z"/><path class="cls-3" d="M1109.59,972.89c0-3,2.69-4.41,8.67-5.07,0-2.06-.52-4.28-3.17-4.28a7.39,7.39,0,0,0-4.28,1.58l-.57-.91a9,9,0,0,1,5-1.75c3.19,0,4.26,2.31,4.26,5.19v8.59h-1l-.13-1.75h-.06a8,8,0,0,1-4.77,2.09C1111.36,976.58,1109.59,975.42,1109.59,972.89Zm8.67.45v-4.58c-5.52.64-7.41,1.93-7.41,4.07,0,1.93,1.31,2.67,2.86,2.67S1116.6,974.76,1118.26,973.34Z"/><path class="cls-3" d="M1124.3,962.79h1l.13,2.51h.06c.91-1.65,2.23-2.84,3.83-2.84a2.77,2.77,0,0,1,1.33.28l-.28,1.12a3,3,0,0,0-1.21-.23c-1.21,0-2.65.92-3.67,3.47v9.14h-1.24Z"/><path class="cls-3" d="M1131.63,972.89c0-3,2.69-4.41,8.67-5.07,0-2.06-.53-4.28-3.17-4.28a7.32,7.32,0,0,0-4.28,1.58l-.58-.91a9,9,0,0,1,5-1.75c3.19,0,4.27,2.31,4.27,5.19v8.59h-1l-.14-1.75h-.06a7.9,7.9,0,0,1-4.77,2.09C1133.39,976.58,1131.63,975.42,1131.63,972.89Zm8.67.45v-4.58c-5.52.64-7.41,1.93-7.41,4.07,0,1.93,1.3,2.67,2.85,2.67S1138.64,974.76,1140.3,973.34Z"/><path class="cls-3" d="M1146.34,972.53v-8.65h-2.1v-1l2.13-.12.16-3.89h1v3.89h3.9v1.09h-3.9v8.74c0,1.72.43,2.88,2.28,2.88a5,5,0,0,0,1.69-.43l.32,1a7.51,7.51,0,0,1-2.19.51C1147.1,976.58,1146.34,974.94,1146.34,972.53Z"/><path class="cls-3" d="M1154.28,958.45a1.13,1.13,0,1,1,1.25,1h-.25A1.13,1.13,0,0,1,1154.28,958.45Zm.48,4.34H1156v13.45h-1.24Z"/><path class="cls-3" d="M1158.93,962.79h1.34l3,8.43c.44,1.3.93,2.65,1.36,3.86h.11c.44-1.21.93-2.56,1.37-3.86l3-8.43h1.27l-5,13.45H1164Z"/><path class="cls-3" d="M1172.17,969.54c0-4.49,2.8-7.08,6-7.08s6,2.59,6,7.08-2.8,7-6,7S1172.17,974,1172.17,969.54Zm10.77,0c0-3.54-2-6-4.73-6s-4.74,2.45-4.74,6,2,5.94,4.74,5.94S1182.94,973.08,1182.94,969.54Z"/><path class="cls-3" d="M1186.58,974.72l.71-.9a6.25,6.25,0,0,0,4.28,1.7c2.11,0,3.21-1.24,3.21-2.66,0-1.68-1.74-2.42-3.29-3-2-.72-4.29-1.55-4.29-3.84,0-1.94,1.54-3.58,4.34-3.58a6.38,6.38,0,0,1,3.84,1.39l-.67.89a5.17,5.17,0,0,0-3.21-1.22c-2.09,0-3,1.2-3,2.44,0,1.54,1.58,2.12,3.18,2.73,2.09.79,4.4,1.47,4.4,4.1,0,2-1.62,3.79-4.54,3.79A7.7,7.7,0,0,1,1186.58,974.72Z"/><path class="cls-3" d="M849.32,1003.14c0-4.34,2.75-7.08,6-7.08a6.14,6.14,0,0,1,4,1.65l-.06-2.47V989.7h1.23v20.14h-1l-.14-1.74h-.06a6.35,6.35,0,0,1-4.38,2.08C851.51,1010.18,849.32,1007.68,849.32,1003.14Zm9.95,3.72v-8a5.66,5.66,0,0,0-3.92-1.73c-2.67,0-4.73,2.61-4.73,6,0,3.58,1.59,5.94,4.44,5.94C856.54,1009.08,857.86,1008.3,859.27,1006.86Z"/><path class="cls-3" d="M864.54,1003.14c0-4.38,2.85-7.08,5.86-7.08,3.19,0,5.15,2.27,5.15,6.22a5.61,5.61,0,0,1-.07,1h-9.67c0,3.39,2,5.82,5.06,5.82a6,6,0,0,0,3.61-1.2l.51,1a7.29,7.29,0,0,1-4.24,1.32C867.32,1010.18,864.54,1007.54,864.54,1003.14Zm9.84-.87c0-3.43-1.56-5.14-4-5.14s-4.33,1.92-4.61,5.14Z"/><path class="cls-3" d="M884.79,1008V989.7H886v18.51c0,.59.25.87.58.87a2.94,2.94,0,0,0,.51-.05l.2,1a3,3,0,0,1-.89.14C885.35,1010.18,884.79,1009.51,884.79,1008Z"/><path class="cls-3" d="M890.46,1006.49c0-3,2.7-4.41,8.68-5.07,0-2.06-.53-4.27-3.17-4.27a7.41,7.41,0,0,0-4.28,1.57l-.58-.91a9,9,0,0,1,5-1.75c3.19,0,4.27,2.31,4.27,5.19v8.59h-1l-.14-1.75h-.06a7.9,7.9,0,0,1-4.77,2.09C892.23,1010.18,890.46,1009,890.46,1006.49Zm8.68.45v-4.58c-5.52.64-7.41,1.93-7.41,4.07,0,1.93,1.3,2.67,2.85,2.67S897.48,1008.36,899.14,1006.94Z"/><path class="cls-3" d="M910.29,992.05a1.13,1.13,0,1,1,1.25,1h-.25A1.13,1.13,0,0,1,910.29,992.05Zm.49,4.35H912v13.44h-1.23Z"/><path class="cls-3" d="M917.19,996.4h1l.14,2.08h.06c1.37-1.37,2.77-2.42,4.63-2.42,2.77,0,4.06,1.68,4.06,5.16v8.62h-1.24v-8.46c0-2.85-.9-4.21-3.06-4.21-1.6,0-2.76.85-4.4,2.53v10.14h-1.23Z"/><path class="cls-3" d="M930.42,996.51l1.88-.11h4.31v1.08h-6.19Zm1.85-3.11c0-2.66,1.2-4,3.32-4a5,5,0,0,1,2,.46l-.33,1a3.55,3.55,0,0,0-1.6-.38c-1.45,0-2.11,1.1-2.11,3v16.35h-1.24Z"/><path class="cls-3" d="M938,1003.14c0-4.49,2.8-7.08,6-7.08s6,2.59,6,7.08-2.81,7-6,7S938,1007.59,938,1003.14Zm10.77,0c0-3.54-2-6-4.74-6s-4.74,2.45-4.74,6,2,5.94,4.74,5.94,4.78-2.4,4.78-5.94Z"/><path class="cls-3" d="M954.15,996.4h1l.14,2.5h.06c.91-1.65,2.23-2.84,3.82-2.84a2.84,2.84,0,0,1,1.34.28l-.28,1.12a3,3,0,0,0-1.22-.22c-1.21,0-2.64.91-3.67,3.46v9.14h-1.23Z"/><path class="cls-3" d="M963,996.4h1l.13,2.08h.07a6.22,6.22,0,0,1,4.25-2.42,3.49,3.49,0,0,1,3.71,2.74c1.52-1.68,3-2.74,4.56-2.74,2.68,0,4,1.68,4,5.16v8.62h-1.23v-8.46c0-2.85-1-4.21-3-4.21-1.26,0-2.54.84-4,2.53v10.14H971.3v-8.46c0-2.85-.95-4.21-3-4.21q-1.83,0-4,2.53v10.14H963Z"/><path class="cls-3" d="M984.79,1006.49c0-3,2.7-4.41,8.68-5.07,0-2.06-.53-4.27-3.17-4.27a7.41,7.41,0,0,0-4.28,1.57l-.58-.91a9,9,0,0,1,5-1.75c3.18,0,4.26,2.31,4.26,5.19v8.59h-1.05l-.13-1.75h-.07a7.9,7.9,0,0,1-4.77,2.09C986.56,1010.18,984.79,1009,984.79,1006.49Zm8.68.45v-4.58c-5.52.64-7.41,1.93-7.41,4.07,0,1.93,1.31,2.67,2.85,2.67S991.81,1008.36,993.47,1006.94Z"/><path class="cls-3" d="M998.38,1003.14c0-4.49,2.87-7.08,6.14-7.08a5.52,5.52,0,0,1,3.94,1.66l-.73.86a4.57,4.57,0,0,0-3.18-1.43c-2.75,0-4.88,2.45-4.88,6s1.94,5.94,4.86,5.94a5.31,5.31,0,0,0,3.6-1.55l.64.87a6.39,6.39,0,0,1-4.3,1.78C1001,1010.18,998.38,1007.59,998.38,1003.14Z"/><path class="cls-3" d="M1011.6,992.05a1.13,1.13,0,1,1,1.25,1h-.25A1.13,1.13,0,0,1,1011.6,992.05Zm.48,4.35h1.23v13.44h-1.23Z"/><path class="cls-3" d="M1017.36,1003.14c0-4.49,2.8-7.08,6-7.08s6,2.59,6,7.08-2.8,7-6,7S1017.36,1007.59,1017.36,1003.14Zm10.77,0c0-3.54-2-6-4.73-6s-4.74,2.45-4.74,6,2,5.94,4.74,5.94S1028.13,1006.68,1028.13,1003.14Zm-6.22-10,3.76-4.41.93.82-4,4.22Z"/><path class="cls-3" d="M1033.47,996.4h1l.13,2.08h.06c1.37-1.37,2.77-2.42,4.63-2.42,2.78,0,4.06,1.68,4.06,5.16v8.62h-1.23v-8.46c0-2.85-.91-4.21-3.07-4.21-1.6,0-2.76.85-4.39,2.53v10.14h-1.24Z"/><path class="cls-3" d="M1053.48,992.05a1.13,1.13,0,1,1,1.25,1h-.25A1.13,1.13,0,0,1,1053.48,992.05Zm.48,4.35h1.24v13.44H1054Z"/><path class="cls-3" d="M1060.38,996.4h1l.14,2.08h.06c1.37-1.37,2.77-2.42,4.63-2.42,2.77,0,4.06,1.68,4.06,5.16v8.62H1069v-8.46c0-2.85-.9-4.21-3.06-4.21-1.6,0-2.76.85-4.4,2.53v10.14h-1.23Z"/><path class="cls-3" d="M1074.14,1012.59a4.19,4.19,0,0,1,2-3.24v-.11a2.44,2.44,0,0,1-1.19-2.16,3.2,3.2,0,0,1,1.47-2.48v-.11a4.94,4.94,0,0,1-1.71-3.69,4.74,4.74,0,0,1,4.74-4.74h0a4.83,4.83,0,0,1,1.76.34h4.55v1.05h-3.12a4.41,4.41,0,0,1,1.48,3.37,4.68,4.68,0,0,1-4.59,4.75,4.74,4.74,0,0,1-2.33-.58,2.48,2.48,0,0,0-1.09,2c0,1,.56,1.75,2.57,1.75h2.88c3,0,4.43,1,4.43,3.08,0,2.32-2.48,4.54-6.36,4.54C1076.27,1016.31,1074.14,1014.86,1074.14,1012.59Zm10.61-.68c0-1.49-1.07-2-3.11-2h-2.88a8.39,8.39,0,0,1-1.66-.22,3.48,3.48,0,0,0-1.77,2.82c0,1.7,1.63,2.85,4.46,2.85,3-.05,5-1.76,5-3.45Zm-1.82-11.11a3.5,3.5,0,1,0-3.5,3.5,3.5,3.5,0,0,0,3.5-3.5Z"/><path class="cls-3" d="M1088.91,996.4h1l.13,2.5h.06c.91-1.65,2.23-2.84,3.83-2.84a2.77,2.77,0,0,1,1.33.28l-.28,1.12a3,3,0,0,0-1.22-.22c-1.21,0-2.64.91-3.66,3.46v9.14h-1.24Z"/><path class="cls-3" d="M1096.37,1003.14c0-4.38,2.85-7.08,5.87-7.08,3.18,0,5.14,2.27,5.14,6.22a5.61,5.61,0,0,1-.07,1h-9.67c0,3.39,2,5.82,5.07,5.82a6,6,0,0,0,3.61-1.2l.51,1a7.29,7.29,0,0,1-4.24,1.32C1099.16,1010.18,1096.37,1007.54,1096.37,1003.14Zm9.85-.87c0-3.43-1.56-5.14-4-5.14s-4.33,1.92-4.61,5.14Z"/><path class="cls-3" d="M1109.35,1008.32l.72-.9a6.21,6.21,0,0,0,4.27,1.7c2.12,0,3.22-1.24,3.22-2.66,0-1.68-1.74-2.42-3.3-3-2-.72-4.28-1.55-4.28-3.84,0-1.94,1.53-3.58,4.33-3.58a6.43,6.43,0,0,1,3.85,1.39l-.67.89a5.17,5.17,0,0,0-3.21-1.22c-2.1,0-3,1.2-3,2.44,0,1.54,1.59,2.12,3.19,2.73,2.08.79,4.39,1.47,4.39,4.1,0,2-1.62,3.79-4.53,3.79A7.77,7.77,0,0,1,1109.35,1008.32Z"/><path class="cls-3" d="M1121.41,1006.49c0-3,2.69-4.41,8.67-5.07,0-2.06-.53-4.27-3.17-4.27a7.41,7.41,0,0,0-4.28,1.57l-.58-.91a9,9,0,0,1,5-1.75c3.19,0,4.27,2.31,4.27,5.19v8.59h-1l-.14-1.75h-.06a7.9,7.9,0,0,1-4.77,2.09C1123.17,1010.18,1121.41,1009,1121.41,1006.49Zm8.67.45v-4.58c-5.52.64-7.41,1.93-7.41,4.07,0,1.93,1.3,2.67,2.85,2.67S1128.42,1008.36,1130.08,1006.94Z"/><path class="cls-3" d="M1135,1003.14c0-4.34,2.75-7.08,6-7.08a6.2,6.2,0,0,1,4,1.65l-.06-2.47V989.7h1.23v20.14h-1l-.14-1.74h0a6.35,6.35,0,0,1-4.38,2.08C1137.19,1010.18,1135,1007.68,1135,1003.14Zm10,3.72v-8a5.66,5.66,0,0,0-3.92-1.73c-2.67,0-4.74,2.61-4.74,6,0,3.58,1.59,5.94,4.45,5.94C1142.22,1009.08,1143.54,1008.3,1145,1006.86Z"/><path class="cls-3" d="M1150.38,1006.49c0-3,2.7-4.41,8.68-5.07,0-2.06-.53-4.27-3.17-4.27a7.41,7.41,0,0,0-4.28,1.57l-.58-.91a9,9,0,0,1,5-1.75c3.19,0,4.27,2.31,4.27,5.19v8.59h-1l-.14-1.75h-.06a7.9,7.9,0,0,1-4.77,2.09C1152.15,1010.18,1150.38,1009,1150.38,1006.49Zm8.68.45v-4.58c-5.52.64-7.41,1.93-7.41,4.07,0,1.93,1.3,2.67,2.85,2.67S1157.4,1008.36,1159.06,1006.94Z"/><path class="cls-3" d="M1164.4,1008.93a1.19,1.19,0,0,1,2.37-.22.81.81,0,0,1,0,.22,1.19,1.19,0,0,1-2.37.22A.81.81,0,0,1,1164.4,1008.93Z"/><text class="cls-7" transform="translate(847.99 931.8) scale(0.85 1)">REPO</text><text class="cls-10" transform="translate(916.98 931.8) scale(0.85 1)">R</text><text class="cls-7" transform="translate(933.67 931.8) scale(0.85 1)">TES</text><path class="cls-3" d="M359.75,193.15c0-3,2.69-4.41,8.67-5.07,0-2.07-.53-4.28-3.17-4.28a7.32,7.32,0,0,0-4.28,1.58l-.58-.92a9,9,0,0,1,5-1.75c3.19,0,4.27,2.32,4.27,5.2v8.59h-1.05l-.14-1.75h-.06a7.88,7.88,0,0,1-4.77,2.08C361.51,196.83,359.75,195.67,359.75,193.15Zm8.67.45V189c-5.52.64-7.41,1.92-7.41,4.07,0,1.93,1.3,2.67,2.85,2.67s2.9-.74,4.56-2.14Z"/><path class="cls-3" d="M373.76,195.58a1.19,1.19,0,0,1,2.37-.22h0a.81.81,0,0,1,0,.22,1.19,1.19,0,1,1-2.37.22A.81.81,0,0,1,373.76,195.58Z"/><path class="cls-3" d="M414.33,178h1.28v17.35h8.51v1.11h-9.79Z"/><path class="cls-3" d="M425.85,189.8c0-4.5,2.81-7.09,6-7.09s6,2.59,6,7.09-2.81,7-6,7S425.85,194.25,425.85,189.8Zm10.78,0c0-3.54-2-6-4.74-6s-4.74,2.45-4.74,6,2,5.94,4.74,5.94S436.63,193.34,436.63,189.8Z"/><path class="cls-3" d="M440.26,195l.72-.9a6.21,6.21,0,0,0,4.27,1.7c2.12,0,3.21-1.23,3.21-2.65,0-1.69-1.74-2.43-3.29-3-2-.71-4.28-1.54-4.28-3.84,0-1.93,1.53-3.58,4.33-3.58a6.32,6.32,0,0,1,3.84,1.4l-.66.89a5.13,5.13,0,0,0-3.21-1.23c-2.1,0-3.05,1.21-3.05,2.45,0,1.53,1.59,2.12,3.19,2.72,2.08.79,4.39,1.48,4.39,4.1,0,2-1.62,3.79-4.53,3.79A7.63,7.63,0,0,1,440.26,195Z"/><path class="cls-3" d="M457.74,189.8c0-4.5,2.88-7.09,6.15-7.09a5.54,5.54,0,0,1,3.93,1.66l-.72.86a4.62,4.62,0,0,0-3.18-1.42c-2.75,0-4.88,2.45-4.88,6s1.93,5.94,4.86,5.94a5.31,5.31,0,0,0,3.6-1.55l.64.87a6.4,6.4,0,0,1-4.3,1.77C460.37,196.83,457.74,194.25,457.74,189.8Z"/><path class="cls-3" d="M471.45,183.05h1l.14,2.51h.06c.91-1.65,2.23-2.85,3.82-2.85a2.71,2.71,0,0,1,1.34.29l-.28,1.11a3,3,0,0,0-1.22-.22c-1.21,0-2.64.92-3.67,3.46v9.15h-1.23Z"/><path class="cls-3" d="M479.84,178.71a1.13,1.13,0,1,1,1.25,1h-.25A1.13,1.13,0,0,1,479.84,178.71Zm.48,4.34h1.24V196.5h-1.24Z"/><path class="cls-3" d="M487.05,192.78v-8.65H485v-1l2.13-.12.15-3.89h1.06V183h3.89v1.08h-3.89v8.75c0,1.71.43,2.87,2.28,2.87a4.89,4.89,0,0,0,1.68-.42l.33,1a8,8,0,0,1-2.2.5C487.8,196.83,487.05,195.19,487.05,192.78Z"/><path class="cls-3" d="M494,189.8c0-4.39,2.85-7.09,5.86-7.09,3.19,0,5.15,2.27,5.15,6.23a5.61,5.61,0,0,1-.07,1H495.3c.05,3.4,2,5.82,5.06,5.82a6.13,6.13,0,0,0,3.62-1.19l.51.94a7.29,7.29,0,0,1-4.24,1.32C496.81,196.83,494,194.19,494,189.8Zm9.85-.87c0-3.44-1.56-5.15-4-5.15s-4.33,1.93-4.61,5.15Z"/><path class="cls-3" d="M508.69,183.05h1l.14,2.51h.06c.91-1.65,2.23-2.85,3.82-2.85a3,3,0,0,1,1.34.29l-.28,1.11a3,3,0,0,0-1.22-.22c-1.21,0-2.64.92-3.67,3.46v9.15h-1.23Z"/><path class="cls-3" d="M517.08,178.71a1.13,1.13,0,1,1,1.25,1h-.25A1.13,1.13,0,0,1,517.08,178.71Zm.48,4.34h1.24V196.5h-1.24Z"/><path class="cls-3" d="M522.84,189.8c0-4.5,2.81-7.09,6-7.09s6,2.59,6,7.09-2.81,7-6,7S522.84,194.25,522.84,189.8Zm10.78,0c0-3.54-2-6-4.74-6s-4.74,2.45-4.74,6,2,5.94,4.74,5.94S533.62,193.34,533.62,189.8Z"/><path class="cls-3" d="M537.25,195l.72-.9a6.21,6.21,0,0,0,4.27,1.7c2.12,0,3.22-1.23,3.22-2.65,0-1.69-1.75-2.43-3.3-3-2-.71-4.28-1.54-4.28-3.84,0-1.93,1.53-3.58,4.33-3.58a6.32,6.32,0,0,1,3.84,1.4l-.66.89a5.13,5.13,0,0,0-3.21-1.23c-2.1,0-3,1.21-3,2.45,0,1.53,1.59,2.12,3.19,2.72,2.08.79,4.39,1.48,4.39,4.1,0,2-1.62,3.79-4.53,3.79A7.65,7.65,0,0,1,537.25,195Z"/><path class="cls-3" d="M553.94,202.34l.29-1.07a3.71,3.71,0,0,0,1.1.22c1.64,0,2.76-1.52,3.44-3.57l.37-1.17-5.52-13.7H555l3.24,8.45,1.46,3.78h.11c.44-1.2.87-2.64,1.25-3.78l2.86-8.45h1.27l-5.31,15.14c-.75,2.24-2.11,4.43-4.52,4.43A3.46,3.46,0,0,1,553.94,202.34Z"/><path class="cls-3" d="M572,195l.71-.9a6.25,6.25,0,0,0,4.28,1.7c2.11,0,3.21-1.23,3.21-2.65,0-1.69-1.74-2.43-3.29-3-2-.71-4.28-1.54-4.28-3.84,0-1.93,1.53-3.58,4.33-3.58a6.32,6.32,0,0,1,3.84,1.4l-.67.89a5.08,5.08,0,0,0-3.2-1.23c-2.1,0-3,1.21-3,2.45,0,1.53,1.58,2.12,3.19,2.72,2.08.79,4.39,1.48,4.39,4.1,0,2-1.62,3.79-4.53,3.79A7.65,7.65,0,0,1,572,195Z"/><path class="cls-3" d="M584.8,191.67v-8.62H586v8.46c0,2.85.9,4.21,3.06,4.21,1.6,0,2.76-.84,4.33-2.75v-9.92h1.24V196.5h-1l-.14-2.25h-.06c-1.32,1.54-2.71,2.58-4.56,2.58C586.09,196.83,584.8,195.15,584.8,191.67Z"/><path class="cls-3" d="M601.06,195.14H601l-.14,1.36h-1V176.35h1.24v5.85l-.06,2.62a7.63,7.63,0,0,1,4.63-2.11c3.6,0,5.38,2.7,5.38,6.86,0,4.57-2.75,7.26-5.92,7.26A6.81,6.81,0,0,1,601.06,195.14Zm8.65-5.56c0-3.3-1.17-5.77-4.27-5.77-1.34,0-2.81.79-4.38,2.22v8a6.39,6.39,0,0,0,4,1.73C607.75,195.73,609.71,193.23,609.71,189.58Z"/><path class="cls-3" d="M613.8,189H620v1.1h-6.2Z"/><path class="cls-3" d="M622.49,189.8c0-4.5,2.88-7.09,6.15-7.09a5.54,5.54,0,0,1,3.93,1.66l-.73.86a4.6,4.6,0,0,0-3.18-1.42c-2.75,0-4.87,2.45-4.87,6s1.93,5.94,4.86,5.94a5.36,5.36,0,0,0,3.6-1.55l.64.87a6.4,6.4,0,0,1-4.3,1.77C625.12,196.83,622.49,194.25,622.49,189.8Z"/><path class="cls-3" d="M636.2,183.05h1l.14,2.51h.06c.91-1.65,2.22-2.85,3.82-2.85a3,3,0,0,1,1.34.29l-.28,1.11a3,3,0,0,0-1.22-.22c-1.21,0-2.64.92-3.67,3.46v9.15H636.2Z"/><path class="cls-3" d="M644.59,178.71a1.13,1.13,0,1,1,1.25,1h-.25A1.13,1.13,0,0,1,644.59,178.71Zm.48,4.34h1.24V196.5h-1.24Z"/><path class="cls-3" d="M651.8,192.78v-8.65h-2.1v-1l2.12-.12.16-3.89h1V183h3.9v1.08H653v8.75c0,1.71.43,2.87,2.29,2.87a4.89,4.89,0,0,0,1.68-.42l.33,1a8,8,0,0,1-2.2.5C652.55,196.83,651.8,195.19,651.8,192.78Z"/><path class="cls-3" d="M658.78,189.8c0-4.39,2.85-7.09,5.86-7.09,3.19,0,5.15,2.27,5.15,6.23a5.61,5.61,0,0,1-.07,1h-9.67c.05,3.4,2,5.82,5.06,5.82a6.13,6.13,0,0,0,3.62-1.19l.5.94a7.28,7.28,0,0,1-4.23,1.32C661.56,196.83,658.78,194.19,658.78,189.8Zm9.85-.87c0-3.44-1.56-5.15-4-5.15-2.27,0-4.32,1.93-4.61,5.15Z"/><path class="cls-3" d="M673.43,183.05h1.05l.14,2.51h.06c.91-1.65,2.22-2.85,3.82-2.85a2.67,2.67,0,0,1,1.33.29l-.28,1.11a3,3,0,0,0-1.21-.22c-1.21,0-2.64.92-3.67,3.46v9.15h-1.24Z"/><path class="cls-3" d="M681.83,178.71a1.13,1.13,0,1,1,1.25,1h-.25A1.13,1.13,0,0,1,681.83,178.71Zm.48,4.34h1.24V196.5h-1.24Z"/><path class="cls-3" d="M687.59,189.8c0-4.5,2.81-7.09,6-7.09s6,2.59,6,7.09-2.8,7-6,7S687.59,194.25,687.59,189.8Zm10.78,0c0-3.54-2-6-4.74-6s-4.74,2.45-4.74,6,2,5.94,4.74,5.94S698.37,193.34,698.37,189.8Z"/><path class="cls-3" d="M702,195l.72-.9a6.21,6.21,0,0,0,4.27,1.7c2.12,0,3.21-1.23,3.21-2.65,0-1.69-1.74-2.43-3.29-3-2-.71-4.28-1.54-4.28-3.84,0-1.93,1.53-3.58,4.33-3.58a6.32,6.32,0,0,1,3.84,1.4l-.66.89a5.13,5.13,0,0,0-3.21-1.23c-2.1,0-3,1.21-3,2.45,0,1.53,1.59,2.12,3.19,2.72,2.08.79,4.39,1.48,4.39,4.1,0,2-1.62,3.79-4.53,3.79A7.65,7.65,0,0,1,702,195Z"/><path class="cls-3" d="M719.49,189.8c0-4.34,2.76-7.09,6-7.09a6.16,6.16,0,0,1,4,1.66l-.07-2.47v-5.55h1.24V196.5h-1l-.13-1.75h-.06a6.33,6.33,0,0,1-4.39,2.08C721.68,196.83,719.49,194.33,719.49,189.8Zm10,3.72v-8a5.66,5.66,0,0,0-3.92-1.73c-2.67,0-4.73,2.61-4.73,6,0,3.58,1.59,5.94,4.44,5.94,1.44,0,2.72-.73,4.16-2.21Z"/><path class="cls-3" d="M734.71,189.8c0-4.39,2.85-7.09,5.87-7.09,3.18,0,5.14,2.27,5.14,6.23a5.61,5.61,0,0,1-.07,1H736c0,3.4,2,5.82,5.06,5.82a6.1,6.1,0,0,0,3.61-1.19l.51.94a7.29,7.29,0,0,1-4.24,1.32C737.5,196.83,734.71,194.19,734.71,189.8Zm9.85-.87c0-3.44-1.56-5.15-4-5.15s-4.33,1.93-4.61,5.15Z"/><path class="cls-3" d="M753.29,195l.72-.9a6.21,6.21,0,0,0,4.27,1.7c2.12,0,3.22-1.23,3.22-2.65,0-1.69-1.74-2.43-3.29-3-2-.71-4.29-1.54-4.29-3.84,0-1.93,1.54-3.58,4.34-3.58a6.32,6.32,0,0,1,3.84,1.4l-.67.89a5.13,5.13,0,0,0-3.21-1.23c-2.09,0-3,1.21-3,2.45,0,1.53,1.58,2.12,3.18,2.72,2.09.79,4.39,1.48,4.39,4.1,0,2-1.62,3.79-4.53,3.79A7.68,7.68,0,0,1,753.29,195Z"/><path class="cls-3" d="M765.18,189.8c0-4.39,2.85-7.09,5.86-7.09,3.19,0,5.15,2.27,5.15,6.23a5.61,5.61,0,0,1-.07,1h-9.67c0,3.4,2,5.82,5.06,5.82a6,6,0,0,0,3.61-1.19l.51.94a7.29,7.29,0,0,1-4.24,1.32C768,196.83,765.18,194.19,765.18,189.8Zm9.84-.87c0-3.44-1.55-5.15-4-5.15-2.27,0-4.33,1.93-4.61,5.15Z"/><path class="cls-3" d="M779.83,194.69V176.35h1.24v18.51c0,.6.25.88.58.88a2.22,2.22,0,0,0,.51-.06l.2,1a2.48,2.48,0,0,1-.89.14C780.39,196.83,779.83,196.17,779.83,194.69Z"/><path class="cls-3" d="M785.34,189.8c0-4.39,2.85-7.09,5.86-7.09,3.19,0,5.15,2.27,5.15,6.23a5.61,5.61,0,0,1-.07,1h-9.67c0,3.4,2,5.82,5.06,5.82a6,6,0,0,0,3.61-1.19l.51.94a7.29,7.29,0,0,1-4.24,1.32C788.12,196.83,785.34,194.19,785.34,189.8Zm9.84-.87c0-3.44-1.55-5.15-4-5.15s-4.33,1.93-4.61,5.15Z"/><path class="cls-3" d="M798.86,189.8c0-4.5,2.87-7.09,6.14-7.09a5.52,5.52,0,0,1,3.94,1.66l-.73.86a4.6,4.6,0,0,0-3.18-1.42c-2.75,0-4.87,2.45-4.87,6s1.93,5.94,4.86,5.94a5.36,5.36,0,0,0,3.6-1.55l.63.87a6.37,6.37,0,0,1-4.29,1.77C801.49,196.83,798.86,194.25,798.86,189.8Z"/><path class="cls-3" d="M811,189.8c0-4.5,2.87-7.09,6.14-7.09a5.61,5.61,0,0,1,3.94,1.66l-.73.86a4.62,4.62,0,0,0-3.18-1.42c-2.75,0-4.87,2.45-4.87,6s1.93,5.94,4.85,5.94a5.31,5.31,0,0,0,3.6-1.55l.64.87a6.37,6.37,0,0,1-4.29,1.77C813.58,196.83,811,194.25,811,189.8Z"/><path class="cls-3" d="M824.18,178.71a1.13,1.13,0,1,1,1.25,1h-.25A1.13,1.13,0,0,1,824.18,178.71Zm.48,4.34h1.24V196.5h-1.24Z"/><path class="cls-3" d="M829.94,189.8c0-4.5,2.81-7.09,6-7.09s6,2.59,6,7.09-2.8,7-6,7S829.94,194.25,829.94,189.8Zm10.77,0c0-3.54-2-6-4.73-6s-4.74,2.45-4.74,6,2,5.94,4.74,5.94S840.71,193.34,840.71,189.8Zm-6.22-10,3.77-4.41.93.83-4,4.22Z"/><path class="cls-3" d="M846.05,183.05h1.05l.13,2.08h.06c1.38-1.36,2.78-2.42,4.63-2.42,2.78,0,4.07,1.69,4.07,5.16v8.63h-1.24V188c0-2.86-.9-4.21-3.07-4.21-1.6,0-2.76.84-4.39,2.52V196.5h-1.24Z"/><path class="cls-3" d="M361.79,229.94h-.06l-.14,1.36h-1V211.15h1.23V217l-.06,2.62a7.69,7.69,0,0,1,4.63-2.11c3.61,0,5.39,2.7,5.39,6.86,0,4.57-2.76,7.26-5.93,7.26A6.81,6.81,0,0,1,361.79,229.94Zm8.66-5.56c0-3.3-1.18-5.77-4.28-5.77-1.34,0-2.8.79-4.38,2.22v8a6.39,6.39,0,0,0,4,1.73C368.49,230.53,370.45,228,370.45,224.38Z"/><path class="cls-3" d="M374.75,230.38a1.19,1.19,0,1,1,1.19,1.19,1.19,1.19,0,0,1-1.19-1.19Z"/><path class="cls-3" d="M415.32,212.84h1.29v17.35h8.5v1.11h-9.79Z"/><path class="cls-3" d="M427.3,228c0-3,2.69-4.41,8.67-5.07,0-2.07-.53-4.28-3.17-4.28a7.39,7.39,0,0,0-4.28,1.58l-.57-.92a9,9,0,0,1,5-1.75c3.18,0,4.26,2.32,4.26,5.2v8.59h-1l-.13-1.75H436a7.88,7.88,0,0,1-4.77,2.08C429.07,231.63,427.3,230.47,427.3,228Zm8.67.45v-4.58c-5.52.64-7.41,1.92-7.41,4.07,0,1.93,1.31,2.67,2.85,2.67s2.9-.8,4.59-2.21Z"/><path class="cls-3" d="M440.33,229.77l.72-.9a6.21,6.21,0,0,0,4.27,1.7c2.12,0,3.22-1.23,3.22-2.65,0-1.69-1.74-2.43-3.3-3-2-.71-4.28-1.54-4.28-3.84,0-1.93,1.54-3.58,4.33-3.58a6.35,6.35,0,0,1,3.85,1.4l-.67.89a5.13,5.13,0,0,0-3.21-1.23c-2.1,0-3.05,1.21-3.05,2.45,0,1.53,1.59,2.12,3.19,2.72,2.08.79,4.39,1.48,4.39,4.1,0,2-1.62,3.79-4.53,3.79A7.68,7.68,0,0,1,440.33,229.77Z"/><path class="cls-3" d="M458,228c0-3,2.7-4.41,8.68-5.07,0-2.07-.53-4.28-3.17-4.28a7.32,7.32,0,0,0-4.28,1.58l-.58-.92a9,9,0,0,1,5-1.75c3.19,0,4.27,2.32,4.27,5.2v8.59h-1l-.14-1.75h-.06a7.88,7.88,0,0,1-4.77,2.08C459.75,231.63,458,230.47,458,228Zm8.68.45v-4.58c-5.52.64-7.41,1.92-7.41,4.07,0,1.93,1.3,2.67,2.85,2.67s2.88-.8,4.54-2.21Z"/><path class="cls-3" d="M472.7,229.49V211.15h1.23v18.51c0,.6.25.88.58.88a2.22,2.22,0,0,0,.51-.06l.21,1a3,3,0,0,1-.89.14C473.25,231.63,472.7,231,472.7,229.49Z"/><path class="cls-3" d="M479.64,227.58v-8.65h-2.1v-1l2.13-.12.16-3.89h1.05v3.89h3.9v1.08h-3.9v8.75c0,1.71.43,2.87,2.29,2.87a4.89,4.89,0,0,0,1.68-.42l.33,1a8,8,0,0,1-2.2.5C480.4,231.63,479.64,230,479.64,227.58Z"/><path class="cls-3" d="M486.63,224.6c0-4.39,2.85-7.09,5.86-7.09,3.19,0,5.15,2.27,5.15,6.23a5.61,5.61,0,0,1-.07,1H487.9c0,3.4,2,5.82,5.06,5.82a6,6,0,0,0,3.61-1.19l.51.94a7.29,7.29,0,0,1-4.24,1.32C489.41,231.63,486.63,229,486.63,224.6Zm9.84-.87c0-3.44-1.55-5.15-4-5.15-2.27,0-4.33,1.93-4.61,5.15Z"/><path class="cls-3" d="M501.28,217.85h1.05l.13,2.51h.07c.91-1.65,2.22-2.85,3.82-2.85a2.89,2.89,0,0,1,1.33.28l-.28,1.12a3,3,0,0,0-1.21-.22c-1.21,0-2.65.92-3.67,3.46v9.15h-1.24Z"/><path class="cls-3" d="M510.16,217.85h1l.13,2.08h.06c1.37-1.36,2.77-2.42,4.63-2.42,2.78,0,4.06,1.69,4.06,5.16v8.63h-1.23v-8.47c0-2.85-.91-4.2-3.07-4.2-1.6,0-2.76.84-4.39,2.52V231.3h-1.24Z"/><path class="cls-3" d="M524.09,228c0-3,2.7-4.41,8.68-5.07,0-2.07-.53-4.28-3.17-4.28a7.38,7.38,0,0,0-4.29,1.58l-.57-.92a9,9,0,0,1,5-1.75c3.19,0,4.26,2.32,4.26,5.2v8.59h-1l-.14-1.75h-.06a7.94,7.94,0,0,1-4.77,2.08C525.86,231.63,524.09,230.47,524.09,228Zm8.68.45v-4.58c-5.53.64-7.41,1.92-7.41,4.07,0,1.93,1.3,2.67,2.85,2.67s2.89-.8,4.56-2.21Z"/><path class="cls-3" d="M538.81,227.58v-8.65h-2.1v-1l2.13-.12L539,214h1.06v3.89H544V219h-3.89v8.75c0,1.71.43,2.87,2.28,2.87a4.94,4.94,0,0,0,1.69-.42l.32,1a7.83,7.83,0,0,1-2.19.5C539.56,231.63,538.81,230,538.81,227.58Z"/><path class="cls-3" d="M546.75,213.51a1.13,1.13,0,1,1,1.25,1,1,1,0,0,1-.25,0A1.13,1.13,0,0,1,546.75,213.51Zm.48,4.34h1.24V231.3h-1.24Z"/><path class="cls-3" d="M551.4,217.85h1.34l3,8.42c.44,1.3.92,2.66,1.36,3.87h.11c.44-1.21.93-2.57,1.36-3.87l3-8.42h1.26l-5,13.45h-1.46Z"/><path class="cls-3" d="M564.27,228c0-3,2.69-4.41,8.68-5.07,0-2.07-.53-4.28-3.17-4.28a7.38,7.38,0,0,0-4.29,1.58l-.57-.92a9,9,0,0,1,5-1.75c3.19,0,4.26,2.32,4.26,5.2v8.59h-1L573,229.6h0a7.94,7.94,0,0,1-4.77,2.08C566,231.63,564.27,230.47,564.27,228Zm8.68.45v-4.58c-5.53.64-7.41,1.92-7.41,4.07,0,1.93,1.3,2.67,2.85,2.67s2.89-.8,4.61-2.21Z"/><path class="cls-3" d="M577.31,229.77l.72-.9a6.21,6.21,0,0,0,4.27,1.7c2.12,0,3.21-1.23,3.21-2.65,0-1.69-1.74-2.43-3.29-3-2-.71-4.28-1.54-4.28-3.84,0-1.93,1.53-3.58,4.33-3.58a6.32,6.32,0,0,1,3.84,1.4l-.66.89a5.13,5.13,0,0,0-3.21-1.23c-2.1,0-3,1.21-3,2.45,0,1.53,1.58,2.12,3.19,2.72,2.08.79,4.39,1.48,4.39,4.1,0,2-1.62,3.79-4.53,3.79A7.65,7.65,0,0,1,577.31,229.77Z"/><path class="cls-3" d="M594.8,224.6c0-4.34,2.76-7.09,6-7.09a6.16,6.16,0,0,1,4.05,1.66l-.07-2.47v-5.55H606V231.3h-1l-.13-1.75h-.06a6.33,6.33,0,0,1-4.39,2.08C597,231.63,594.8,229.13,594.8,224.6Zm10,3.72v-8a5.66,5.66,0,0,0-3.92-1.73c-2.67,0-4.73,2.61-4.73,6,0,3.58,1.59,5.94,4.44,5.94,1.41,0,2.75-.77,4.16-2.21Z"/><path class="cls-3" d="M610,224.6c0-4.39,2.85-7.09,5.87-7.09,3.18,0,5.14,2.27,5.14,6.23a5.61,5.61,0,0,1-.07,1h-9.67c.05,3.4,2,5.82,5.07,5.82a6.1,6.1,0,0,0,3.61-1.19l.51.94a7.29,7.29,0,0,1-4.24,1.32C612.81,231.63,610,229,610,224.6Zm9.85-.87c0-3.44-1.56-5.15-4-5.15s-4.33,1.93-4.61,5.15Z"/><path class="cls-3" d="M628.6,229.77l.72-.9a6.21,6.21,0,0,0,4.27,1.7c2.12,0,3.22-1.23,3.22-2.65,0-1.69-1.74-2.43-3.3-3-2-.71-4.28-1.54-4.28-3.84,0-1.93,1.53-3.58,4.33-3.58a6.35,6.35,0,0,1,3.85,1.4l-.67.89a5.13,5.13,0,0,0-3.21-1.23c-2.1,0-3,1.21-3,2.45,0,1.53,1.59,2.12,3.19,2.72,2.08.79,4.39,1.48,4.39,4.1,0,2-1.62,3.79-4.53,3.79A7.65,7.65,0,0,1,628.6,229.77Z"/><path class="cls-3" d="M640.49,224.6c0-4.39,2.85-7.09,5.86-7.09,3.19,0,5.15,2.27,5.15,6.23a6.73,6.73,0,0,1-.07,1h-9.67c0,3.4,2,5.82,5.06,5.82a6.1,6.1,0,0,0,3.61-1.19l.51.94a7.29,7.29,0,0,1-4.24,1.32C643.27,231.63,640.49,229,640.49,224.6Zm9.84-.87c0-3.44-1.56-5.15-4-5.15s-4.33,1.93-4.61,5.15Z"/><path class="cls-3" d="M655.14,229.49V211.15h1.24v18.51c0,.6.25.88.58.88a2.07,2.07,0,0,0,.5-.06l.21,1a3,3,0,0,1-.89.14C655.7,231.63,655.14,231,655.14,229.49Z"/><path class="cls-3" d="M660.65,224.6c0-4.39,2.85-7.09,5.86-7.09,3.19,0,5.15,2.27,5.15,6.23a6.73,6.73,0,0,1-.07,1h-9.67c0,3.4,2,5.82,5.06,5.82a6.1,6.1,0,0,0,3.61-1.19l.51.94a7.29,7.29,0,0,1-4.24,1.32C663.43,231.63,660.65,229,660.65,224.6Zm9.84-.87c0-3.44-1.56-5.15-4-5.15s-4.33,1.93-4.61,5.15Z"/><path class="cls-3" d="M674.17,224.6c0-4.5,2.87-7.09,6.14-7.09a5.57,5.57,0,0,1,3.94,1.66l-.73.86a4.62,4.62,0,0,0-3.18-1.42c-2.75,0-4.87,2.45-4.87,6s1.93,5.94,4.85,5.94a5.31,5.31,0,0,0,3.6-1.55l.64.87a6.37,6.37,0,0,1-4.29,1.77C676.8,231.63,674.17,229.05,674.17,224.6Z"/><path class="cls-3" d="M686.27,224.6c0-4.5,2.87-7.09,6.14-7.09a5.61,5.61,0,0,1,3.94,1.66l-.73.86a4.62,4.62,0,0,0-3.18-1.42c-2.75,0-4.88,2.45-4.88,6s1.94,5.94,4.86,5.94A5.36,5.36,0,0,0,696,229l.64.87a6.4,6.4,0,0,1-4.3,1.77C688.89,231.63,686.27,229.05,686.27,224.6Z"/><path class="cls-3" d="M699.49,213.51a1.13,1.13,0,1,1,1.25,1,1,1,0,0,1-.25,0A1.13,1.13,0,0,1,699.49,213.51Zm.48,4.34h1.24V231.3H700Z"/><path class="cls-3" d="M705.25,224.6c0-4.5,2.8-7.09,6-7.09s6,2.59,6,7.09-2.8,7-6,7S705.25,229.05,705.25,224.6Zm10.77,0c0-3.54-2-6-4.73-6s-4.74,2.45-4.74,6,2,5.94,4.74,5.94,4.71-2.4,4.71-5.94Zm-6.22-10,3.76-4.41.93.83-4,4.22Z"/><path class="cls-3" d="M721.36,217.85h1l.13,2.08h.06c1.37-1.36,2.78-2.42,4.63-2.42,2.78,0,4.06,1.69,4.06,5.16v8.63H730v-8.47c0-2.85-.9-4.2-3.07-4.2-1.6,0-2.76.84-4.39,2.52V231.3H721.3Z"/><g class="cls-11"><use width="64.02" height="59.22" transform="translate(644 905.34) scale(1.42)" xlink:href="#Anuncio"/></g><g class="cls-12"><use width="63.8" height="63.8" transform="translate(636.74 372.91) scale(1.55)" xlink:href="#Comprobar"/></g><g class="cls-13"><g class="cls-14"><use width="63.15" height="61.3" transform="translate(156.29 642.31) scale(1.49 1.48)" xlink:href="#Buscar_2"/></g></g><g class="cls-15"><g class="cls-16"><use width="62.02" height="61.98" transform="translate(154.23 126.63) scale(1.43 1.45)" xlink:href="#Herramientas"/></g></g></svg>