<svg id="Capa_1" data-name="Capa 1" xmlns="http://www.w3.org/2000/svg" xmlns:xlink="http://www.w3.org/1999/xlink" viewBox="0 0 1447 1080"><defs><style>.cls-1,.cls-6{fill:none;}.cls-2,.cls-5{fill:#fff;}.cls-3{fill:#212121;}.cls-4{fill:#55ce4d;}.cls-10,.cls-11,.cls-12,.cls-13,.cls-14,.cls-5,.cls-7,.cls-8,.cls-9{isolation:isolate;font-family:Roboto-Bold, Roboto;font-weight:700;}.cls-5{font-size:36px;}.cls-6{stroke:#212121;stroke-miterlimit:10;stroke-width:2px;}.cls-10,.cls-11,.cls-12,.cls-13,.cls-14,.cls-7,.cls-8,.cls-9{font-size:32px;}.cls-8{letter-spacing:-0.01em;}.cls-9{letter-spacing:-0.12em;}.cls-10{letter-spacing:-0.07em;}.cls-11{letter-spacing:-0.1em;}.cls-12{letter-spacing:0.01em;}.cls-13{letter-spacing:-0.06em;}.cls-14{letter-spacing:-0.04em;}.cls-15{clip-path:url(#clip-path);}.cls-16{clip-path:url(#clip-path-2);}</style><clipPath id="clip-path"><rect class="cls-1" x="645" y="373.04" width="93.93" height="93.99"/></clipPath><clipPath id="clip-path-2"><rect class="cls-1" x="161" y="639.42" width="93.93" height="93.99"/></clipPath><symbol id="Bloc_de_notas" data-name="Bloc de notas" viewBox="0 0 63.88 64"><path class="cls-2" d="M24.31,10.1V8h5.85v2.1a2,2,0,0,0,2,2h.5a2,2,0,0,0,2-2V8H40.5v2.1a2,2,0,0,0,2,2H43a2,2,0,0,0,2-2V8h1.19L50,11.77v6h4V10.09L47.83,4H45V2a2,2,0,0,0-2-2h-.5a2,2,0,0,0-2,2V4H34.66V2a2,2,0,0,0-2-2h-.5a2,2,0,0,0-2,2V4H24.31V2a2,2,0,0,0-2-2h-.5a2,2,0,0,0-2,2V4H14V2a2,2,0,0,0-2-2h-.5a2,2,0,0,0-2,2V4H0V64H17.67l1-4H4V8H9.47v2.1a2,2,0,0,0,2,2H12a2,2,0,0,0,2-2V8h5.84v2.1a2,2,0,0,0,2,2h.5A2,2,0,0,0,24.31,10.1Z"/><path class="cls-2" d="M62.71,30.41,56.31,24a4,4,0,0,0-5.6-.06h0L27.36,47.29l-.47.46-4,16.13,16.11-4,1.5-1.53h0L62.77,36h0A4,4,0,0,0,62.71,30.41Zm-34.17,19,8.81,8.81-8.27,2.07L26.5,57.54ZM39,52.73l-5-5L50.7,31l5,5Z"/></symbol><symbol id="Tareas" data-name="Tareas" viewBox="0 0 63.9 63.94"><polygon points="23.98 38.72 23.98 38.72 23.98 38.72 23.98 38.72"/><polygon class="cls-2" points="31.83 30.82 23.95 38.71 38.8 53.56 63.9 28.47 58.16 22.63 38.96 38.58 31.83 30.82"/><path class="cls-2" d="M50,60H4V8H9.46v2.07a2,2,0,0,0,2,2H12a2,2,0,0,0,2-2V8h5.84v2.07a2,2,0,0,0,2,2h.5a2,2,0,0,0,2-2V8h5.84v2.07a2,2,0,0,0,2,2h.5a2,2,0,0,0,2-2V8h5.84v2.07a2,2,0,0,0,2,2H43a2,2,0,0,0,2-2V8h1.19L50,11.75V23l4-3.32v-9.6L47.78,4H45V2a2,2,0,0,0-2-2h-.5a2,2,0,0,0-2,2V4H34.62V2a2,2,0,0,0-2-2h-.5a2,2,0,0,0-2,2V4H24.29V2a2,2,0,0,0-2-2h-.5a2,2,0,0,0-2,2V4H14V2a2,2,0,0,0-2-2h-.5a2,2,0,0,0-2,2V4H0V63.94H54V45.44l-4,4Z"/></symbol><symbol id="Más" data-name="Más" viewBox="0 0 64 64"><polygon class="cls-2" points="37.12 14.92 26.88 14.92 26.88 26.88 14.92 26.88 14.92 37.12 26.88 37.12 26.88 49.08 37.12 49.08 37.12 37.12 49.08 37.12 49.08 26.88 37.12 26.88 37.12 14.92"/><path class="cls-2" d="M32,0A32,32,0,1,0,64,32,32,32,0,0,0,32,0Zm0,59A27,27,0,1,1,59,32,27,27,0,0,1,32,59Z"/></symbol></defs><title>Instructivo1</title><circle class="cls-3" cx="203.76" cy="172.22" r="118.27"/><path d="M203.77,54.46A117.77,117.77,0,1,1,120.49,89a117.77,117.77,0,0,1,83.28-34.54m0-1A118.77,118.77,0,1,0,322.54,172.27h0A118.78,118.78,0,0,0,203.79,53.46Z"/><circle class="cls-4" cx="203.15" cy="53.46" r="33.96"/><path class="cls-2" d="M203.15,20a33.46,33.46,0,1,1-33.46,33.46h0A33.51,33.51,0,0,1,203.15,20m0-1a34.46,34.46,0,1,0,34.47,34.46A34.46,34.46,0,0,0,203.15,19Z"/><text class="cls-5" transform="translate(193.92 66.59)">1</text><circle class="cls-3" cx="682" cy="420.23" r="118.27"/><path d="M682,302.46A117.77,117.77,0,1,1,598.72,337,117.77,117.77,0,0,1,682,302.46m0-1A118.77,118.77,0,1,0,800.77,420.23,118.78,118.78,0,0,0,682,301.46Z"/><path class="cls-4" d="M681.38,335.42a34,34,0,1,1,34-34A34,34,0,0,1,681.38,335.42Z"/><path class="cls-2" d="M681.38,268a33.46,33.46,0,1,1-33.46,33.46A33.46,33.46,0,0,1,681.38,268h0m0-1a34.46,34.46,0,1,0,34.47,34.46A34.46,34.46,0,0,0,681.38,267Z"/><text class="cls-5" transform="translate(672.15 314.59)">2</text><line class="cls-6" x1="307" y1="231" x2="578" y2="363"/><circle class="cls-3" cx="203.5" cy="687.23" r="118.27"/><path d="M203.5,569.46A117.77,117.77,0,1,1,120.22,604a117.77,117.77,0,0,1,83.28-34.54m0-1A118.77,118.77,0,1,0,322.27,687.27h0A118.78,118.78,0,0,0,203.5,568.46Z"/><path class="cls-4" d="M202.88,602.42a34,34,0,1,1,34-34h0A34,34,0,0,1,202.88,602.42Z"/><path class="cls-2" d="M202.88,535a33.46,33.46,0,1,1-33.46,33.46A33.46,33.46,0,0,1,202.88,535h0m0-1a34.46,34.46,0,1,0,34.47,34.46A34.46,34.46,0,0,0,202.88,534Z"/><text class="cls-5" transform="translate(193.65 581.59)">3</text><line class="cls-6" x1="599" y1="505" x2="313" y2="642"/><circle class="cls-3" cx="690.2" cy="942.19" r="118.27"/><path d="M690.17,824.46A117.77,117.77,0,1,1,606.89,859a117.77,117.77,0,0,1,83.28-34.54m0-1A118.77,118.77,0,1,0,808.94,942.27h0A118.78,118.78,0,0,0,690.19,823.46Z"/><path class="cls-4" d="M689.55,857.42a34,34,0,1,1,34-34,34,34,0,0,1-34,34Z"/><path class="cls-2" d="M689.55,790a33.46,33.46,0,1,1-33.46,33.46A33.46,33.46,0,0,1,689.55,790h0m0-1A34.46,34.46,0,1,0,724,823.47h0A34.46,34.46,0,0,0,689.55,789Z"/><text class="cls-5" transform="translate(680.32 836.59)">4</text><line class="cls-6" x1="694" y1="920" x2="296" y2="761"/><path class="cls-3" d="M366.24,140.17h4.27c5.69,0,8.39,3.59,8.39,9.17s-2.7,9.29-8.37,9.29h-4.29Zm4.14,17.36c5,0,7.17-3.38,7.17-8.19s-2.17-8.07-7.17-8.07h-2.85v16.26Z"/><path class="cls-3" d="M381.88,151.93c0-4.39,2.85-7.09,5.86-7.09,3.19,0,5.15,2.27,5.15,6.22a5.61,5.61,0,0,1-.07,1h-9.67c0,3.4,2,5.82,5.06,5.82a6,6,0,0,0,3.61-1.19l.51.94a7.29,7.29,0,0,1-4.24,1.32C384.66,159,381.88,156.32,381.88,151.93Zm9.84-.88c0-3.43-1.55-5.14-4-5.14-2.27,0-4.33,1.93-4.61,5.14Z"/><path class="cls-3" d="M394.84,145.3l1.88-.12H401v1.08h-6.2Zm1.85-3.11c0-2.67,1.2-4,3.33-4a5.12,5.12,0,0,1,2,.45l-.34,1a3.55,3.55,0,0,0-1.6-.38c-1.45,0-2.11,1.1-2.11,3v16.36h-1.24Z"/><path class="cls-3" d="M403.39,140.83a1.13,1.13,0,1,1,1.25,1h-.25A1.13,1.13,0,0,1,403.39,140.83Zm.48,4.35h1.24v13.45h-1.24Z"/><path class="cls-3" d="M410.28,145.18h1.05l.13,2.08h.06c1.38-1.36,2.78-2.42,4.63-2.42,2.78,0,4.06,1.69,4.06,5.16v8.63H419v-8.47c0-2.85-.9-4.2-3.07-4.2-1.6,0-2.76.84-4.39,2.52v10.15H410.3Z"/><path class="cls-3" d="M424.7,140.83a1.13,1.13,0,1,1,1.25,1h-.25A1.13,1.13,0,0,1,424.7,140.83Zm.48,4.35h1.23v13.45h-1.23Z"/><path class="cls-3" d="M431.59,145.18h1.05l.13,2.51h.06c.91-1.65,2.23-2.85,3.83-2.85a2.89,2.89,0,0,1,1.33.28l-.28,1.12a3,3,0,0,0-1.22-.22c-1.21,0-2.64.92-3.66,3.46v9.15h-1.24Z"/><path class="cls-3" d="M446.2,140.17h1.29v17.35H456v1.11h-9.8Z"/><path class="cls-3" d="M457.73,151.93c0-4.5,2.8-7.09,6-7.09s6,2.59,6,7.09-2.8,7-6,7S457.73,156.37,457.73,151.93Zm10.77,0c0-3.54-2-6-4.73-6s-4.74,2.45-4.74,6,2,5.94,4.74,5.94S468.5,155.47,468.5,151.93Z"/><path class="cls-3" d="M472.14,157.1l.71-.9a6.25,6.25,0,0,0,4.28,1.7c2.11,0,3.21-1.23,3.21-2.65,0-1.69-1.74-2.43-3.29-3-2-.72-4.29-1.54-4.29-3.84,0-1.94,1.54-3.58,4.34-3.58a6.32,6.32,0,0,1,3.84,1.4l-.67.89a5.08,5.08,0,0,0-3.2-1.23c-2.1,0-3.05,1.21-3.05,2.45,0,1.53,1.58,2.12,3.19,2.72,2.08.79,4.39,1.48,4.39,4.1,0,2-1.62,3.79-4.53,3.79A7.63,7.63,0,0,1,472.14,157.1Z"/><path class="cls-3" d="M489.62,151.93c0-4.5,2.87-7.09,6.14-7.09a5.57,5.57,0,0,1,3.94,1.66l-.73.86a4.62,4.62,0,0,0-3.18-1.42c-2.75,0-4.87,2.45-4.87,6s1.93,5.94,4.85,5.94a5.45,5.45,0,0,0,3.61-1.55l.63.87a6.37,6.37,0,0,1-4.29,1.77C492.25,159,489.62,156.37,489.62,151.93Z"/><path class="cls-3" d="M503.32,145.18h1.05l.13,2.51h.07c.91-1.65,2.22-2.85,3.82-2.85a2.89,2.89,0,0,1,1.33.28l-.28,1.12a3,3,0,0,0-1.21-.22c-1.21,0-2.64.92-3.67,3.46v9.15h-1.24Z"/><path class="cls-3" d="M511.72,140.83a1.13,1.13,0,1,1,1.25,1h-.25a1.13,1.13,0,0,1-1-1Zm.48,4.35h1.24v13.45H512.2Z"/><path class="cls-3" d="M518.92,154.91v-8.65h-2.1v-1l2.13-.12.16-3.89h1v3.89H524v1.08h-3.9V155c0,1.72.43,2.88,2.29,2.88a4.68,4.68,0,0,0,1.68-.43l.33,1a8,8,0,0,1-2.2.5C519.68,159,518.92,157.32,518.92,154.91Z"/><path class="cls-3" d="M525.91,151.93c0-4.39,2.85-7.09,5.86-7.09,3.19,0,5.15,2.27,5.15,6.22a5.61,5.61,0,0,1-.07,1h-9.67c0,3.4,2,5.82,5.06,5.82a6,6,0,0,0,3.61-1.19l.51.94a7.29,7.29,0,0,1-4.24,1.32C528.69,159,525.91,156.32,525.91,151.93Zm9.84-.88c0-3.43-1.55-5.14-4-5.14-2.27,0-4.33,1.93-4.61,5.14Z"/><path class="cls-3" d="M540.56,145.18h1.05l.13,2.51h.07c.91-1.65,2.22-2.85,3.82-2.85a2.89,2.89,0,0,1,1.33.28l-.28,1.12a3,3,0,0,0-1.21-.22c-1.21,0-2.65.92-3.67,3.46v9.15h-1.24Z"/><path class="cls-3" d="M549,140.83a1.13,1.13,0,1,1,1.25,1H550A1.13,1.13,0,0,1,549,140.83Zm.48,4.35h1.24v13.45h-1.24Z"/><path class="cls-3" d="M554.72,151.93c0-4.5,2.8-7.09,6-7.09s6,2.59,6,7.09-2.8,7-6,7S554.72,156.37,554.72,151.93Zm10.77,0c0-3.54-2-6-4.73-6s-4.74,2.45-4.74,6,2,5.94,4.74,5.94S565.49,155.47,565.49,151.93Z"/><path class="cls-3" d="M569.13,157.1l.71-.9a6.25,6.25,0,0,0,4.28,1.7c2.11,0,3.21-1.23,3.21-2.65,0-1.69-1.74-2.43-3.29-3-2-.72-4.29-1.54-4.29-3.84,0-1.94,1.54-3.58,4.34-3.58a6.32,6.32,0,0,1,3.84,1.4l-.67.89a5.08,5.08,0,0,0-3.2-1.23c-2.1,0-3,1.21-3,2.45,0,1.53,1.58,2.12,3.19,2.72,2.08.79,4.39,1.48,4.39,4.1,0,2-1.62,3.79-4.53,3.79A7.65,7.65,0,0,1,569.13,157.1Z"/><path class="cls-3" d="M585.82,164.47l.29-1.07a3.4,3.4,0,0,0,1.09.21c1.64,0,2.76-1.51,3.45-3.56l.37-1.17-5.52-13.7h1.33l3.25,8.45,1.46,3.77h.11c.43-1.19.86-2.63,1.25-3.77l2.86-8.45H597l-5.31,15.14c-.75,2.24-2.11,4.43-4.53,4.43A3.61,3.61,0,0,1,585.82,164.47Z"/><path class="cls-3" d="M603.88,157.1l.71-.9a6.21,6.21,0,0,0,4.27,1.7c2.12,0,3.22-1.23,3.22-2.65,0-1.69-1.74-2.43-3.29-3-2-.72-4.29-1.54-4.29-3.84,0-1.94,1.54-3.58,4.34-3.58a6.32,6.32,0,0,1,3.84,1.4l-.67.89a5.13,5.13,0,0,0-3.21-1.23c-2.09,0-3,1.21-3,2.45,0,1.53,1.58,2.12,3.18,2.72,2.09.79,4.39,1.48,4.39,4.1,0,2-1.62,3.79-4.53,3.79A7.6,7.6,0,0,1,603.88,157.1Z"/><path class="cls-3" d="M616.68,153.8v-8.62h1.23v8.46c0,2.85.91,4.21,3.07,4.21,1.6,0,2.76-.84,4.33-2.75v-9.92h1.24v13.45h-1l-.13-2.26h-.06c-1.33,1.55-2.71,2.59-4.57,2.59C618,159,616.68,157.28,616.68,153.8Z"/><path class="cls-3" d="M632.93,157.26h-.06l-.14,1.37h-1V138.48H633v5.85l-.06,2.62a7.63,7.63,0,0,1,4.63-2.11c3.6,0,5.38,2.7,5.38,6.86,0,4.57-2.76,7.26-5.92,7.26A6.78,6.78,0,0,1,632.93,157.26Zm8.66-5.55c0-3.31-1.17-5.77-4.28-5.77-1.33,0-2.8.79-4.37,2.22v8a6.39,6.39,0,0,0,4,1.73C639.63,157.89,641.59,155.35,641.59,151.71Z"/><path class="cls-3" d="M645.68,151.09h6.15v1.1h-6.15Z"/><path class="cls-3" d="M654.37,151.93c0-4.5,2.87-7.09,6.14-7.09a5.57,5.57,0,0,1,3.94,1.66l-.73.86a4.62,4.62,0,0,0-3.18-1.42c-2.75,0-4.87,2.45-4.87,6s1.93,5.94,4.85,5.94a5.36,5.36,0,0,0,3.6-1.55l.64.87a6.37,6.37,0,0,1-4.29,1.77C657,159,654.37,156.37,654.37,151.93Z"/><path class="cls-3" d="M668.07,145.18h1l.13,2.51h.07c.91-1.65,2.22-2.85,3.82-2.85a2.89,2.89,0,0,1,1.33.28l-.28,1.12A3,3,0,0,0,673,146c-1.21,0-2.65.92-3.67,3.46v9.15h-1.24Z"/><path class="cls-3" d="M676.47,140.83a1.13,1.13,0,1,1,1.25,1h-.25A1.13,1.13,0,0,1,676.47,140.83Zm.48,4.35h1.24v13.45H677Z"/><path class="cls-3" d="M683.67,154.91v-8.65h-2.1v-1l2.13-.12.16-3.89h1v3.89h3.9v1.08h-3.9V155c0,1.72.43,2.88,2.29,2.88a4.68,4.68,0,0,0,1.68-.43l.33,1a8,8,0,0,1-2.2.5C684.43,159,683.67,157.32,683.67,154.91Z"/><path class="cls-3" d="M690.66,151.93c0-4.39,2.85-7.09,5.86-7.09,3.19,0,5.15,2.27,5.15,6.22a6.73,6.73,0,0,1-.07,1h-9.67c0,3.4,2,5.82,5.06,5.82a6.1,6.1,0,0,0,3.61-1.19l.51.94a7.29,7.29,0,0,1-4.24,1.32C693.44,159,690.66,156.32,690.66,151.93Zm9.84-.88c0-3.43-1.56-5.14-4-5.14s-4.33,1.93-4.61,5.14Z"/><path class="cls-3" d="M705.31,145.18h1.05l.13,2.51h.06c.91-1.65,2.23-2.85,3.83-2.85a2.89,2.89,0,0,1,1.33.28l-.28,1.12a3,3,0,0,0-1.21-.22c-1.21,0-2.65.92-3.67,3.46v9.15h-1.24Z"/><path class="cls-3" d="M713.71,140.83a1.13,1.13,0,1,1,1.25,1h-.25A1.13,1.13,0,0,1,713.71,140.83Zm.48,4.35h1.23v13.45h-1.23Z"/><path class="cls-3" d="M719.47,151.93c0-4.5,2.8-7.09,6-7.09s6,2.59,6,7.09-2.8,7-6,7S719.47,156.37,719.47,151.93Zm10.77,0c0-3.54-2-6-4.74-6s-4.73,2.45-4.73,6,2,5.94,4.73,5.94S730.24,155.47,730.24,151.93Z"/><path class="cls-3" d="M733.88,157.1l.71-.9a6.25,6.25,0,0,0,4.28,1.7c2.11,0,3.21-1.23,3.21-2.65,0-1.69-1.74-2.43-3.29-3-2-.72-4.29-1.54-4.29-3.84,0-1.94,1.54-3.58,4.34-3.58a6.32,6.32,0,0,1,3.84,1.4l-.67.89a5.13,5.13,0,0,0-3.21-1.23c-2.09,0-3,1.21-3,2.45,0,1.53,1.58,2.12,3.18,2.72,2.09.79,4.39,1.48,4.39,4.1,0,2-1.61,3.79-4.53,3.79A7.6,7.6,0,0,1,733.88,157.1Z"/><path class="cls-3" d="M757,151.93c0-4.34,2.76-7.09,6-7.09a6.16,6.16,0,0,1,4,1.66l-.07-2.47v-5.55h1.24v20.15h-1l-.13-1.75h0a6.33,6.33,0,0,1-4.39,2.08C759.16,159,757,156.46,757,151.93Zm10,3.72v-8a5.66,5.66,0,0,0-3.92-1.73c-2.67,0-4.73,2.61-4.73,6,0,3.58,1.59,5.94,4.44,5.94,1.45,0,2.77-.78,4.18-2.21Z"/><path class="cls-3" d="M772.19,151.93c0-4.39,2.85-7.09,5.86-7.09,3.19,0,5.15,2.27,5.15,6.22a5.61,5.61,0,0,1-.07,1h-9.67c0,3.4,2,5.82,5.06,5.82a6.13,6.13,0,0,0,3.62-1.19l.51.94a7.29,7.29,0,0,1-4.24,1.32C775,159,772.19,156.32,772.19,151.93Zm9.85-.88c0-3.43-1.56-5.14-4-5.14-2.27,0-4.32,1.93-4.6,5.14Z"/><path class="cls-3" d="M790.77,157.1l.72-.9a6.21,6.21,0,0,0,4.27,1.7c2.12,0,3.22-1.23,3.22-2.65,0-1.69-1.75-2.43-3.3-3-2-.72-4.28-1.54-4.28-3.84,0-1.94,1.53-3.58,4.33-3.58a6.32,6.32,0,0,1,3.84,1.4l-.66.89a5.13,5.13,0,0,0-3.21-1.23c-2.1,0-3.05,1.21-3.05,2.45,0,1.53,1.59,2.12,3.19,2.72,2.08.79,4.39,1.48,4.39,4.1,0,2-1.62,3.79-4.53,3.79A7.68,7.68,0,0,1,790.77,157.1Z"/><path class="cls-3" d="M802.65,151.93c0-4.39,2.85-7.09,5.87-7.09,3.18,0,5.14,2.27,5.14,6.22a5.61,5.61,0,0,1-.07,1h-9.66c0,3.4,2,5.82,5.06,5.82a6.1,6.1,0,0,0,3.61-1.19l.51.94a7.29,7.29,0,0,1-4.24,1.32C805.44,159,802.65,156.32,802.65,151.93Zm9.85-.88c0-3.43-1.56-5.14-4-5.14s-4.33,1.93-4.61,5.14Z"/><path class="cls-3" d="M817.31,156.82V138.48h1.24V157c0,.6.24.88.58.88a2.07,2.07,0,0,0,.5-.06l.21,1a3,3,0,0,1-.89.14C817.87,159,817.31,158.29,817.31,156.82Z"/><path class="cls-3" d="M822.81,151.93c0-4.39,2.85-7.09,5.87-7.09,3.18,0,5.14,2.27,5.14,6.22a5.61,5.61,0,0,1-.07,1h-9.67c0,3.4,2,5.82,5.07,5.82a6.1,6.1,0,0,0,3.61-1.19l.51.94A7.36,7.36,0,0,1,829,159C825.6,159,822.81,156.32,822.81,151.93Zm9.85-.88c0-3.43-1.56-5.14-4-5.14s-4.33,1.93-4.61,5.14Z"/><path class="cls-3" d="M836.34,151.93c0-4.5,2.87-7.09,6.14-7.09a5.61,5.61,0,0,1,3.94,1.66l-.73.86a4.62,4.62,0,0,0-3.18-1.42c-2.75,0-4.87,2.45-4.87,6s1.93,5.94,4.85,5.94a5.36,5.36,0,0,0,3.6-1.55l.64.87a6.37,6.37,0,0,1-4.29,1.77C839,159,836.34,156.37,836.34,151.93Z"/><path class="cls-3" d="M848.43,151.93c0-4.5,2.88-7.09,6.15-7.09a5.54,5.54,0,0,1,3.93,1.66l-.72.86a4.64,4.64,0,0,0-3.19-1.42c-2.74,0-4.87,2.45-4.87,6s1.94,5.94,4.86,5.94a5.4,5.4,0,0,0,3.6-1.55l.64.87a6.4,6.4,0,0,1-4.3,1.77C851.06,159,848.43,156.37,848.43,151.93Z"/><path class="cls-3" d="M861.65,140.83a1.13,1.13,0,1,1,1.13,1.13A1.15,1.15,0,0,1,861.65,140.83Zm.49,4.35h1.23v13.45h-1.23Z"/><path class="cls-3" d="M867.42,151.93c0-4.5,2.8-7.09,6-7.09s6,2.59,6,7.09-2.8,7-6,7S867.42,156.37,867.42,151.93Zm10.77,0c0-3.54-2-6-4.74-6s-4.73,2.45-4.73,6,2,5.94,4.73,5.94S878.19,155.47,878.19,151.93Zm-6.23-10,3.77-4.41.93.83-4,4.22Z"/><path class="cls-3" d="M883.53,145.18h1.05l.13,2.08h.06c1.37-1.36,2.77-2.42,4.63-2.42,2.77,0,4.06,1.69,4.06,5.16v8.63h-1.24v-8.47c0-2.85-.9-4.2-3.06-4.2-1.6,0-2.76.84-4.39,2.52v10.15h-1.24Z"/><path class="cls-3" d="M358.58,198.07l.28-1.07a3.41,3.41,0,0,0,1.1.21c1.64,0,2.76-1.51,3.44-3.56l.37-1.17-5.52-13.7h1.34l3.24,8.45c.45,1.14,1,2.58,1.46,3.77h.12c.43-1.19.86-2.63,1.25-3.77l2.86-8.45h1.26l-5.31,15.14c-.75,2.24-2.11,4.43-4.52,4.43A3.57,3.57,0,0,1,358.58,198.07Z"/><path class="cls-3" d="M377.17,185.53c0-4.39,2.85-7.09,5.87-7.09,3.18,0,5.14,2.27,5.14,6.23a5.61,5.61,0,0,1-.07,1h-9.66c0,3.4,2,5.82,5.06,5.82a6.1,6.1,0,0,0,3.61-1.19l.51.94a7.29,7.29,0,0,1-4.24,1.32C380,192.56,377.17,189.92,377.17,185.53Zm9.85-.88c0-3.43-1.56-5.14-4-5.14s-4.33,1.93-4.61,5.14Z"/><path class="cls-3" d="M390.15,190.7l.72-.9a6.21,6.21,0,0,0,4.27,1.7c2.12,0,3.22-1.23,3.22-2.65,0-1.69-1.74-2.43-3.29-3-2-.72-4.29-1.54-4.29-3.84,0-1.94,1.54-3.58,4.34-3.58a6.32,6.32,0,0,1,3.84,1.4l-.67.89a5.13,5.13,0,0,0-3.21-1.23c-2.09,0-3,1.21-3,2.45,0,1.53,1.58,2.12,3.18,2.72,2.09.79,4.39,1.48,4.39,4.1,0,2-1.62,3.79-4.53,3.79A7.68,7.68,0,0,1,390.15,190.7Z"/><path class="cls-3" d="M402.92,188.51v-8.65h-2.1v-1l2.13-.12.16-3.89h1.05v3.89h3.9v1.08h-3.9v8.74c0,1.72.43,2.88,2.29,2.88a4.68,4.68,0,0,0,1.68-.43l.33,1a8,8,0,0,1-2.2.5C403.68,192.56,402.92,190.92,402.92,188.51Z"/><path class="cls-3" d="M409.77,188.88c0-3,2.69-4.41,8.67-5.07,0-2.07-.52-4.28-3.17-4.28a7.39,7.39,0,0,0-4.28,1.58l-.57-.92a9,9,0,0,1,5-1.75c3.18,0,4.26,2.32,4.26,5.19v8.6h-1.05l-.13-1.75h-.06a8,8,0,0,1-4.78,2.08C411.54,192.56,409.77,191.4,409.77,188.88Zm8.67.44v-4.57c-5.52.64-7.41,1.92-7.41,4.06a2.54,2.54,0,0,0,2.35,2.7,2.09,2.09,0,0,0,.5,0C415.42,191.49,416.78,190.74,418.44,189.32Z"/><path class="cls-3" d="M425.71,190.86h-.06l-.14,1.37h-1V172.08h1.23v5.85l-.06,2.62a7.69,7.69,0,0,1,4.63-2.11c3.61,0,5.39,2.7,5.39,6.86,0,4.57-2.76,7.26-5.93,7.26A6.82,6.82,0,0,1,425.71,190.86Zm8.66-5.55c0-3.31-1.18-5.77-4.28-5.77-1.33,0-2.8.79-4.38,2.22v8a6.44,6.44,0,0,0,4,1.73C432.41,191.46,434.37,189,434.37,185.31Z"/><path class="cls-3" d="M439.63,190.42V172.08h1.23v18.51c0,.6.25.88.59.88a2.07,2.07,0,0,0,.5-.06l.21,1a3,3,0,0,1-.89.14C440.19,192.56,439.63,191.89,439.63,190.42Z"/><path class="cls-3" d="M445.13,185.53c0-4.39,2.85-7.09,5.86-7.09,3.19,0,5.15,2.27,5.15,6.23a5.61,5.61,0,0,1-.07,1H446.4c.05,3.4,2,5.82,5.06,5.82a6.13,6.13,0,0,0,3.62-1.19l.51.94a7.29,7.29,0,0,1-4.24,1.32C447.91,192.56,445.13,189.92,445.13,185.53Zm9.85-.88c0-3.43-1.56-5.14-4-5.14-2.27,0-4.32,1.93-4.6,5.14Z"/><path class="cls-3" d="M458.65,185.53c0-4.5,2.88-7.09,6.15-7.09a5.54,5.54,0,0,1,3.93,1.66l-.73.9a4.62,4.62,0,0,0-3.18-1.42c-2.75,0-4.88,2.45-4.88,6s1.94,5.94,4.86,5.94a5.36,5.36,0,0,0,3.6-1.55l.64.87a6.4,6.4,0,0,1-4.3,1.77C461.28,192.56,458.65,190,458.65,185.53Z"/><path class="cls-3" d="M470.75,185.53c0-4.39,2.85-7.09,5.86-7.09,3.19,0,5.15,2.27,5.15,6.23a5.61,5.61,0,0,1-.07,1H472c.05,3.4,2,5.82,5.06,5.82a6.13,6.13,0,0,0,3.62-1.19l.51.94a7.29,7.29,0,0,1-4.24,1.32C473.53,192.56,470.75,189.92,470.75,185.53Zm9.85-.88c0-3.43-1.56-5.14-4-5.14-2.27,0-4.32,1.93-4.6,5.14Z"/><path class="cls-3" d="M485.4,178.78h1.05l.14,2.51h.06c.91-1.65,2.22-2.85,3.82-2.85a3,3,0,0,1,1.34.28l-.28,1.12a3,3,0,0,0-1.22-.22c-1.21,0-2.64.92-3.67,3.46v9.15H485.4Z"/><path class="cls-3" d="M498.21,190.7l.71-.9a6.25,6.25,0,0,0,4.28,1.7c2.11,0,3.21-1.23,3.21-2.65,0-1.69-1.74-2.43-3.29-3-2-.72-4.29-1.54-4.29-3.84,0-1.94,1.54-3.58,4.34-3.58a6.32,6.32,0,0,1,3.84,1.4l-.67.89a5.13,5.13,0,0,0-3.21-1.23c-2.09,0-3,1.21-3,2.45,0,1.53,1.58,2.12,3.18,2.72,2.09.79,4.39,1.48,4.39,4.1,0,2-1.61,3.79-4.53,3.79A7.6,7.6,0,0,1,498.21,190.7Z"/><path class="cls-3" d="M511,187.4v-8.62h1.24v8.46c0,2.85.9,4.21,3.06,4.21,1.6,0,2.76-.84,4.33-2.75v-9.92h1.24v13.45h-1L519.7,190h-.06c-1.32,1.55-2.71,2.59-4.57,2.59C512.3,192.56,511,190.88,511,187.4Z"/><path class="cls-3" d="M524.36,190.7l.71-.9a6.25,6.25,0,0,0,4.28,1.7c2.11,0,3.21-1.23,3.21-2.65,0-1.69-1.74-2.43-3.29-3-2-.72-4.29-1.54-4.29-3.84,0-1.94,1.54-3.58,4.34-3.58a6.32,6.32,0,0,1,3.84,1.4l-.67.89a5.08,5.08,0,0,0-3.2-1.23c-2.1,0-3,1.21-3,2.45,0,1.53,1.58,2.12,3.19,2.72,2.08.79,4.39,1.48,4.39,4.1,0,2-1.62,3.79-4.53,3.79A7.65,7.65,0,0,1,524.36,190.7Z"/><path class="cls-3" d="M543,178.78h1l.13,1.69h.06a7.8,7.8,0,0,1,4.57-2c3.61,0,5.38,2.7,5.38,6.86,0,4.57-2.75,7.26-5.92,7.26a7,7,0,0,1-4-1.65v7.4H543Zm9.89,6.53c0-3.31-1.17-5.77-4.28-5.77-1.33,0-2.75.79-4.37,2.22v8a6.52,6.52,0,0,0,4,1.73c2.66,0,4.62-2.49,4.62-6.18Z"/><path class="cls-3" d="M557.07,185.53c0-4.39,2.85-7.09,5.87-7.09,3.18,0,5.14,2.27,5.14,6.23a5.61,5.61,0,0,1-.07,1h-9.67c0,3.4,2,5.82,5.07,5.82A6,6,0,0,0,567,190.3l.51.94a7.29,7.29,0,0,1-4.24,1.32C559.86,192.56,557.07,189.92,557.07,185.53Zm9.85-.88c0-3.43-1.56-5.14-4-5.14s-4.33,1.93-4.61,5.14Z"/><path class="cls-3" d="M570.05,190.7l.72-.9a6.21,6.21,0,0,0,4.27,1.7c2.12,0,3.22-1.23,3.22-2.65,0-1.69-1.74-2.43-3.3-3-2-.72-4.28-1.54-4.28-3.84,0-1.94,1.53-3.58,4.33-3.58a6.35,6.35,0,0,1,3.85,1.4l-.67.89A5.12,5.12,0,0,0,575,179.5c-2.1,0-3,1.21-3,2.45,0,1.53,1.59,2.12,3.19,2.72,2.08.79,4.39,1.48,4.39,4.1,0,2-1.62,3.79-4.53,3.79A7.64,7.64,0,0,1,570.05,190.7Z"/><path class="cls-3" d="M581.94,185.53c0-4.5,2.8-7.09,6-7.09s6,2.59,6,7.09-2.81,7-6,7S581.94,190,581.94,185.53Zm10.77,0c0-3.54-2-6-4.74-6s-4.73,2.45-4.73,6,2,5.94,4.73,5.94S592.71,189.07,592.71,185.53Z"/><path class="cls-3" d="M596.34,190.7l.72-.9a6.21,6.21,0,0,0,4.27,1.7c2.12,0,3.22-1.23,3.22-2.65,0-1.69-1.74-2.43-3.29-3-2-.72-4.29-1.54-4.29-3.84,0-1.94,1.54-3.58,4.34-3.58a6.32,6.32,0,0,1,3.84,1.4l-.67.89a5.13,5.13,0,0,0-3.21-1.23c-2.09,0-3,1.21-3,2.45,0,1.53,1.58,2.12,3.18,2.72,2.09.79,4.39,1.48,4.39,4.1,0,2-1.62,3.79-4.53,3.79A7.68,7.68,0,0,1,596.34,190.7Z"/><text class="cls-7" transform="translate(358 110.96) scale(0.85 1)">CR</text><text class="cls-8" transform="translate(393.16 110.96) scale(0.85 1)">I</text><text class="cls-7" transform="translate(400.7 110.96) scale(0.85 1)">TERIOS</text><use width="63.88" height="64" transform="translate(170 127) scale(1.41)" xlink:href="#Bloc_de_notas"/><path class="cls-3" d="M841.51,401.5h4.27c5.7,0,8.4,3.59,8.4,9.17s-2.7,9.28-8.37,9.28h-4.3Zm4.14,17.36c5,0,7.18-3.38,7.18-8.19s-2.18-8.08-7.18-8.08H842.8v16.27Z"/><path class="cls-3" d="M857.15,413.26c0-4.39,2.86-7.09,5.87-7.09,3.18,0,5.14,2.27,5.14,6.22a5.61,5.61,0,0,1-.07,1h-9.66c0,3.4,2,5.82,5.06,5.82A6.1,6.1,0,0,0,867.1,418l.51.94a7.29,7.29,0,0,1-4.24,1.32C859.94,420.29,857.15,417.65,857.15,413.26Zm9.85-.88c0-3.43-1.56-5.14-4-5.14s-4.33,1.93-4.61,5.14Z"/><path class="cls-3" d="M870.12,406.63l1.88-.12h4.31v1.08h-6.19Zm1.85-3.11c0-2.67,1.2-4,3.32-4a5,5,0,0,1,2,.45l-.33,1a3.55,3.55,0,0,0-1.6-.38c-1.45,0-2.12,1.1-2.12,3V420H872Z"/><path class="cls-3" d="M878.66,402.16a1.13,1.13,0,1,1,1.13,1.13A1.15,1.15,0,0,1,878.66,402.16Zm.49,4.35h1.23V420h-1.23Z"/><path class="cls-3" d="M885.56,406.51h1l.14,2.08h.06c1.37-1.36,2.77-2.42,4.63-2.42,2.77,0,4.06,1.69,4.06,5.16V420h-1.24v-8.46c0-2.85-.9-4.2-3.06-4.2-1.6,0-2.76.84-4.4,2.52V420h-1.23Z"/><path class="cls-3" d="M900,402.16a1.13,1.13,0,1,1,1.25,1H901A1.13,1.13,0,0,1,900,402.16Zm.48,4.35h1.24V420h-1.24Z"/><path class="cls-3" d="M906.86,406.51h1L908,409h.06c.91-1.65,2.22-2.85,3.82-2.85a2.84,2.84,0,0,1,1.34.28l-.28,1.12a3,3,0,0,0-1.22-.22c-1.21,0-2.64.92-3.67,3.46V420h-1.24Z"/><path class="cls-3" d="M920.21,413.26c0-4.39,2.85-7.09,5.86-7.09,3.19,0,5.15,2.27,5.15,6.22a5.61,5.61,0,0,1-.07,1h-9.67c0,3.4,2,5.82,5.06,5.82a6,6,0,0,0,3.61-1.19l.51.94a7.28,7.28,0,0,1-4.23,1.32C923,420.29,920.21,417.65,920.21,413.26Zm9.84-.88c0-3.43-1.55-5.14-4-5.14s-4.33,1.93-4.61,5.14Z"/><path class="cls-3" d="M934.86,418.15V399.81h1.24v18.51c0,.6.25.88.58.88a2.22,2.22,0,0,0,.51-.06l.21,1a3,3,0,0,1-.9.14C935.42,420.29,934.86,419.62,934.86,418.15Z"/><path class="cls-3" d="M947.1,418.15V399.81h1.24v18.51c0,.6.24.88.58.88a2.07,2.07,0,0,0,.5-.06l.21,1a3,3,0,0,1-.89.14C947.66,420.29,947.1,419.62,947.1,418.15Z"/><path class="cls-3" d="M953.25,402.16a1.13,1.13,0,1,1,1.13,1.13A1.15,1.15,0,0,1,953.25,402.16Zm.49,4.35H955V420h-1.23Z"/><path class="cls-3" d="M958.47,418.43l.72-.9a6.21,6.21,0,0,0,4.27,1.7c2.12,0,3.22-1.24,3.22-2.65,0-1.69-1.74-2.43-3.3-3-2-.72-4.28-1.54-4.28-3.84,0-1.94,1.53-3.58,4.33-3.58a6.35,6.35,0,0,1,3.85,1.4l-.67.89a5.13,5.13,0,0,0-3.21-1.23c-2.1,0-3,1.21-3,2.45,0,1.53,1.59,2.12,3.19,2.72,2.08.79,4.39,1.48,4.39,4.1,0,2-1.62,3.79-4.53,3.79A7.65,7.65,0,0,1,958.47,418.43Z"/><path class="cls-3" d="M971.24,416.24v-8.65h-2.1v-1l2.13-.12.16-3.89h1.05v3.89h3.9v1.08h-3.9v8.74c0,1.72.43,2.88,2.28,2.88a4.68,4.68,0,0,0,1.69-.43l.32,1a7.83,7.83,0,0,1-2.19.5C972,420.29,971.24,418.65,971.24,416.24Z"/><path class="cls-3" d="M978.08,416.61c0-3,2.7-4.41,8.68-5.07,0-2.07-.53-4.28-3.17-4.28a7.39,7.39,0,0,0-4.28,1.58l-.58-.92a9,9,0,0,1,5-1.75c3.18,0,4.26,2.32,4.26,5.19V420h-1l-.13-1.74h-.07a7.88,7.88,0,0,1-4.77,2.08C979.85,420.29,978.08,419.13,978.08,416.61Zm8.68.44v-4.57c-5.52.64-7.41,1.92-7.41,4.06a2.54,2.54,0,0,0,2.35,2.7,2.09,2.09,0,0,0,.5,0C983.74,419.22,985.1,418.47,986.76,417.05Z"/><path class="cls-3" d="M991.68,413.26c0-4.34,2.75-7.09,6-7.09a6.16,6.16,0,0,1,4.05,1.66l-.06-2.47v-5.55h1.23V420h-1l-.14-1.74h-.06a6.29,6.29,0,0,1-4.38,2.08C993.87,420.29,991.68,417.79,991.68,413.26Zm10,3.72v-8a5.66,5.66,0,0,0-3.92-1.73c-2.67,0-4.74,2.61-4.74,6,0,3.58,1.6,5.94,4.45,5.94,1.43,0,2.75-.78,4.16-2.19Z"/><path class="cls-3" d="M1006.9,413.26c0-4.5,2.8-7.09,6-7.09s6,2.59,6,7.09-2.81,7-6,7S1006.9,417.7,1006.9,413.26Zm10.77,0c0-3.54-2-6-4.74-6s-4.73,2.45-4.73,6,2,5.94,4.73,5.94S1017.67,416.8,1017.67,413.26Z"/><path class="cls-3" d="M1027.46,413.26c0-4.34,2.75-7.09,6-7.09a6.21,6.21,0,0,1,4.06,1.66l-.07-2.47v-5.55h1.24V420h-1l-.13-1.74h-.06a6.33,6.33,0,0,1-4.39,2.08C1029.65,420.29,1027.46,417.79,1027.46,413.26Zm10,3.72v-8a5.66,5.66,0,0,0-3.92-1.73c-2.67,0-4.73,2.61-4.73,6,0,3.58,1.59,5.94,4.44,5.94,1.43,0,2.75-.78,4.16-2.19Z"/><path class="cls-3" d="M1042.68,413.26c0-4.39,2.85-7.09,5.86-7.09,3.19,0,5.15,2.27,5.15,6.22a5.61,5.61,0,0,1-.07,1H1044c0,3.4,2,5.82,5.06,5.82a6.13,6.13,0,0,0,3.62-1.19l.5.94a7.28,7.28,0,0,1-4.23,1.32C1045.46,420.29,1042.68,417.65,1042.68,413.26Zm9.85-.88c0-3.43-1.56-5.14-4-5.14-2.27,0-4.32,1.93-4.6,5.14Z"/><path class="cls-3" d="M1061.8,413.26c0-4.5,2.88-7.09,6.15-7.09a5.48,5.48,0,0,1,3.93,1.66l-.72.86a4.64,4.64,0,0,0-3.19-1.42c-2.74,0-4.87,2.45-4.87,6s1.94,5.94,4.86,5.94a5.4,5.4,0,0,0,3.6-1.55l.64.87a6.4,6.4,0,0,1-4.3,1.77C1064.43,420.29,1061.8,417.7,1061.8,413.26Z"/><path class="cls-3" d="M1073.9,413.26c0-4.5,2.81-7.09,6-7.09s6,2.59,6,7.09-2.8,7-6,7S1073.9,417.7,1073.9,413.26Zm10.77,0c0-3.54-2-6-4.73-6s-4.74,2.45-4.74,6,2,5.94,4.74,5.94S1084.67,416.8,1084.67,413.26Z"/><path class="cls-3" d="M1088.31,418.43l.71-.9a6.25,6.25,0,0,0,4.28,1.7c2.11,0,3.21-1.24,3.21-2.65,0-1.69-1.74-2.43-3.29-3-2-.72-4.29-1.54-4.29-3.84,0-1.94,1.54-3.58,4.34-3.58a6.32,6.32,0,0,1,3.84,1.4l-.67.89a5.08,5.08,0,0,0-3.2-1.23c-2.1,0-3,1.21-3,2.45,0,1.53,1.58,2.12,3.19,2.72,2.08.79,4.39,1.48,4.39,4.1,0,2-1.62,3.79-4.53,3.79A7.65,7.65,0,0,1,1088.31,418.43Z"/><path class="cls-3" d="M1101.08,416.24v-8.65H1099v-1l2.12-.12.16-3.89h1v3.89h3.9v1.08h-3.9v8.74c0,1.72.44,2.88,2.29,2.88a4.68,4.68,0,0,0,1.68-.43l.33,1a8,8,0,0,1-2.2.5C1101.83,420.29,1101.08,418.65,1101.08,416.24Z"/><path class="cls-3" d="M1108.06,413.26c0-4.5,2.81-7.09,6-7.09s6,2.59,6,7.09-2.8,7-6,7S1108.06,417.7,1108.06,413.26Zm10.77,0c0-3.54-2-6-4.73-6s-4.74,2.45-4.74,6,2,5.94,4.74,5.94S1118.83,416.8,1118.83,413.26Z"/><path class="cls-3" d="M1122.47,418.43l.72-.9a6.21,6.21,0,0,0,4.27,1.7c2.12,0,3.21-1.24,3.21-2.65,0-1.69-1.74-2.43-3.29-3-2-.72-4.28-1.54-4.28-3.84,0-1.94,1.53-3.58,4.33-3.58a6.32,6.32,0,0,1,3.84,1.4l-.66.89a5.13,5.13,0,0,0-3.21-1.23c-2.1,0-3.05,1.21-3.05,2.45,0,1.53,1.58,2.12,3.19,2.72,2.08.79,4.39,1.48,4.39,4.1,0,2-1.62,3.79-4.53,3.79A7.63,7.63,0,0,1,1122.47,418.43Z"/><path class="cls-3" d="M1140.12,416.61c0-3,2.69-4.41,8.67-5.07,0-2.07-.52-4.28-3.17-4.28a7.39,7.39,0,0,0-4.28,1.58l-.57-.92a9,9,0,0,1,5-1.75c3.19,0,4.26,2.32,4.26,5.19V420h-1l-.13-1.74h-.06a7.94,7.94,0,0,1-4.77,2.08C1141.89,420.29,1140.12,419.13,1140.12,416.61Zm8.67.44v-4.57c-5.52.64-7.41,1.92-7.41,4.06,0,1.93,1.31,2.68,2.86,2.68S1147.13,418.47,1148.79,417.05Z"/><path class="cls-3" d="M1159.47,416.61c0-3,2.69-4.41,8.67-5.07,0-2.07-.52-4.28-3.17-4.28a7.39,7.39,0,0,0-4.28,1.58l-.57-.92a9,9,0,0,1,5-1.75c3.18,0,4.26,2.32,4.26,5.19V420h-1.05l-.13-1.74h-.06a7.94,7.94,0,0,1-4.77,2.08C1161.24,420.29,1159.47,419.13,1159.47,416.61Zm8.67.44v-4.57c-5.52.64-7.41,1.92-7.41,4.06a2.54,2.54,0,0,0,2.35,2.7,2.09,2.09,0,0,0,.5,0C1165.12,419.22,1166.48,418.47,1168.14,417.05Z"/><path class="cls-3" d="M1172.5,418.43l.72-.9a6.21,6.21,0,0,0,4.27,1.7c2.12,0,3.22-1.24,3.22-2.65,0-1.69-1.74-2.43-3.29-3-2-.72-4.29-1.54-4.29-3.84,0-1.94,1.54-3.58,4.34-3.58a6.32,6.32,0,0,1,3.84,1.4l-.67.89a5.13,5.13,0,0,0-3.21-1.23c-2.1,0-3,1.21-3,2.45,0,1.53,1.58,2.12,3.18,2.72,2.09.79,4.39,1.48,4.39,4.1,0,2-1.62,3.79-4.53,3.79A7.68,7.68,0,0,1,1172.5,418.43Z"/><path class="cls-3" d="M1184.39,413.26c0-4.5,2.8-7.09,6-7.09s6,2.59,6,7.09-2.8,7-6,7S1184.39,417.7,1184.39,413.26Zm10.77,0c0-3.54-2-6-4.74-6s-4.73,2.45-4.73,6,2,5.94,4.73,5.94S1195.16,416.8,1195.16,413.26Z"/><path class="cls-3" d="M1199.37,413.26c0-4.5,2.87-7.09,6.14-7.09a5.52,5.52,0,0,1,3.94,1.66l-.73.86a4.62,4.62,0,0,0-3.18-1.42c-2.75,0-4.87,2.45-4.87,6s1.93,5.94,4.85,5.94a5.36,5.36,0,0,0,3.6-1.55l.64.87a6.37,6.37,0,0,1-4.29,1.77C1202,420.29,1199.37,417.7,1199.37,413.26Z"/><path class="cls-3" d="M1212.59,402.16a1.13,1.13,0,1,1,1.25,1h-.25A1.13,1.13,0,0,1,1212.59,402.16Zm.48,4.35h1.24V420h-1.24Z"/><path class="cls-3" d="M1218.52,416.61c0-3,2.69-4.41,8.67-5.07,0-2.07-.52-4.28-3.17-4.28a7.39,7.39,0,0,0-4.28,1.58l-.57-.92a9,9,0,0,1,5-1.75c3.19,0,4.26,2.32,4.26,5.19V420h-1l-.13-1.74h-.06a7.94,7.94,0,0,1-4.77,2.08C1220.29,420.29,1218.52,419.13,1218.52,416.61Zm8.67.44v-4.57c-5.52.64-7.41,1.92-7.41,4.06a2.54,2.54,0,0,0,2.35,2.7,2.09,2.09,0,0,0,.5,0c1.54,0,2.9-.75,4.56-2.17Z"/><path class="cls-3" d="M1233.23,406.51h1l.13,2.51h.06c.91-1.65,2.23-2.85,3.83-2.85a2.77,2.77,0,0,1,1.33.28l-.28,1.12a3,3,0,0,0-1.22-.22c-1.21,0-2.64.92-3.66,3.46V420h-1.24Z"/><path class="cls-3" d="M1246.74,416.61c0-3,2.7-4.41,8.68-5.07,0-2.07-.53-4.28-3.17-4.28a7.38,7.38,0,0,0-4.29,1.58l-.57-.92a9,9,0,0,1,5-1.75c3.19,0,4.26,2.32,4.26,5.19V420h-1l-.14-1.74h-.06a7.94,7.94,0,0,1-4.77,2.08C1248.51,420.29,1246.74,419.13,1246.74,416.61Zm8.68.44v-4.57c-5.53.64-7.41,1.92-7.41,4.06a2.54,2.54,0,0,0,2.35,2.7,2.09,2.09,0,0,0,.5,0C1252.4,419.22,1253.75,418.47,1255.42,417.05Z"/><path class="cls-3" d="M1267.05,418.15V399.81h1.24v18.51c0,.6.25.88.58.88a2.22,2.22,0,0,0,.51-.06l.2,1a3,3,0,0,1-.89.14C1267.61,420.29,1267.05,419.62,1267.05,418.15Z"/><path class="cls-3" d="M1272.73,416.61c0-3,2.69-4.41,8.67-5.07,0-2.07-.53-4.28-3.17-4.28a7.39,7.39,0,0,0-4.28,1.58l-.57-.92a9,9,0,0,1,5-1.75c3.18,0,4.26,2.32,4.26,5.19V420h-1.05l-.13-1.74h-.07a7.88,7.88,0,0,1-4.77,2.08C1274.5,420.29,1272.73,419.13,1272.73,416.61Zm8.67.44v-4.57c-5.52.64-7.41,1.92-7.41,4.06a2.54,2.54,0,0,0,2.35,2.7,2.09,2.09,0,0,0,.5,0C1278.38,419.22,1279.74,418.47,1281.4,417.05Z"/><path class="cls-3" d="M1285.76,418.43l.72-.9a6.21,6.21,0,0,0,4.27,1.7c2.12,0,3.22-1.24,3.22-2.65,0-1.69-1.75-2.43-3.3-3-2-.72-4.28-1.54-4.28-3.84,0-1.94,1.53-3.58,4.33-3.58a6.32,6.32,0,0,1,3.84,1.4l-.66.89a5.13,5.13,0,0,0-3.21-1.23c-2.1,0-3,1.21-3,2.45,0,1.53,1.59,2.12,3.19,2.72,2.08.79,4.39,1.48,4.39,4.1,0,2-1.62,3.79-4.53,3.79A7.65,7.65,0,0,1,1285.76,418.43Z"/><path class="cls-3" d="M840.41,450.21c0-3,2.69-4.41,8.68-5.07,0-2.07-.53-4.28-3.17-4.28a7.38,7.38,0,0,0-4.29,1.58l-.57-.92a9,9,0,0,1,5-1.75c3.19,0,4.26,2.32,4.26,5.19v8.59h-1l-.14-1.74h-.06a7.94,7.94,0,0,1-4.77,2.08C842.18,453.89,840.41,452.73,840.41,450.21Zm8.68.44v-4.57c-5.53.64-7.41,1.92-7.41,4.06a2.54,2.54,0,0,0,2.35,2.7,2.09,2.09,0,0,0,.5,0c1.54,0,2.89-.75,4.56-2.17Z"/><path class="cls-3" d="M855.12,451.75V433.41h1.24v18.51c0,.6.25.88.58.88a2.22,2.22,0,0,0,.51-.06l.2,1a3,3,0,0,1-.89.14C855.68,453.89,855.12,453.22,855.12,451.75Z"/><path class="cls-3" d="M862.07,449.84v-8.65H860v-1l2.13-.12.16-3.89h1v3.89h3.9v1.08h-3.9v8.74c0,1.72.43,2.88,2.28,2.88a4.68,4.68,0,0,0,1.69-.43l.32,1a7.83,7.83,0,0,1-2.19.5C862.83,453.89,862.07,452.25,862.07,449.84Z"/><path class="cls-3" d="M869.06,446.86c0-4.39,2.85-7.09,5.86-7.09,3.18,0,5.14,2.27,5.14,6.22a5.61,5.61,0,0,1-.07,1h-9.66c0,3.4,2,5.82,5.06,5.82a6.1,6.1,0,0,0,3.61-1.19l.51.94a7.29,7.29,0,0,1-4.24,1.32C871.84,453.89,869.06,451.25,869.06,446.86Zm9.84-.88c0-3.43-1.56-5.14-4-5.14s-4.33,1.93-4.61,5.14Z"/><path class="cls-3" d="M883.71,440.11h1l.13,2.51H885c.91-1.65,2.23-2.85,3.83-2.85a2.77,2.77,0,0,1,1.33.28l-.28,1.12a3,3,0,0,0-1.21-.22c-1.21,0-2.65.92-3.67,3.46v9.14h-1.24Z"/><path class="cls-3" d="M892.59,440.11h1l.14,2.08h.06c1.37-1.36,2.77-2.42,4.62-2.42,2.78,0,4.07,1.69,4.07,5.16v8.62h-1.24v-8.46c0-2.85-.9-4.2-3.06-4.2-1.6,0-2.76.84-4.4,2.52v10.14h-1.23Z"/><path class="cls-3" d="M906.52,450.21c0-3,2.69-4.41,8.67-5.07,0-2.07-.52-4.28-3.17-4.28a7.39,7.39,0,0,0-4.28,1.58l-.57-.92a9,9,0,0,1,5-1.75c3.19,0,4.26,2.32,4.26,5.19v8.59h-1l-.13-1.74h-.06a7.94,7.94,0,0,1-4.77,2.08C908.29,453.89,906.52,452.73,906.52,450.21Zm8.67.44v-4.57c-5.52.64-7.41,1.92-7.41,4.06a2.54,2.54,0,0,0,2.35,2.7,2.09,2.09,0,0,0,.5,0C912.17,452.82,913.53,452.07,915.19,450.65Z"/><path class="cls-3" d="M921.24,449.84v-8.65h-2.1v-1l2.12-.12.16-3.89h1.05v3.89h3.9v1.08h-3.9v8.74c0,1.72.43,2.88,2.29,2.88a4.68,4.68,0,0,0,1.68-.43l.33,1a8,8,0,0,1-2.2.5C922,453.89,921.24,452.25,921.24,449.84Z"/><path class="cls-3" d="M929.18,435.76a1.13,1.13,0,1,1,1.25,1h-.25A1.13,1.13,0,0,1,929.18,435.76Zm.48,4.35h1.24v13.44h-1.24Z"/><path class="cls-3" d="M933.82,440.11h1.34l3,8.42c.43,1.3.92,2.66,1.36,3.87h.11c.44-1.21.92-2.57,1.36-3.87l3-8.42h1.27l-5,13.44H938.8Z"/><path class="cls-3" d="M946.7,450.21c0-3,2.69-4.41,8.67-5.07,0-2.07-.52-4.28-3.17-4.28a7.39,7.39,0,0,0-4.28,1.58l-.57-.92a9,9,0,0,1,5-1.75c3.19,0,4.26,2.32,4.26,5.19v8.59h-1.05l-.13-1.74h-.06a7.94,7.94,0,0,1-4.77,2.08C948.47,453.89,946.7,452.73,946.7,450.21Zm8.67.44v-4.57c-5.52.64-7.41,1.92-7.41,4.06a2.54,2.54,0,0,0,2.35,2.7,2.09,2.09,0,0,0,.5,0C952.35,452.82,953.71,452.07,955.37,450.65Z"/><path class="cls-3" d="M959.74,452l.71-.9a6.21,6.21,0,0,0,4.27,1.7c2.12,0,3.22-1.24,3.22-2.65,0-1.69-1.74-2.43-3.29-3-2-.72-4.29-1.54-4.29-3.84,0-1.94,1.54-3.58,4.34-3.58a6.32,6.32,0,0,1,3.84,1.4l-.67.89a5.13,5.13,0,0,0-3.21-1.23c-2.09,0-3,1.21-3,2.45,0,1.53,1.58,2.12,3.18,2.72,2.09.79,4.39,1.48,4.39,4.1,0,2-1.61,3.79-4.53,3.79A7.6,7.6,0,0,1,959.74,452Z"/><path class="cls-3" d="M977.23,446.86c0-4.34,2.75-7.09,6-7.09a6.21,6.21,0,0,1,4.06,1.66l-.07-2.47v-5.55h1.24v20.14h-1l-.13-1.74h-.07a6.29,6.29,0,0,1-4.38,2.08C979.42,453.89,977.23,451.39,977.23,446.86Zm9.95,3.72v-8a5.66,5.66,0,0,0-3.92-1.73c-2.67,0-4.73,2.61-4.73,6,0,3.58,1.59,5.94,4.44,5.94C984.45,452.79,985.77,452,987.18,450.58Z"/><path class="cls-3" d="M992.45,446.86c0-4.39,2.85-7.09,5.86-7.09,3.19,0,5.15,2.27,5.15,6.22a5.61,5.61,0,0,1-.07,1h-9.67c0,3.4,2,5.82,5.06,5.82a6.13,6.13,0,0,0,3.62-1.19l.51.94a7.29,7.29,0,0,1-4.24,1.32C995.23,453.89,992.45,451.25,992.45,446.86Zm9.84-.88c0-3.43-1.55-5.14-4-5.14s-4.32,1.93-4.6,5.14Z"/><path class="cls-3" d="M1011,452l.72-.9a6.21,6.21,0,0,0,4.27,1.7c2.12,0,3.21-1.24,3.21-2.65,0-1.69-1.74-2.43-3.29-3-2-.72-4.28-1.54-4.28-3.84,0-1.94,1.53-3.58,4.33-3.58a6.32,6.32,0,0,1,3.84,1.4l-.66.89a5.13,5.13,0,0,0-3.21-1.23c-2.1,0-3,1.21-3,2.45,0,1.53,1.59,2.12,3.19,2.72,2.08.79,4.39,1.48,4.39,4.1,0,2-1.62,3.79-4.53,3.79A7.63,7.63,0,0,1,1011,452Z"/><path class="cls-3" d="M1022.91,446.86c0-4.39,2.85-7.09,5.87-7.09,3.18,0,5.14,2.27,5.14,6.22a5.61,5.61,0,0,1-.07,1h-9.67c0,3.4,2,5.82,5.07,5.82a6.1,6.1,0,0,0,3.61-1.19l.51.94a7.29,7.29,0,0,1-4.24,1.32C1025.7,453.89,1022.91,451.25,1022.91,446.86Zm9.85-.88c0-3.43-1.56-5.14-4-5.14s-4.33,1.93-4.61,5.14Z"/><path class="cls-3" d="M1037.57,451.75V433.41h1.24v18.51c0,.6.24.88.58.88a2.07,2.07,0,0,0,.5-.06l.21,1a3,3,0,0,1-.89.14C1038.13,453.89,1037.57,453.22,1037.57,451.75Z"/><path class="cls-3" d="M1043.07,446.86c0-4.39,2.85-7.09,5.87-7.09,3.18,0,5.14,2.27,5.14,6.22a5.61,5.61,0,0,1-.07,1h-9.67c.05,3.4,2,5.82,5.07,5.82a6.1,6.1,0,0,0,3.61-1.19l.51.94a7.29,7.29,0,0,1-4.24,1.32C1045.86,453.89,1043.07,451.25,1043.07,446.86Zm9.85-.88c0-3.43-1.56-5.14-4-5.14s-4.33,1.93-4.61,5.14Z"/><path class="cls-3" d="M1056.6,446.86c0-4.5,2.87-7.09,6.14-7.09a5.52,5.52,0,0,1,3.94,1.66l-.73.86a4.62,4.62,0,0,0-3.18-1.42c-2.75,0-4.87,2.45-4.87,6s1.93,5.94,4.85,5.94a5.36,5.36,0,0,0,3.6-1.55l.64.87a6.37,6.37,0,0,1-4.29,1.77C1059.22,453.89,1056.6,451.3,1056.6,446.86Z"/><path class="cls-3" d="M1068.69,446.86c0-4.5,2.88-7.09,6.15-7.09a5.48,5.48,0,0,1,3.93,1.66l-.73.86a4.6,4.6,0,0,0-3.18-1.42c-2.75,0-4.87,2.45-4.87,6s1.93,5.94,4.86,5.94a5.4,5.4,0,0,0,3.6-1.55l.64.87a6.4,6.4,0,0,1-4.3,1.77C1071.32,453.89,1068.69,451.3,1068.69,446.86Z"/><path class="cls-3" d="M1081.91,435.76a1.13,1.13,0,1,1,1.13,1.13A1.15,1.15,0,0,1,1081.91,435.76Zm.49,4.35h1.23v13.44h-1.23Z"/><path class="cls-3" d="M1087.68,446.86c0-4.5,2.8-7.09,6-7.09s6,2.59,6,7.09-2.81,7-6,7S1087.68,451.3,1087.68,446.86Zm10.77,0c0-3.54-2-6-4.74-6s-4.74,2.45-4.74,6,2,5.94,4.74,5.94S1098.45,450.4,1098.45,446.86Zm-6.23-10,3.77-4.41.93.83-4,4.22Z"/><path class="cls-3" d="M1103.79,440.11h1l.14,2.08h.06c1.37-1.36,2.77-2.42,4.63-2.42,2.77,0,4.06,1.69,4.06,5.16v8.62h-1.24v-8.46c0-2.85-.9-4.2-3.06-4.2-1.6,0-2.76.84-4.4,2.52v10.14h-1.23Z"/><text class="cls-7" transform="translate(838.93 375.52) scale(0.85 1)">LIS</text><text class="cls-9" transform="translate(878.31 375.52) scale(0.85 1)">T</text><text class="cls-7" transform="translate(893.54 375.52) scale(0.85 1)">ADO DE COS</text><text class="cls-10" transform="translate(1048.12 375.52) scale(0.85 1)">T</text><text class="cls-7" transform="translate(1064.58 375.52) scale(0.85 1)">OS</text><path class="cls-3" d="M360.58,705.79h4.26c5.7,0,8.4,3.58,8.4,9.17s-2.7,9.28-8.37,9.28h-4.29Zm4.13,17.36c5,0,7.18-3.38,7.18-8.19s-2.17-8.08-7.18-8.08h-2.85v16.27Z"/><path class="cls-3" d="M376.22,717.54c0-4.38,2.85-7.08,5.86-7.08,3.19,0,5.15,2.27,5.15,6.22a6.73,6.73,0,0,1-.07,1h-9.67c0,3.39,2,5.82,5.06,5.82a6,6,0,0,0,3.61-1.2l.51.94a7.3,7.3,0,0,1-4.24,1.33C379,724.58,376.22,721.94,376.22,717.54Zm9.84-.87c0-3.43-1.56-5.14-4-5.14s-4.33,1.93-4.61,5.14Z"/><path class="cls-3" d="M389.18,710.91l1.88-.12h4.31v1.09h-6.19ZM391,707.8c0-2.66,1.2-4,3.32-4a5,5,0,0,1,2,.45l-.33,1a3.55,3.55,0,0,0-1.6-.38c-1.45,0-2.11,1.1-2.11,3v16.35H391Z"/><path class="cls-3" d="M397.73,706.45a1.13,1.13,0,1,1,1.25,1h-.25A1.13,1.13,0,0,1,397.73,706.45Zm.48,4.34h1.23v13.45h-1.23Z"/><path class="cls-3" d="M404.62,710.79h1.05l.13,2.09h.06c1.37-1.37,2.77-2.42,4.63-2.42,2.78,0,4.06,1.68,4.06,5.16v8.62h-1.23v-8.46c0-2.85-.91-4.21-3.07-4.21-1.6,0-2.76.85-4.39,2.53v10.14h-1.24Z"/><path class="cls-3" d="M419,706.45a1.13,1.13,0,1,1,1.25,1H420A1.13,1.13,0,0,1,419,706.45Zm.48,4.34h1.24v13.45h-1.24Z"/><path class="cls-3" d="M425.93,710.79h1l.14,2.51h.06c.91-1.65,2.23-2.84,3.82-2.84a2.84,2.84,0,0,1,1.34.28l-.28,1.12a3,3,0,0,0-1.22-.23c-1.21,0-2.64.92-3.67,3.47v9.14h-1.23Z"/><path class="cls-3" d="M439.27,717.54c0-4.38,2.85-7.08,5.86-7.08,3.19,0,5.15,2.27,5.15,6.22a5.61,5.61,0,0,1-.07,1h-9.67c0,3.39,2,5.82,5.06,5.82a6.07,6.07,0,0,0,3.62-1.2l.51.94a7.3,7.3,0,0,1-4.24,1.33C442.05,724.58,439.27,721.94,439.27,717.54Zm9.85-.87c0-3.43-1.56-5.14-4-5.14s-4.33,1.93-4.61,5.14Z"/><path class="cls-3" d="M453.93,722.44V704.1h1.23v18.51c0,.6.25.87.59.87a2.73,2.73,0,0,0,.5-.05l.21,1a3,3,0,0,1-.89.14C454.49,724.58,453.93,723.91,453.93,722.44Z"/><path class="cls-3" d="M466.16,722.44V704.1h1.24v18.51c0,.6.25.87.58.87a2.94,2.94,0,0,0,.51-.05l.2,1a3,3,0,0,1-.89.14C466.72,724.58,466.16,723.91,466.16,722.44Z"/><path class="cls-3" d="M472.32,706.45a1.13,1.13,0,1,1,1.25,1h-.25A1.13,1.13,0,0,1,472.32,706.45Zm.48,4.34H474v13.45h-1.2Z"/><path class="cls-3" d="M477.53,722.72l.72-.9a6.21,6.21,0,0,0,4.27,1.7c2.12,0,3.22-1.24,3.22-2.66,0-1.68-1.74-2.42-3.29-3-2-.72-4.29-1.55-4.29-3.84,0-1.94,1.54-3.58,4.34-3.58a6.38,6.38,0,0,1,3.84,1.39l-.67.89a5.17,5.17,0,0,0-3.21-1.22c-2.09,0-3,1.2-3,2.44,0,1.54,1.58,2.12,3.18,2.73,2.09.79,4.39,1.47,4.39,4.1,0,2-1.62,3.79-4.53,3.79A7.74,7.74,0,0,1,477.53,722.72Z"/><path class="cls-3" d="M490.3,720.53v-8.65h-2.1v-1l2.13-.12.16-3.89h1.05v3.89h3.9v1.09h-3.9v8.74c0,1.72.43,2.88,2.29,2.88a4.9,4.9,0,0,0,1.68-.43l.33,1a7.58,7.58,0,0,1-2.2.51C491.06,724.58,490.3,722.94,490.3,720.53Z"/><path class="cls-3" d="M497.15,720.89c0-3,2.69-4.41,8.67-5.07,0-2.06-.53-4.28-3.17-4.28a7.39,7.39,0,0,0-4.28,1.58l-.57-.91a8.85,8.85,0,0,1,5-1.75c3.18,0,4.26,2.31,4.26,5.19v8.59H506l-.13-1.75h-.06a8,8,0,0,1-4.78,2.09C498.92,724.58,497.15,723.42,497.15,720.89Zm8.67.45v-4.58c-5.52.64-7.41,1.93-7.41,4.07,0,1.93,1.31,2.67,2.85,2.67S504.16,722.76,505.82,721.34Z"/><path class="cls-3" d="M510.74,717.54c0-4.34,2.75-7.08,6-7.08a6.25,6.25,0,0,1,4.06,1.65l-.07-2.47V704.1H522v20.14h-1l-.14-1.74h-.06a6.35,6.35,0,0,1-4.38,2.08C512.93,724.58,510.74,722.08,510.74,717.54Zm10,3.72v-8a5.66,5.66,0,0,0-3.92-1.73c-2.67,0-4.73,2.61-4.73,6,0,3.58,1.59,5.94,4.44,5.94,1.47,0,2.75-.77,4.16-2.21Z"/><path class="cls-3" d="M526,717.54c0-4.49,2.8-7.08,6-7.08s6,2.59,6,7.08-2.8,7-6,7S526,722,526,717.54Zm10.77,0c0-3.54-2-6-4.73-6s-4.74,2.45-4.74,6,2,5.94,4.74,5.94,4.69-2.4,4.69-5.94Z"/><path class="cls-3" d="M546.52,717.54c0-4.34,2.76-7.08,6-7.08a6.2,6.2,0,0,1,4,1.65l-.07-2.47V704.1h1.24v20.14h-1.05l-.13-1.74h-.06a6.37,6.37,0,0,1-4.39,2.08C548.71,724.58,546.52,722.08,546.52,717.54Zm10,3.72v-8a5.66,5.66,0,0,0-3.92-1.73c-2.67,0-4.73,2.61-4.73,6,0,3.58,1.59,5.94,4.44,5.94,1.44,0,2.75-.77,4.16-2.21Z"/><path class="cls-3" d="M561.74,717.54c0-4.38,2.85-7.08,5.86-7.08,3.19,0,5.15,2.27,5.15,6.22a5.61,5.61,0,0,1-.07,1H563c0,3.39,2,5.82,5.07,5.82a6,6,0,0,0,3.61-1.2l.51.94a7.3,7.3,0,0,1-4.24,1.33C564.52,724.58,561.74,721.94,561.74,717.54Zm9.85-.87c0-3.43-1.56-5.14-4-5.14s-4.33,1.93-4.61,5.14Z"/><path class="cls-3" d="M583.23,722.88h-.06l-.14,1.36h-1V704.1h1.23v5.84l-.06,2.62a7.74,7.74,0,0,1,4.63-2.1c3.61,0,5.39,2.7,5.39,6.86,0,4.56-2.76,7.26-5.93,7.26A6.82,6.82,0,0,1,583.23,722.88Zm8.66-5.56c0-3.3-1.18-5.76-4.28-5.76-1.34,0-2.8.78-4.38,2.21v8a6.39,6.39,0,0,0,4,1.73c2.7,0,4.66-2.5,4.66-6.18Z"/><path class="cls-3" d="M596,717.54c0-4.38,2.85-7.08,5.86-7.08,3.19,0,5.15,2.27,5.15,6.22a5.61,5.61,0,0,1-.07,1h-9.67c.05,3.39,2,5.82,5.06,5.82a6,6,0,0,0,3.62-1.2l.51.94a7.3,7.3,0,0,1-4.24,1.33C598.82,724.58,596,721.94,596,717.54Zm9.85-.87c0-3.43-1.56-5.14-4-5.14s-4.33,1.93-4.61,5.14Z"/><path class="cls-3" d="M610.7,710.79h1l.14,2.09h.06c1.37-1.37,2.77-2.42,4.62-2.42,2.78,0,4.07,1.68,4.07,5.16v8.62h-1.24v-8.46c0-2.85-.9-4.21-3.06-4.21-1.6,0-2.76.85-4.4,2.53v10.14H610.7Z"/><path class="cls-3" d="M624.46,717.54c0-4.38,2.85-7.08,5.86-7.08,3.19,0,5.15,2.27,5.15,6.22a5.61,5.61,0,0,1-.07,1h-9.67c0,3.39,2,5.82,5.06,5.82a6,6,0,0,0,3.62-1.2l.51.94a7.3,7.3,0,0,1-4.24,1.33C627.24,724.58,624.46,721.94,624.46,717.54Zm9.85-.87c0-3.43-1.56-5.14-4-5.14s-4.32,1.93-4.6,5.14Z"/><path class="cls-3" d="M637.42,710.91l1.88-.12h4.32v1.09h-6.2Zm1.85-3.11c0-2.66,1.2-4,3.33-4a5.12,5.12,0,0,1,2,.45l-.34,1a3.55,3.55,0,0,0-1.6-.38c-1.45,0-2.11,1.1-2.11,3v16.35h-1.24Z"/><path class="cls-3" d="M646,706.45a1.13,1.13,0,1,1,1.25,1H647A1.13,1.13,0,0,1,646,706.45Zm.48,4.34h1.24v13.45h-1.24Z"/><path class="cls-3" d="M651.73,717.54c0-4.49,2.87-7.08,6.15-7.08a5.48,5.48,0,0,1,3.93,1.66l-.73.86a4.57,4.57,0,0,0-3.18-1.43c-2.75,0-4.87,2.45-4.87,6s1.93,5.94,4.86,5.94a5.36,5.36,0,0,0,3.6-1.55l.64.87a6.39,6.39,0,0,1-4.3,1.78C654.36,724.58,651.73,722,651.73,717.54Z"/><path class="cls-3" d="M665,706.45a1.13,1.13,0,1,1,1.25,1H666A1.13,1.13,0,0,1,665,706.45Zm.48,4.34h1.24v13.45h-1.24Z"/><path class="cls-3" d="M670.71,717.54c0-4.49,2.81-7.08,6-7.08s6,2.59,6,7.08-2.81,7-6,7S670.71,722,670.71,717.54Zm10.78,0c0-3.54-2-6-4.74-6s-4.74,2.45-4.74,6,2,5.94,4.74,5.94S681.49,721.08,681.49,717.54Z"/><path class="cls-3" d="M685.12,722.72l.72-.9a6.21,6.21,0,0,0,4.27,1.7c2.12,0,3.22-1.24,3.22-2.66,0-1.68-1.74-2.42-3.29-3-2-.72-4.29-1.55-4.29-3.84,0-1.94,1.54-3.58,4.34-3.58a6.38,6.38,0,0,1,3.84,1.39l-.67.89a5.17,5.17,0,0,0-3.21-1.22c-2.1,0-3,1.2-3,2.44,0,1.54,1.58,2.12,3.18,2.73,2.08.79,4.39,1.47,4.39,4.1,0,2-1.62,3.79-4.53,3.79A7.74,7.74,0,0,1,685.12,722.72Z"/><path class="cls-3" d="M702.78,720.89c0-3,2.69-4.41,8.67-5.07,0-2.06-.53-4.28-3.17-4.28a7.39,7.39,0,0,0-4.28,1.58l-.58-.91a9,9,0,0,1,5-1.75c3.18,0,4.26,2.31,4.26,5.19v8.59h-1l-.13-1.75h-.07a7.9,7.9,0,0,1-4.77,2.09C704.54,724.58,702.78,723.42,702.78,720.89Zm8.67.45v-4.58c-5.52.64-7.41,1.93-7.41,4.07,0,1.93,1.31,2.67,2.85,2.67S709.79,722.76,711.45,721.34Z"/><path class="cls-3" d="M722.12,720.89c0-3,2.7-4.41,8.68-5.07,0-2.06-.53-4.28-3.17-4.28a7.38,7.38,0,0,0-4.29,1.58l-.57-.91a9,9,0,0,1,5-1.75c3.19,0,4.26,2.31,4.26,5.19v8.59h-1l-.14-1.75h-.06a8,8,0,0,1-4.77,2.09C723.89,724.58,722.12,723.42,722.12,720.89Zm8.68.45v-4.58c-5.52.64-7.41,1.93-7.41,4.07,0,1.93,1.3,2.67,2.85,2.67S729.13,722.76,730.8,721.34Z"/><path class="cls-3" d="M735.16,722.72l.72-.9a6.21,6.21,0,0,0,4.27,1.7c2.12,0,3.21-1.24,3.21-2.66,0-1.68-1.74-2.42-3.29-3-2-.72-4.28-1.55-4.28-3.84,0-1.94,1.53-3.58,4.33-3.58a6.38,6.38,0,0,1,3.84,1.39l-.66.89a5.17,5.17,0,0,0-3.21-1.22c-2.1,0-3.05,1.2-3.05,2.44,0,1.54,1.59,2.12,3.19,2.73,2.08.79,4.39,1.47,4.39,4.1,0,2-1.62,3.79-4.53,3.79A7.69,7.69,0,0,1,735.16,722.72Z"/><path class="cls-3" d="M747,717.54c0-4.49,2.81-7.08,6-7.08s6,2.59,6,7.08-2.81,7-6,7S747,722,747,717.54Zm10.78,0c0-3.54-2-6-4.74-6s-4.74,2.45-4.74,6,2,5.94,4.74,5.94,4.78-2.4,4.78-5.94Z"/><path class="cls-3" d="M762,717.54c0-4.49,2.88-7.08,6.15-7.08a5.48,5.48,0,0,1,3.93,1.66l-.73.86a4.57,4.57,0,0,0-3.18-1.43c-2.75,0-4.87,2.45-4.87,6s1.93,5.94,4.86,5.94a5.36,5.36,0,0,0,3.6-1.55l.64.87a6.39,6.39,0,0,1-4.3,1.78C764.65,724.58,762,722,762,717.54Z"/><path class="cls-3" d="M775.24,706.45a1.13,1.13,0,1,1,1.25,1h-.25A1.13,1.13,0,0,1,775.24,706.45Zm.49,4.34H777v13.45h-1.23Z"/><path class="cls-3" d="M781.17,720.89c0-3,2.7-4.41,8.68-5.07,0-2.06-.53-4.28-3.17-4.28a7.38,7.38,0,0,0-4.29,1.58l-.57-.91a9,9,0,0,1,5-1.75c3.19,0,4.27,2.31,4.27,5.19v8.59H790l-.14-1.75h-.06a7.9,7.9,0,0,1-4.77,2.09C782.94,724.58,781.17,723.42,781.17,720.89Zm8.68.45v-4.58c-5.52.64-7.41,1.93-7.41,4.07,0,1.93,1.3,2.67,2.85,2.67S788.19,722.76,789.85,721.34Z"/><path class="cls-3" d="M795.89,710.79h1l.14,2.51h.06c.91-1.65,2.22-2.84,3.82-2.84a2.84,2.84,0,0,1,1.34.28l-.28,1.12a3,3,0,0,0-1.22-.23c-1.21,0-2.64.92-3.67,3.47v9.14h-1.23Z"/><path class="cls-3" d="M809.4,720.89c0-3,2.69-4.41,8.67-5.07,0-2.06-.52-4.28-3.17-4.28a7.39,7.39,0,0,0-4.28,1.58l-.57-.91a8.85,8.85,0,0,1,5-1.75c3.18,0,4.26,2.31,4.26,5.19v8.59h-1l-.13-1.75h-.06a8,8,0,0,1-4.78,2.09C811.17,724.58,809.4,723.42,809.4,720.89Zm8.67.45v-4.58c-5.52.64-7.41,1.93-7.41,4.07,0,1.93,1.31,2.67,2.85,2.67S816.41,722.76,818.07,721.34Z"/><path class="cls-3" d="M360.44,756V737.7h1.23v18.51c0,.59.25.87.59.87a2.73,2.73,0,0,0,.5-.05l.21,1a3,3,0,0,1-.89.14C361,758.18,360.44,757.51,360.44,756Z"/><path class="cls-3" d="M366.11,754.49c0-3,2.69-4.41,8.67-5.07,0-2.06-.52-4.27-3.17-4.27a7.41,7.41,0,0,0-4.28,1.57l-.57-.91a9,9,0,0,1,5-1.75c3.19,0,4.26,2.31,4.26,5.19v8.59h-1l-.13-1.75h-.06a8,8,0,0,1-4.77,2.09C367.88,758.18,366.11,757,366.11,754.49Zm8.67.45v-4.58c-5.52.64-7.41,1.93-7.41,4.07,0,1.93,1.31,2.67,2.86,2.67S373.12,756.36,374.78,754.94Z"/><path class="cls-3" d="M379.15,756.32l.71-.9a6.25,6.25,0,0,0,4.28,1.7c2.11,0,3.21-1.24,3.21-2.66,0-1.68-1.74-2.42-3.29-3-2-.72-4.29-1.55-4.29-3.84,0-1.94,1.54-3.58,4.34-3.58a6.38,6.38,0,0,1,3.84,1.39l-.67.89a5.17,5.17,0,0,0-3.21-1.22c-2.09,0-3,1.2-3,2.44,0,1.54,1.58,2.12,3.18,2.73,2.09.79,4.39,1.47,4.39,4.1,0,2-1.61,3.79-4.53,3.79A7.7,7.7,0,0,1,379.15,756.32Z"/><path class="cls-3" d="M396.8,754.49c0-3,2.69-4.41,8.67-5.07,0-2.06-.53-4.27-3.17-4.27a7.41,7.41,0,0,0-4.28,1.57l-.57-.91a8.85,8.85,0,0,1,5-1.75c3.18,0,4.26,2.31,4.26,5.19v8.59h-1l-.13-1.75h-.06a8,8,0,0,1-4.78,2.09C398.57,758.18,396.8,757,396.8,754.49Zm8.67.45v-4.58c-5.52.64-7.41,1.93-7.41,4.07,0,1.93,1.31,2.67,2.85,2.67S403.81,756.36,405.47,754.94Z"/><path class="cls-3" d="M411.51,756V737.7h1.24v18.51c0,.59.24.87.58.87a2.73,2.73,0,0,0,.5-.05l.21,1a3,3,0,0,1-.89.14C412.07,758.18,411.51,757.51,411.51,756Z"/><path class="cls-3" d="M418.46,754.13v-8.65h-2.1v-1l2.13-.11.15-3.9h1.05v3.9h3.9v1.08h-3.9v8.74c0,1.72.44,2.88,2.29,2.88a5,5,0,0,0,1.69-.43l.32,1a7.58,7.58,0,0,1-2.2.51C419.21,758.18,418.46,756.54,418.46,754.13Z"/><path class="cls-3" d="M425.44,751.14c0-4.38,2.85-7.08,5.86-7.08,3.19,0,5.15,2.27,5.15,6.22a5.61,5.61,0,0,1-.07,1h-9.67c.05,3.39,2,5.82,5.06,5.82a6,6,0,0,0,3.62-1.2l.51,1a7.29,7.29,0,0,1-4.24,1.32C428.22,758.18,425.44,755.54,425.44,751.14Zm9.85-.87c0-3.43-1.56-5.14-4-5.14s-4.33,1.92-4.61,5.14Z"/><path class="cls-3" d="M440.1,744.4h1l.14,2.5h.06c.91-1.65,2.22-2.84,3.82-2.84a2.84,2.84,0,0,1,1.34.28l-.28,1.12a3,3,0,0,0-1.22-.22c-1.21,0-2.64.91-3.67,3.46v9.14H440.1Z"/><path class="cls-3" d="M449,744.4h1l.13,2.08h.06c1.38-1.37,2.78-2.42,4.63-2.42,2.78,0,4.07,1.68,4.07,5.16v8.62h-1.24v-8.46c0-2.85-.9-4.21-3.07-4.21-1.6,0-2.76.85-4.39,2.53v10.14H449Z"/><path class="cls-3" d="M462.9,754.49c0-3,2.7-4.41,8.68-5.07,0-2.06-.53-4.27-3.17-4.27a7.41,7.41,0,0,0-4.28,1.57l-.58-.91a9,9,0,0,1,5-1.75c3.19,0,4.27,2.31,4.27,5.19v8.59h-1.05l-.14-1.75h-.06a7.9,7.9,0,0,1-4.77,2.09C464.67,758.18,462.9,757,462.9,754.49Zm8.68.45v-4.58c-5.52.64-7.41,1.93-7.41,4.07,0,1.93,1.3,2.67,2.85,2.67S469.92,756.36,471.58,754.94Z"/><path class="cls-3" d="M477.62,754.13v-8.65h-2.1v-1l2.13-.11.16-3.9h1.05v3.9h3.9v1.08h-3.9v8.74c0,1.72.43,2.88,2.28,2.88a5,5,0,0,0,1.69-.43l.32,1a7.51,7.51,0,0,1-2.19.51C478.38,758.18,477.62,756.54,477.62,754.13Z"/><path class="cls-3" d="M485.56,740.05a1.13,1.13,0,1,1,1.25,1h-.25A1.13,1.13,0,0,1,485.56,740.05Zm.48,4.35h1.24v13.44H486Z"/><path class="cls-3" d="M490.21,744.4h1.34l3,8.42c.44,1.3.93,2.65,1.36,3.86H496c.44-1.21.93-2.56,1.37-3.86l3-8.42h1.26l-5,13.44h-1.46Z"/><path class="cls-3" d="M503.08,754.49c0-3,2.7-4.41,8.68-5.07,0-2.06-.53-4.27-3.17-4.27a7.44,7.44,0,0,0-4.29,1.57l-.57-.91a9,9,0,0,1,5-1.75c3.19,0,4.27,2.31,4.27,5.19v8.59h-1l-.14-1.75h-.06a7.9,7.9,0,0,1-4.77,2.09C504.85,758.18,503.08,757,503.08,754.49Zm8.68.45v-4.58c-5.52.64-7.41,1.93-7.41,4.07,0,1.93,1.3,2.67,2.85,2.67S510.09,756.36,511.76,754.94Z"/><path class="cls-3" d="M516.12,756.32l.72-.9a6.21,6.21,0,0,0,4.27,1.7c2.12,0,3.21-1.24,3.21-2.66,0-1.68-1.74-2.42-3.29-3-2-.72-4.28-1.55-4.28-3.84,0-1.94,1.53-3.58,4.33-3.58a6.38,6.38,0,0,1,3.84,1.39l-.66.89a5.17,5.17,0,0,0-3.21-1.22c-2.1,0-3,1.2-3,2.44,0,1.54,1.59,2.12,3.19,2.73,2.08.79,4.39,1.47,4.39,4.1,0,2-1.62,3.79-4.53,3.79A7.77,7.77,0,0,1,516.12,756.32Z"/><path class="cls-3" d="M533.61,751.14c0-4.34,2.76-7.08,6-7.08a6.2,6.2,0,0,1,4,1.65l-.06-2.47V737.7h1.23v20.14h-1l-.14-1.74h-.06a6.35,6.35,0,0,1-4.38,2.08C535.8,758.18,533.61,755.68,533.61,751.14Zm10,3.72v-8a5.66,5.66,0,0,0-3.92-1.73c-2.68,0-4.74,2.61-4.74,6,0,3.58,1.59,5.94,4.44,5.94,1.45,0,2.76-.77,4.18-2.21Z"/><path class="cls-3" d="M548.84,751.14c0-4.38,2.85-7.08,5.86-7.08,3.19,0,5.15,2.27,5.15,6.22a5.62,5.62,0,0,1-.08,1h-9.66c0,3.39,2,5.82,5.06,5.82a6,6,0,0,0,3.61-1.2l.51,1a7.29,7.29,0,0,1-4.24,1.32C551.62,758.18,548.84,755.54,548.84,751.14Zm9.84-.87c0-3.43-1.56-5.14-4-5.14s-4.33,1.92-4.61,5.14Z"/><path class="cls-3" d="M567.42,756.32l.71-.9a6.25,6.25,0,0,0,4.28,1.7c2.11,0,3.21-1.24,3.21-2.66,0-1.68-1.74-2.42-3.29-3-2-.72-4.29-1.55-4.29-3.84,0-1.94,1.54-3.58,4.34-3.58a6.38,6.38,0,0,1,3.84,1.39l-.67.89a5.17,5.17,0,0,0-3.21-1.22c-2.09,0-3,1.2-3,2.44,0,1.54,1.58,2.12,3.18,2.73,2.09.79,4.39,1.47,4.39,4.1,0,2-1.61,3.79-4.53,3.79A7.7,7.7,0,0,1,567.42,756.32Z"/><path class="cls-3" d="M579.3,751.14c0-4.38,2.85-7.08,5.86-7.08,3.19,0,5.15,2.27,5.15,6.22a5.61,5.61,0,0,1-.07,1h-9.67c0,3.39,2,5.82,5.06,5.82a6,6,0,0,0,3.61-1.2l.51,1a7.28,7.28,0,0,1-4.23,1.32C582.08,758.18,579.3,755.54,579.3,751.14Zm9.84-.87c0-3.43-1.55-5.14-4-5.14-2.27,0-4.33,1.92-4.61,5.14Z"/><path class="cls-3" d="M594,756V737.7h1.24v18.51c0,.59.25.87.58.87a2.94,2.94,0,0,0,.51-.05l.2,1a3,3,0,0,1-.89.14C594.51,758.18,594,757.51,594,756Z"/><path class="cls-3" d="M599.46,751.14c0-4.38,2.85-7.08,5.86-7.08,3.19,0,5.15,2.27,5.15,6.22a5.61,5.61,0,0,1-.07,1h-9.67c0,3.39,2,5.82,5.06,5.82a6,6,0,0,0,3.61-1.2l.51,1a7.29,7.29,0,0,1-4.24,1.32C602.24,758.18,599.46,755.54,599.46,751.14Zm9.84-.87c0-3.43-1.55-5.14-4-5.14s-4.33,1.92-4.61,5.14Z"/><path class="cls-3" d="M613,751.14c0-4.49,2.87-7.08,6.15-7.08a5.48,5.48,0,0,1,3.93,1.66l-.73.86a4.57,4.57,0,0,0-3.18-1.43c-2.75,0-4.87,2.45-4.87,6s1.93,5.94,4.86,5.94a5.36,5.36,0,0,0,3.6-1.55l.64.87a6.39,6.39,0,0,1-4.3,1.78C615.61,758.18,613,755.59,613,751.14Z"/><path class="cls-3" d="M625.08,751.14c0-4.49,2.87-7.08,6.14-7.08a5.52,5.52,0,0,1,3.94,1.66l-.73.86a4.57,4.57,0,0,0-3.18-1.43c-2.75,0-4.87,2.45-4.87,6s1.93,5.94,4.85,5.94a5.31,5.31,0,0,0,3.6-1.55l.64.87a6.43,6.43,0,0,1-4.29,1.78C627.7,758.18,625.08,755.59,625.08,751.14Z"/><path class="cls-3" d="M638.3,740.05a1.13,1.13,0,1,1,1.25,1h-.25A1.13,1.13,0,0,1,638.3,740.05Zm.48,4.35H640v13.44h-1.24Z"/><path class="cls-3" d="M644.06,751.14c0-4.49,2.81-7.08,6-7.08s6,2.59,6,7.08-2.8,7-6,7S644.06,755.59,644.06,751.14Zm10.78,0c0-3.54-2-6-4.74-6s-4.74,2.45-4.74,6,2,5.94,4.74,5.94S654.84,754.68,654.84,751.14Zm-6.23-10,3.77-4.41.93.82-4,4.22Z"/><path class="cls-3" d="M660.17,744.4h1.05l.13,2.08h.07c1.37-1.37,2.77-2.42,4.62-2.42,2.78,0,4.07,1.68,4.07,5.16v8.62h-1.24v-8.46c0-2.85-.9-4.21-3.06-4.21-1.61,0-2.77.85-4.4,2.53v10.14h-1.24Z"/><text class="cls-7" transform="translate(357.99 679.8) scale(0.85 1)">LIS</text><text class="cls-9" transform="translate(397.37 679.8) scale(0.85 1)">T</text><text class="cls-7" transform="translate(412.6 679.8) scale(0.85 1)">ADO DE BENEFICIOS</text><path class="cls-3" d="M849.39,967c0-5.85,3.19-9.53,7.88-9.53a6.32,6.32,0,0,1,4.8,2.21l-.75.86a5.25,5.25,0,0,0-4-1.9c-4,0-6.54,3.22-6.54,8.34s2.47,8.45,6.44,8.45a5.9,5.9,0,0,0,4.66-2.28l.76.81a6.85,6.85,0,0,1-5.49,2.64C852.56,976.58,849.39,972.84,849.39,967Z"/><path class="cls-3" d="M866.23,962.79h1l.13,2.51h.06c.91-1.65,2.23-2.84,3.83-2.84a2.77,2.77,0,0,1,1.33.28l-.28,1.12a3,3,0,0,0-1.22-.23c-1.21,0-2.64.92-3.66,3.47v9.14h-1.24Z"/><path class="cls-3" d="M873.69,969.54c0-4.38,2.85-7.08,5.87-7.08,3.18,0,5.14,2.27,5.14,6.22a5.61,5.61,0,0,1-.07,1H875c0,3.39,2,5.82,5.07,5.82a6,6,0,0,0,3.61-1.2l.51.94a7.3,7.3,0,0,1-4.24,1.33C876.48,976.58,873.69,973.94,873.69,969.54Zm9.85-.87c0-3.43-1.56-5.14-4-5.14s-4.33,1.93-4.61,5.14Z"/><path class="cls-3" d="M887,972.89c0-3,2.7-4.41,8.68-5.07,0-2.06-.53-4.28-3.17-4.28a7.32,7.32,0,0,0-4.28,1.58l-.58-.91a9,9,0,0,1,5-1.75c3.19,0,4.27,2.31,4.27,5.19v8.59h-1l-.14-1.75h-.06a7.9,7.9,0,0,1-4.77,2.09C888.73,976.58,887,975.42,887,972.89Zm8.68.45v-4.58c-5.52.64-7.41,1.93-7.41,4.07,0,1.93,1.3,2.67,2.85,2.67s2.88-.74,4.52-2.16Z"/><path class="cls-3" d="M901.68,962.79h1l.14,2.51h.06c.91-1.65,2.22-2.84,3.82-2.84a2.84,2.84,0,0,1,1.34.28l-.28,1.12a3,3,0,0,0-1.22-.23c-1.21,0-2.64.92-3.67,3.47v9.14h-1.23Z"/><path class="cls-3" d="M916.15,974.44V956.1h1.24v18.51c0,.6.24.87.58.87a2.73,2.73,0,0,0,.5-.05l.21,1a3,3,0,0,1-.89.14C916.71,976.58,916.15,975.91,916.15,974.44Z"/><path class="cls-3" d="M921.82,972.89c0-3,2.7-4.41,8.68-5.07,0-2.06-.53-4.28-3.17-4.28a7.38,7.38,0,0,0-4.29,1.58l-.57-.91a9,9,0,0,1,5-1.75c3.19,0,4.27,2.31,4.27,5.19v8.59h-1l-.14-1.75h-.06a8,8,0,0,1-4.77,2.09C923.59,976.58,921.82,975.42,921.82,972.89Zm8.68.45v-4.58c-5.52.64-7.41,1.93-7.41,4.07,0,1.93,1.3,2.67,2.85,2.67S928.83,974.76,930.5,973.34Z"/><path class="cls-3" d="M934.86,974.72l.72-.9a6.21,6.21,0,0,0,4.27,1.7c2.12,0,3.21-1.24,3.21-2.66,0-1.68-1.74-2.42-3.29-3-2-.72-4.28-1.55-4.28-3.84,0-1.94,1.53-3.58,4.33-3.58a6.38,6.38,0,0,1,3.84,1.39l-.66.89a5.17,5.17,0,0,0-3.21-1.22c-2.1,0-3,1.2-3,2.44,0,1.54,1.59,2.12,3.19,2.73,2.08.79,4.39,1.47,4.39,4.1,0,2-1.62,3.79-4.53,3.79A7.64,7.64,0,0,1,934.86,974.72Z"/><path class="cls-3" d="M952.51,972.89c0-3,2.7-4.41,8.68-5.07,0-2.06-.53-4.28-3.17-4.28a7.38,7.38,0,0,0-4.29,1.58l-.57-.91a9,9,0,0,1,5-1.75c3.19,0,4.26,2.31,4.26,5.19v8.59h-1l-.14-1.75h-.06a8,8,0,0,1-4.77,2.09C954.28,976.58,952.51,975.42,952.51,972.89Zm8.68.45v-4.58c-5.53.64-7.41,1.93-7.41,4.07,0,1.93,1.3,2.67,2.85,2.67S959.52,974.76,961.19,973.34Z"/><path class="cls-3" d="M967.22,974.44V956.1h1.24v18.51c0,.6.25.87.58.87a2.94,2.94,0,0,0,.51-.05l.2,1a3,3,0,0,1-.89.14C967.78,976.58,967.22,975.91,967.22,974.44Z"/><path class="cls-3" d="M974.17,972.53v-8.65h-2.1v-1l2.13-.12.16-3.89h1v3.89h3.9v1.09h-3.9v8.74c0,1.72.43,2.88,2.28,2.88a5,5,0,0,0,1.69-.43l.33,1a7.58,7.58,0,0,1-2.2.51C974.93,976.58,974.17,974.94,974.17,972.53Z"/><path class="cls-3" d="M981.16,969.54c0-4.38,2.85-7.08,5.86-7.08,3.19,0,5.15,2.27,5.15,6.22a6.73,6.73,0,0,1-.07,1h-9.67c0,3.39,2,5.82,5.06,5.82a6,6,0,0,0,3.61-1.2l.51.94a7.3,7.3,0,0,1-4.24,1.33C983.94,976.58,981.16,973.94,981.16,969.54Zm9.84-.87c0-3.43-1.56-5.14-4-5.14s-4.33,1.93-4.61,5.14Z"/><path class="cls-3" d="M995.81,962.79h1.05l.13,2.51h.06c.91-1.65,2.23-2.84,3.83-2.84a2.77,2.77,0,0,1,1.33.28l-.28,1.12a3,3,0,0,0-1.21-.23c-1.21,0-2.65.92-3.67,3.47v9.14h-1.24Z"/><path class="cls-3" d="M1004.69,962.79h1l.14,2.09h.06c1.37-1.37,2.77-2.42,4.62-2.42,2.78,0,4.07,1.68,4.07,5.16v8.62h-1.24v-8.46c0-2.85-.9-4.21-3.06-4.21-1.6,0-2.76.85-4.4,2.53v10.14h-1.23Z"/><path class="cls-3" d="M1018.62,972.89c0-3,2.69-4.41,8.67-5.07,0-2.06-.52-4.28-3.17-4.28a7.39,7.39,0,0,0-4.28,1.58l-.57-.91a9,9,0,0,1,5-1.75c3.19,0,4.26,2.31,4.26,5.19v8.59h-1l-.13-1.75h-.06a8,8,0,0,1-4.77,2.09C1020.39,976.58,1018.62,975.42,1018.62,972.89Zm8.67.45v-4.58c-5.52.64-7.41,1.93-7.41,4.07,0,1.93,1.31,2.67,2.86,2.67S1025.63,974.76,1027.29,973.34Z"/><path class="cls-3" d="M1033.34,972.53v-8.65h-2.1v-1l2.12-.12.16-3.89h1v3.89h3.9v1.09h-3.9v8.74c0,1.72.43,2.88,2.29,2.88a4.9,4.9,0,0,0,1.68-.43l.33,1a7.58,7.58,0,0,1-2.2.51C1034.09,976.58,1033.34,974.94,1033.34,972.53Z"/><path class="cls-3" d="M1041.28,958.45a1.13,1.13,0,1,1,1.25,1h-.25A1.13,1.13,0,0,1,1041.28,958.45Zm.48,4.34H1043v13.45h-1.24Z"/><path class="cls-3" d="M1045.92,962.79h1.34l3,8.43c.43,1.3.92,2.65,1.36,3.86h.11c.44-1.21.92-2.56,1.36-3.86l3-8.43h1.27l-5,13.45H1051Z"/><path class="cls-3" d="M1058.8,972.89c0-3,2.69-4.41,8.67-5.07,0-2.06-.52-4.28-3.17-4.28a7.39,7.39,0,0,0-4.28,1.58l-.57-.91a9,9,0,0,1,5-1.75c3.19,0,4.26,2.31,4.26,5.19v8.59h-1l-.13-1.75h-.06a8,8,0,0,1-4.77,2.09C1060.57,976.58,1058.8,975.42,1058.8,972.89Zm8.67.45v-4.58c-5.52.64-7.41,1.93-7.41,4.07,0,1.93,1.31,2.67,2.86,2.67S1065.81,974.76,1067.47,973.34Z"/><path class="cls-3" d="M1071.84,974.72l.71-.9a6.25,6.25,0,0,0,4.28,1.7c2.11,0,3.21-1.24,3.21-2.66,0-1.68-1.74-2.42-3.29-3-2-.72-4.29-1.55-4.29-3.84,0-1.94,1.54-3.58,4.34-3.58a6.38,6.38,0,0,1,3.84,1.39l-.67.89a5.17,5.17,0,0,0-3.21-1.22c-2.09,0-3,1.2-3,2.44,0,1.54,1.58,2.12,3.18,2.73,2.09.79,4.39,1.47,4.39,4.1,0,2-1.61,3.79-4.53,3.79A7.7,7.7,0,0,1,1071.84,974.72Z"/><path class="cls-3" d="M1089.33,969.54c0-4.34,2.75-7.08,6-7.08a6.2,6.2,0,0,1,4.06,1.65l-.07-2.47V956.1h1.24v20.14h-1l-.13-1.74h-.06a6.37,6.37,0,0,1-4.39,2.08C1091.52,976.58,1089.33,974.08,1089.33,969.54Zm10,3.72v-8a5.66,5.66,0,0,0-3.92-1.73c-2.67,0-4.73,2.61-4.73,6,0,3.58,1.59,5.94,4.44,5.94,1.43,0,2.75-.77,4.16-2.21Z"/><path class="cls-3" d="M1104.55,969.54c0-4.38,2.85-7.08,5.86-7.08,3.19,0,5.15,2.27,5.15,6.22a5.61,5.61,0,0,1-.07,1h-9.67c0,3.39,2,5.82,5.06,5.82a6,6,0,0,0,3.62-1.2l.51.94a7.3,7.3,0,0,1-4.24,1.33C1107.33,976.58,1104.55,973.94,1104.55,969.54Zm9.85-.87c0-3.43-1.56-5.14-4-5.14s-4.32,1.93-4.6,5.14Z"/><path class="cls-3" d="M1123.13,974.72l.72-.9a6.21,6.21,0,0,0,4.27,1.7c2.12,0,3.21-1.24,3.21-2.66,0-1.68-1.74-2.42-3.29-3-2-.72-4.28-1.55-4.28-3.84,0-1.94,1.53-3.58,4.33-3.58a6.38,6.38,0,0,1,3.84,1.39l-.66.89a5.17,5.17,0,0,0-3.21-1.22c-2.1,0-3,1.2-3,2.44,0,1.54,1.59,2.12,3.19,2.73,2.08.79,4.39,1.47,4.39,4.1,0,2-1.62,3.79-4.53,3.79A7.77,7.77,0,0,1,1123.13,974.72Z"/><path class="cls-3" d="M1135,969.54c0-4.38,2.85-7.08,5.87-7.08,3.18,0,5.14,2.27,5.14,6.22a5.61,5.61,0,0,1-.07,1h-9.66c0,3.39,2,5.82,5.06,5.82a6,6,0,0,0,3.61-1.2l.51.94a7.3,7.3,0,0,1-4.24,1.33C1137.8,976.58,1135,973.94,1135,969.54Zm9.85-.87c0-3.43-1.56-5.14-4-5.14s-4.33,1.93-4.61,5.14Z"/><path class="cls-3" d="M1149.67,974.44V956.1h1.24v18.51c0,.6.24.87.58.87a2.73,2.73,0,0,0,.5-.05l.21,1a3,3,0,0,1-.89.14C1150.23,976.58,1149.67,975.91,1149.67,974.44Z"/><path class="cls-3" d="M1155.17,969.54c0-4.38,2.85-7.08,5.87-7.08,3.18,0,5.14,2.27,5.14,6.22a5.61,5.61,0,0,1-.07,1h-9.66c0,3.39,2,5.82,5.06,5.82a6,6,0,0,0,3.61-1.2l.51.94a7.3,7.3,0,0,1-4.24,1.33C1158,976.58,1155.17,973.94,1155.17,969.54Zm9.85-.87c0-3.43-1.56-5.14-4-5.14s-4.33,1.93-4.61,5.14Z"/><path class="cls-3" d="M1168.7,969.54c0-4.49,2.87-7.08,6.14-7.08a5.52,5.52,0,0,1,3.94,1.66l-.73.86a4.57,4.57,0,0,0-3.18-1.43c-2.75,0-4.87,2.45-4.87,6s1.93,5.94,4.85,5.94a5.31,5.31,0,0,0,3.6-1.55l.64.87a6.43,6.43,0,0,1-4.29,1.78C1171.32,976.58,1168.7,974,1168.7,969.54Z"/><path class="cls-3" d="M1180.79,969.54c0-4.49,2.88-7.08,6.15-7.08a5.48,5.48,0,0,1,3.93,1.66l-.73.86a4.57,4.57,0,0,0-3.18-1.43c-2.75,0-4.87,2.45-4.87,6s1.93,5.94,4.86,5.94a5.36,5.36,0,0,0,3.6-1.55l.64.87a6.39,6.39,0,0,1-4.3,1.78C1183.42,976.58,1180.79,974,1180.79,969.54Z"/><path class="cls-3" d="M1194,958.45a1.13,1.13,0,1,1,1.13,1.13A1.15,1.15,0,0,1,1194,958.45Zm.49,4.34h1.23v13.45h-1.23Z"/><path class="cls-3" d="M1199.78,969.54c0-4.49,2.8-7.08,6-7.08s6,2.59,6,7.08-2.81,7-6,7S1199.78,974,1199.78,969.54Zm10.77,0c0-3.54-2-6-4.74-6s-4.73,2.45-4.73,6,2,5.94,4.73,5.94S1210.55,973.08,1210.55,969.54Zm-6.23-10,3.77-4.41.93.82-4,4.22Z"/><path class="cls-3" d="M1215.89,962.79h1l.14,2.09h.06c1.37-1.37,2.77-2.42,4.63-2.42,2.77,0,4.06,1.68,4.06,5.16v8.62h-1.24v-8.46c0-2.85-.9-4.21-3.06-4.21-1.6,0-2.76.85-4.4,2.53v10.14h-1.23Z"/><path class="cls-3" d="M848.52,1015.68l.28-1.07a3.17,3.17,0,0,0,1.1.22c1.64,0,2.76-1.52,3.44-3.57l.37-1.17-5.52-13.69h1.34l3.24,8.45c.44,1.13,1,2.57,1.46,3.77h.11c.44-1.19.87-2.63,1.25-3.77l2.87-8.45h1.26l-5.31,15.13c-.75,2.24-2.11,4.43-4.52,4.43A3.39,3.39,0,0,1,848.52,1015.68Z"/><path class="cls-3" d="M867.28,1006.49c0-3,2.69-4.41,8.68-5.07,0-2.06-.53-4.27-3.17-4.27a7.44,7.44,0,0,0-4.29,1.57l-.57-.91a9,9,0,0,1,5-1.75c3.19,0,4.26,2.31,4.26,5.19v8.59h-1l-.14-1.75h0a8,8,0,0,1-4.77,2.09C869.05,1010.18,867.28,1009,867.28,1006.49Zm8.68.45v-4.58c-5.53.64-7.41,1.93-7.41,4.07,0,1.93,1.3,2.67,2.85,2.67s2.89-.74,4.6-2.16Z"/><path class="cls-3" d="M880.32,1008.32l.71-.9a6.25,6.25,0,0,0,4.28,1.7c2.11,0,3.21-1.24,3.21-2.66,0-1.68-1.74-2.42-3.29-3-2-.72-4.29-1.55-4.29-3.84,0-1.94,1.54-3.58,4.34-3.58a6.38,6.38,0,0,1,3.84,1.39l-.67.89a5.17,5.17,0,0,0-3.2-1.22c-2.1,0-3,1.2-3,2.44,0,1.54,1.58,2.12,3.19,2.73,2.08.79,4.39,1.47,4.39,4.1,0,2-1.62,3.79-4.53,3.79A7.64,7.64,0,0,1,880.32,1008.32Z"/><path class="cls-3" d="M892.2,1003.14c0-4.49,2.81-7.08,6-7.08s6,2.59,6,7.08-2.8,7-6,7S892.2,1007.59,892.2,1003.14Zm10.78,0c0-3.54-2-6-4.74-6s-4.74,2.45-4.74,6,2,5.94,4.74,5.94,4.76-2.4,4.76-5.94Z"/><path class="cls-3" d="M907.18,1003.14c0-4.49,2.87-7.08,6.14-7.08a5.52,5.52,0,0,1,3.94,1.66l-.73.86a4.57,4.57,0,0,0-3.18-1.43c-2.75,0-4.87,2.45-4.87,6s1.93,5.94,4.85,5.94a5.36,5.36,0,0,0,3.61-1.55l.63.87a6.38,6.38,0,0,1-4.29,1.78C909.81,1010.18,907.18,1007.59,907.18,1003.14Z"/><path class="cls-3" d="M920.4,992.05a1.13,1.13,0,1,1,1.25,1h-.25A1.13,1.13,0,0,1,920.4,992.05Zm.48,4.35h1.24v13.44h-1.24Z"/><path class="cls-3" d="M926.33,1006.49c0-3,2.69-4.41,8.68-5.07,0-2.06-.53-4.27-3.17-4.27a7.44,7.44,0,0,0-4.29,1.57l-.57-.91a9,9,0,0,1,5-1.75c3.19,0,4.26,2.31,4.26,5.19v8.59h-1l-.14-1.75H935a8,8,0,0,1-4.77,2.09C928.1,1010.18,926.33,1009,926.33,1006.49Zm8.68.45v-4.58c-5.53.64-7.41,1.93-7.41,4.07,0,1.93,1.3,2.67,2.85,2.67s2.89-.74,4.55-2.16Z"/><path class="cls-3" d="M941,996.4h1l.13,2.5h.07c.91-1.65,2.22-2.84,3.82-2.84a2.77,2.77,0,0,1,1.33.28l-.28,1.12a3,3,0,0,0-1.21-.22c-1.21,0-2.65.91-3.67,3.46v9.14H941Z"/><path class="cls-3" d="M961.12,1008V989.7h1.24v18.51c0,.59.24.87.58.87a2.73,2.73,0,0,0,.5-.05l.21,1a3,3,0,0,1-.89.14C961.68,1010.18,961.12,1009.51,961.12,1008Z"/><path class="cls-3" d="M966.62,1003.14c0-4.49,2.81-7.08,6-7.08s6,2.59,6,7.08-2.81,7-6,7S966.62,1007.59,966.62,1003.14Zm10.78,0c0-3.54-2-6-4.74-6s-4.74,2.45-4.74,6,2,5.94,4.74,5.94S977.4,1006.68,977.4,1003.14Z"/><path class="cls-3" d="M981,1008.32l.72-.9a6.21,6.21,0,0,0,4.27,1.7c2.12,0,3.22-1.24,3.22-2.66,0-1.68-1.75-2.42-3.3-3-2-.72-4.28-1.55-4.28-3.84,0-1.94,1.53-3.58,4.33-3.58a6.25,6.25,0,0,1,3.84,1.39l-.66.89a5.17,5.17,0,0,0-3.21-1.22c-2.1,0-3,1.2-3,2.44,0,1.54,1.59,2.12,3.19,2.73,2.08.79,4.39,1.47,4.39,4.1,0,2-1.62,3.79-4.53,3.79A7.77,7.77,0,0,1,981,1008.32Z"/><path class="cls-3" d="M998.51,1003.14c0-4.49,2.88-7.08,6.15-7.08a5.48,5.48,0,0,1,3.93,1.66l-.72.86a4.57,4.57,0,0,0-3.18-1.43c-2.75,0-4.88,2.45-4.88,6s1.94,5.94,4.86,5.94a5.31,5.31,0,0,0,3.6-1.55l.64.87a6.39,6.39,0,0,1-4.3,1.78C1001.14,1010.18,998.51,1007.59,998.51,1003.14Z"/><path class="cls-3" d="M1010.61,1003.14c0-4.49,2.81-7.08,6-7.08s6,2.59,6,7.08-2.8,7-6,7S1010.61,1007.59,1010.61,1003.14Zm10.78,0c0-3.54-2-6-4.74-6s-4.74,2.45-4.74,6,2,5.94,4.74,5.94S1021.39,1006.68,1021.39,1003.14Z"/><path class="cls-3" d="M1025,1008.32l.72-.9a6.21,6.21,0,0,0,4.27,1.7c2.12,0,3.21-1.24,3.21-2.66,0-1.68-1.74-2.42-3.29-3-2-.72-4.28-1.55-4.28-3.84,0-1.94,1.53-3.58,4.33-3.58a6.38,6.38,0,0,1,3.84,1.39l-.66.89a5.17,5.17,0,0,0-3.21-1.22c-2.1,0-3,1.2-3,2.44,0,1.54,1.59,2.12,3.19,2.73,2.08.79,4.39,1.47,4.39,4.1,0,2-1.62,3.79-4.53,3.79A7.64,7.64,0,0,1,1025,1008.32Z"/><path class="cls-3" d="M1037.79,1006.13v-8.65h-2.1v-1l2.13-.11.15-3.9h1v3.9h3.89v1.08H1039v8.74c0,1.72.43,2.88,2.28,2.88a5,5,0,0,0,1.69-.43l.32,1a7.51,7.51,0,0,1-2.19.51C1038.54,1010.18,1037.79,1008.54,1037.79,1006.13Z"/><path class="cls-3" d="M1044.77,1003.14c0-4.49,2.81-7.08,6-7.08s6,2.59,6,7.08-2.8,7-6,7S1044.77,1007.59,1044.77,1003.14Zm10.78,0c0-3.54-2-6-4.74-6s-4.74,2.45-4.74,6,2,5.94,4.74,5.94S1055.55,1006.68,1055.55,1003.14Z"/><path class="cls-3" d="M1059.18,1008.32l.72-.9a6.21,6.21,0,0,0,4.27,1.7c2.12,0,3.21-1.24,3.21-2.66,0-1.68-1.74-2.42-3.29-3-2-.72-4.28-1.55-4.28-3.84,0-1.94,1.53-3.58,4.33-3.58a6.38,6.38,0,0,1,3.84,1.39l-.66.89a5.17,5.17,0,0,0-3.21-1.22c-2.1,0-3,1.2-3,2.44,0,1.54,1.59,2.12,3.19,2.73,2.08.79,4.39,1.47,4.39,4.1,0,2-1.62,3.79-4.53,3.79A7.64,7.64,0,0,1,1059.18,1008.32Z"/><path class="cls-3" d="M1075.87,1015.68l.29-1.07a3.17,3.17,0,0,0,1.1.22c1.64,0,2.76-1.52,3.44-3.57l.37-1.17-5.52-13.69h1.34l3.24,8.45c.44,1.13,1,2.57,1.46,3.77h.11c.43-1.19.87-2.63,1.25-3.77l2.86-8.45h1.27l-5.31,15.13c-.75,2.24-2.11,4.43-4.52,4.43A3.48,3.48,0,0,1,1075.87,1015.68Z"/><path class="cls-3" d="M1096.83,1008.48h-.06l-.14,1.36h-1V989.7h1.24v5.84l-.06,2.63a7.63,7.63,0,0,1,4.63-2.11c3.6,0,5.38,2.7,5.38,6.86,0,4.56-2.75,7.26-5.92,7.26A6.82,6.82,0,0,1,1096.83,1008.48Zm8.66-5.56c0-3.3-1.17-5.76-4.28-5.76-1.33,0-2.8.78-4.37,2.21v8a6.39,6.39,0,0,0,4,1.73C1103.53,1009.08,1105.49,1006.57,1105.49,1002.92Z"/><path class="cls-3" d="M1109.65,1003.14c0-4.38,2.85-7.08,5.86-7.08,3.19,0,5.15,2.27,5.15,6.22a6.73,6.73,0,0,1-.07,1h-9.67c0,3.39,2,5.82,5.06,5.82a6,6,0,0,0,3.61-1.2l.51,1a7.29,7.29,0,0,1-4.24,1.32C1112.43,1010.18,1109.65,1007.54,1109.65,1003.14Zm9.84-.87c0-3.43-1.56-5.14-4-5.14s-4.33,1.92-4.61,5.14Z"/><path class="cls-3" d="M1124.3,996.4h1l.13,2.08h.06c1.38-1.37,2.78-2.42,4.63-2.42,2.78,0,4.07,1.68,4.07,5.16v8.62H1133v-8.46c0-2.85-.9-4.21-3.07-4.21-1.6,0-2.76.85-4.39,2.53v10.14h-1.24Z"/><path class="cls-3" d="M1138.07,1003.14c0-4.38,2.85-7.08,5.86-7.08,3.19,0,5.15,2.27,5.15,6.22a6.73,6.73,0,0,1-.07,1h-9.67c0,3.39,2,5.82,5.06,5.82a6,6,0,0,0,3.61-1.2l.51,1a7.29,7.29,0,0,1-4.24,1.32C1140.85,1010.18,1138.07,1007.54,1138.07,1003.14Zm9.84-.87c0-3.43-1.56-5.14-4-5.14s-4.33,1.92-4.61,5.14Z"/><path class="cls-3" d="M1151,996.51l1.88-.11h4.31v1.08H1151Zm1.85-3.11c0-2.66,1.2-4,3.32-4a5,5,0,0,1,2,.46l-.33,1a3.55,3.55,0,0,0-1.6-.38c-1.45,0-2.11,1.1-2.11,3v16.35h-1.24Z"/><path class="cls-3" d="M1159.58,992.05a1.13,1.13,0,1,1,1.25,1h-.25A1.13,1.13,0,0,1,1159.58,992.05Zm.48,4.35h1.23v13.44h-1.23Z"/><path class="cls-3" d="M1165.34,1003.14c0-4.49,2.87-7.08,6.14-7.08a5.52,5.52,0,0,1,3.94,1.66l-.73.86a4.57,4.57,0,0,0-3.18-1.43c-2.75,0-4.87,2.45-4.87,6s1.93,5.94,4.85,5.94a5.31,5.31,0,0,0,3.6-1.55l.64.87a6.43,6.43,0,0,1-4.29,1.78C1168,1010.18,1165.34,1007.59,1165.34,1003.14Z"/><path class="cls-3" d="M1178.56,992.05a1.13,1.13,0,1,1,1.25,1h-.25A1.13,1.13,0,0,1,1178.56,992.05Zm.48,4.35h1.24v13.44H1179Z"/><path class="cls-3" d="M1184.32,1003.14c0-4.49,2.81-7.08,6-7.08s6,2.59,6,7.08-2.8,7-6,7S1184.32,1007.59,1184.32,1003.14Zm10.77,0c0-3.54-2-6-4.73-6s-4.74,2.45-4.74,6,2,5.94,4.74,5.94S1195.09,1006.68,1195.09,1003.14Z"/><path class="cls-3" d="M1198.73,1008.32l.72-.9a6.21,6.21,0,0,0,4.27,1.7c2.12,0,3.21-1.24,3.21-2.66,0-1.68-1.74-2.42-3.29-3-2-.72-4.28-1.55-4.28-3.84,0-1.94,1.53-3.58,4.33-3.58a6.38,6.38,0,0,1,3.84,1.39l-.66.89a5.17,5.17,0,0,0-3.21-1.22c-2.1,0-3.05,1.2-3.05,2.44,0,1.54,1.59,2.12,3.19,2.73,2.08.79,4.39,1.47,4.39,4.1,0,2-1.62,3.79-4.53,3.79A7.69,7.69,0,0,1,1198.73,1008.32Z"/><text class="cls-7" transform="translate(847.99 931.8) scale(0.85 1)">CREAR A</text><text class="cls-11" transform="translate(959.18 931.8) scale(0.85 1)">L</text><text class="cls-7" transform="translate(971.19 931.8) scale(0.85 1)">TER</text><text class="cls-12" transform="translate(1020.68 931.8) scale(0.85 1)">N</text><text class="cls-13" transform="translate(1040.12 931.8) scale(0.85 1)">A</text><text class="cls-7" transform="translate(1056.83 931.8) scale(0.85 1)">TI</text><text class="cls-14" transform="translate(1081.58 931.8) scale(0.85 1)">V</text><text class="cls-7" transform="translate(1098.37 931.8) scale(0.85 1)">AS</text><g class="cls-15"><use width="63.9" height="63.94" transform="translate(645 373.04) scale(1.47)" xlink:href="#Tareas"/></g><g class="cls-16"><use width="63.9" height="63.94" transform="translate(161 639.42) scale(1.47)" xlink:href="#Tareas"/></g><use width="64" height="64" transform="translate(645 890) scale(1.55)" xlink:href="#Más"/></svg>