<svg id="Capa_1" data-name="Capa 1" xmlns="http://www.w3.org/2000/svg" xmlns:xlink="http://www.w3.org/1999/xlink" viewBox="0 0 3405 2057"><defs><style>.cls-1{fill:#fff;}.cls-2{clip-path:url(#clip-path);}.cls-10,.cls-11,.cls-12,.cls-13,.cls-14,.cls-15,.cls-16,.cls-17,.cls-18,.cls-19,.cls-20,.cls-3,.cls-4,.cls-5,.cls-6,.cls-7,.cls-8{fill-rule:evenodd;}.cls-3{fill:url(#GradientFill_1);}.cls-4{fill:url(#GradientFill_2);}.cls-5{fill:url(#GradientFill_1-2);}.cls-6{fill:url(#GradientFill_1-3);}.cls-7{fill:#b1cede;}.cls-8{fill:#1d74a8;}.cls-9{fill:url(#GradientFill_3);}.cls-10{fill:#294274;}.cls-11{fill:#195888;}.cls-12{fill:#0083b5;}.cls-13{fill:#006e9e;}.cls-14{fill:#0078a8;}.cls-15{fill:#3597c0;}.cls-16{fill:#0b5d9a;}.cls-17{fill:#1c4a82;}.cls-18{fill:#005a9b;}.cls-19{fill:url(#GradientFill_4);}.cls-20{fill:url(#GradientFill_4-2);}</style><clipPath id="clip-path"><rect class="cls-1" x="-33.69" y="-33.68" width="3478.56" height="2115.78"/></clipPath><linearGradient id="GradientFill_1" x1="1145.22" y1="1635.06" x2="1276.18" y2="568.51" gradientUnits="userSpaceOnUse"><stop offset="0" stop-color="#dff1fc"/><stop offset="1" stop-color="#fff"/></linearGradient><linearGradient id="GradientFill_2" x1="2612.73" y1="1715.61" x2="2612.73" y2="433.76" gradientUnits="userSpaceOnUse"><stop offset="0" stop-color="#eef7fd"/><stop offset="1" stop-color="#fff"/></linearGradient><linearGradient id="GradientFill_1-2" x1="2837.67" y1="1407.89" x2="2810.89" y2="896.96" xlink:href="#GradientFill_1"/><linearGradient id="GradientFill_1-3" x1="813.62" y1="1791.77" x2="813.62" y2="859.78" xlink:href="#GradientFill_1"/><linearGradient id="GradientFill_3" x1="1705.59" y1="1782.76" x2="1705.59" y2="1415.82" gradientUnits="userSpaceOnUse"><stop offset="0" stop-color="#b1cede"/><stop offset="1" stop-color="#fff"/></linearGradient><linearGradient id="GradientFill_4" x1="2575.99" y1="929.45" x2="2575.99" y2="1203.98" gradientUnits="userSpaceOnUse"><stop offset="0" stop-color="#b1cede"/><stop offset="1" stop-color="#3597c0"/></linearGradient><linearGradient id="GradientFill_4-2" x1="2948.63" y1="299.78" x2="2948.63" y2="505.08" xlink:href="#GradientFill_4"/></defs><title>FondoRegistro</title><rect class="cls-1" x="-33.69" y="-33.68" width="3478.56" height="2115.78"/><g class="cls-2"><path class="cls-3" d="M-33.69,509.92a175.25,175.25,0,0,1,33.42-3.2c95,0,172.35,75.95,174.61,170.47h.06a93.79,93.79,0,0,1,89.71,66.53,221.5,221.5,0,0,1,333.58-81.35,115.05,115.05,0,0,1,215.07-9,115.06,115.06,0,0,1,162.56,104.8,115.89,115.89,0,0,1-1.8,20.38,187.62,187.62,0,0,1,217.07,89.34,224.88,224.88,0,0,1,146.85-54.32c96.37,0,178.65,60.44,211,145.47a93.8,93.8,0,0,1,91.55,6.16c3.18-84.26,72.49-151.63,157.5-151.63,85.16,0,154.56,67.6,157.52,152.06a106.58,106.58,0,0,1,143.82,115,127.89,127.89,0,0,1,153.37,142.13c90.3,1.66,163,75.43,163,166.16,0,5-.23,9.86-.65,14.71,44.7,18.25,68.82,37.64,68.82,57.74,0,28.65-48.92,55.85-136.78,80.38H-33.69Z"/><path class="cls-4" d="M2139.66,1127.24a70,70,0,0,1,36.09,10,102.07,102.07,0,0,1,175.49-83.5,59.85,59.85,0,0,1,71.11-52.09A119.8,119.8,0,0,1,2526.4,838.73a81,81,0,1,1,155.39-31.94c0,.65,0,1.29,0,1.93A112.65,112.65,0,0,1,2855.48,879a137.28,137.28,0,0,1,152.2-29.13,84.53,84.53,0,0,1,107.2-99.28,140.82,140.82,0,0,1,240.8-127.23,81,81,0,0,1,89.19-35.87V1541.7H1828.92a84.53,84.53,0,0,1,46.67-160.26,151.44,151.44,0,0,1,194-176.59,70.49,70.49,0,0,1,70-77.61Z"/><path class="cls-5" d="M2319.19,1277c1.59,0,3.16,0,4.72.11a132.83,132.83,0,0,1-1.2-17.72,130.25,130.25,0,0,1,245.53-60.68,88.06,88.06,0,0,1,99.81,25,81,81,0,0,1,90.54-72.89,171.84,171.84,0,0,1-20.48-81.6c0-95.28,77.24-172.55,172.49-172.55A172.6,172.6,0,0,1,3075.67,1019a70.42,70.42,0,0,1,106,60.78,71.1,71.1,0,0,1-1.31,13.53,105.68,105.68,0,0,1,131.17,52.29,137.35,137.35,0,0,1,133.34-108.07V1541.7H2505c-105.85-14.32-180.46-31.32-213.09-49.85A109.18,109.18,0,0,1,2319.19,1277Z"/><path class="cls-6" d="M-33.69,1057q4.12.18,8.29.78a84.44,84.44,0,0,1,24,7.19,140.81,140.81,0,0,1,256.5-91.5,81,81,0,0,1,142.8,58.58,116.21,116.21,0,0,1,127.65,4.31c19.76-118.64,130.85-200.3,250.44-183A221.6,221.6,0,0,1,945,978.64a91.53,91.53,0,0,1,130.22,92.63,109.17,109.17,0,0,1,147.38,139.94,361.51,361.51,0,0,1,128.33-4.36c172.5,24.92,299,167.57,310,334.85H-33.69Z"/></g><path class="cls-7" d="M-33.69,1327.85c28.53.7,62.25,6.11,104.79,18.88,315.41,94.68,696.83-149.4,957.27-27,344.1,161.66,661.63,70.59,1005.14-5.44,123.19-27.27,271.16-37.4,415.49,27.07,236.57,105.68,151.05-87.37,305.51,24.34,131.56,95.15,421.35-77.83,580.47-18.93,33.79,12.51,70.94,22.33,109.89,30.83v212c-201,16.24-402.29,23-425.58,24.91-680.06,55.13-2157.88,147.92-3053,52.45Z"/><path class="cls-8" d="M3444.87,1428.35c-76.87,9.66-151.56,31.15-206.63,47.45-155.4,46-236.32-43-361.53-54.26-219.76-19.76-302.42,36.31-463.35,39.18-124.23,2.22-141.65-117.38-285.15-84.39-180.74,41.55-237.22,93.73-458.26,108.51-370,24.74-314.23-148.17-570.29-66.31-436.83,139.64-465.83-220-875.8-33.16-80.93,36.9-167.72,19-257.55-1.38v303.12c935.26,64.82,2789.34,118.56,3333,66,50.51-4.88,99.15-9.78,145.53-14.81Z"/><rect class="cls-9" x="-33.69" y="1499.13" width="3478.56" height="582.98"/><path class="cls-7" d="M3444.87,1532.06c-76.87-4.5-151.56-14.49-206.63-22.08-155.4-21.4-236.32,20-361.53,25.25-219.76,9.19-302.42-16.9-463.35-18.23-124.23-1-141.65,54.61-285.15,39.26-180.74-19.33-237.22-43.61-458.26-50.48-370-11.51-314.23,68.94-570.29,30.85-436.83-65-465.83,102.38-875.8,15.43-80.93-17.17-167.72-8.86-257.55.64v-53.57H3444.87Z"/><path class="cls-10" d="M3444.87,1618.24c-54.34,4.07-214-102.79-245.89-105-120.3-8.26-210.55,81.84-333.11,44.26-105.79-32.43-154.59,10-235.75,22.13-183.66,27.39-107-18.9-276.74,44.26-97,36.1-282.38,60-421.9,75.4H3444.87Z"/><path class="cls-10" d="M3323.43,1685.29c-37.07,21.61-63.72,21.12-35.59-27.21,18.36-31.54,115.65-101.72,44.69-79.89-23.45,7.21-113.84,65-46,9.47,36-29.44,52.89-77.39,77.18-111,18.11-25.08-52.47,11.18-70.41,14.89-3.93.82,76.38-118.26,90.72-182.8,7.83-35.21-20.29,20.41-29.79,31.14-22.65,25.61,31.63-95.72,39.27-132.7,16.28-78.84,37.92-134.85,37.92-24.37,0,22.59,5.77,44.63,13.49,66.24v396.76C3397.58,1645.44,3364.9,1661.11,3323.43,1685.29Z"/><path class="cls-10" d="M3144.19,1596.23c-22.3,7.56-36.58,4.38-16.16-18.53,13.32-14.94,73.3-42,32.76-38.06-13.4,1.31-68.31,22.47-25.79.06,22.57-11.9,36.9-35.83,53.65-51.26,12.47-11.5-29.44.27-39.49.3-2.2,0,54-55.23,68.77-88.36,8.06-18.08-13.14,8.75-19.42,13.49-15,11.29,27.48-48,35.63-67.06,17.37-40.61,35.13-68.36,23.05-9-5.65,27.75,5.23,57.27,7.88,84.25,3.3,33.58-8.85-4.6-12.62-16.21-.61-1.87,5.85,46.71,14.3,82.51,7.85,33.28.25,21.76-11.37,0-10.7-20.08,22.74,86.8,31,104.87,1.29,2.81-18.62-15.13-23.83-20.77-63.41-68.82,54.13,101.9,17.86,65-16-16.24-29-37.54-51.55-45.09C3195.46,1581.22,3173.82,1586.18,3144.19,1596.23Z"/><path class="cls-10" d="M2690,1587.2c-16.66,9.71-28.64,9.49-16-12.23,8.25-14.18,52-45.72,20.08-35.91-10.54,3.24-51.16,29.19-20.69,4.26,16.17-13.24,23.77-34.79,34.69-49.91,8.14-11.27-23.58,5-31.65,6.7-1.76.36,34.33-53.16,40.78-82.17,3.52-15.82-9.12,9.18-13.39,14-10.18,11.51,14.22-43,17.65-59.64,7.32-35.44,17-60.62,17-11,0,23.2,13.56,45.12,20.09,66.34,8.12,26.42-7.86-2.24-12.79-11-.79-1.4,12.33,36.54,25,63.9,11.74,25.43,3.75,17.42-9.13,1.83-11.87-14.37,32.43,66,42,79.12,1.49,2-17.41-9.1-22.52-12.78-62.14-44.89,60.1,73,25,49.29-15.49-10.42-29.45-25.39-48.74-27.77C2728.73,1566.77,2712.17,1574.29,2690,1587.2Z"/><path class="cls-10" d="M2560.26,1638.43c-18.71,10.91-32.16,10.66-18-13.73,9.26-15.92,58.37-51.35,22.55-40.33-11.84,3.64-57.46,32.78-23.24,4.78,18.17-14.86,26.7-39.06,39-56,9.14-12.66-26.48,5.64-35.54,7.52-2,.41,38.55-59.7,45.79-92.28,3.95-17.77-10.24,10.31-15,15.72-11.44,12.93,16-48.31,19.82-67,8.22-39.79,19.14-68.07,19.14-12.3,0,26,15.22,50.67,22.55,74.5,9.13,29.67-8.82-2.52-14.35-12.3-.89-1.57,13.84,41,28,71.76,13.18,28.56,4.22,19.57-10.25,2-13.33-16.13,36.42,74.09,47.16,88.86,1.67,2.3-19.56-10.22-25.29-14.35-69.79-50.41,67.48,81.93,28,55.36-17.39-11.71-33.06-28.51-54.74-31.2C2603.73,1615.5,2585.13,1623.94,2560.26,1638.43Z"/><path class="cls-10" d="M2800.55,1614c-13.11,7.65-22.53,7.47-12.58-9.62,6.49-11.15,40.89-36,15.8-28.25-8.3,2.55-40.26,23-16.28,3.35,12.72-10.41,18.7-27.37,27.29-39.27,6.41-8.86-18.55,4-24.9,5.27-1.39.29,27-41.82,32.08-64.64,2.77-12.46-7.17,7.21-10.53,11-8,9.06,11.19-33.85,13.89-46.93,5.75-27.88,13.4-47.69,13.4-8.62,0,18.25,10.67,35.5,15.81,52.2,6.39,20.78-6.19-1.77-10.06-8.62-.62-1.1,9.7,28.75,19.63,50.28,9.24,20,3,13.7-7.18,1.43-9.34-11.3,25.52,51.91,33,62.26,1.17,1.61-13.7-7.16-17.72-10.06-48.89-35.31,47.28,57.41,19.64,38.79-12.19-8.21-23.17-20-38.35-21.86C2831,1597.91,2818,1603.83,2800.55,1614Z"/><path class="cls-11" d="M3117.21,460.07A113.3,113.3,0,1,0,3302.52,590.3a153.4,153.4,0,0,0,142.35,20.62V-12.9a140.21,140.21,0,0,0-110.4,79.15A100,100,0,0,0,3193.3,177.47a168.18,168.18,0,0,0-52.87,134.11,80,80,0,0,0-23.22,148.49Z"/><path class="cls-12" d="M3261.42-33.68a139.2,139.2,0,0,0-34,74.3A110.7,110.7,0,0,0,3141,142.2a112.22,112.22,0,0,0,.1,14.45,80,80,0,0,0-56,149.6A127.95,127.95,0,0,0,3253.64,495.4a102.64,102.64,0,0,0,191.23-17.48V-33.68Z"/><path class="cls-11" d="M2609,6.25l-2-.14a146.61,146.61,0,0,0-23.22,292.23,101.37,101.37,0,0,0,70.72,142,101.31,101.31,0,0,0,133.25,138.07A40,40,0,0,0,2857.32,601a85.3,85.3,0,0,0,157.83-39.69l.09-2a64,64,0,0,0,84-87.74,147.69,147.69,0,0,0,18.5,2.26,145.28,145.28,0,0,0,34.14-288,83.68,83.68,0,0,0-6.38-37,89.32,89.32,0,0,0-54.93-170q-1.59-6.34-3.73-12.46h-458A148.34,148.34,0,0,0,2609,6.25Z"/><path class="cls-13" d="M2642.36-3.85a141.76,141.76,0,0,0-140.49,226.5,112.61,112.61,0,0,0,43,161.86,160.6,160.6,0,0,0,202.92,77.23,154.28,154.28,0,0,0,284.74-92.88,141.79,141.79,0,0,0,16.68-249.92,121,121,0,0,0-49-152.62H2876.84a122.18,122.18,0,0,0-20.18,15,116.74,116.74,0,0,0-9.18-15H2657.86A116,116,0,0,0,2642.36-3.85Z"/><path class="cls-14" d="M2901.11-33.68A116.31,116.31,0,0,1,2974.8,72.56a91.85,91.85,0,0,1,60,104,67.21,67.21,0,0,1,16.36-1.06,66.4,66.4,0,0,1,15.42,129.83,106.23,106.23,0,0,1-157.29,139.72,85.22,85.22,0,0,1-157-44.27,83.07,83.07,0,0,1-101.35-72.07A104,104,0,0,1,2546,154.89a91.93,91.93,0,0,1,38.33-104.37,115.79,115.79,0,0,1-1.13-24.22,114.57,114.57,0,0,1,21.08-60Z"/><path class="cls-14" d="M3185.7,339.38c-.19,1.43-.32,2.87-.41,4.33a61.31,61.31,0,0,0,106.19,45.22,88,88,0,0,0,143.18,10.74,54.77,54.77,0,0,0,10.21,14.45V-33.68h-124.3a144.49,144.49,0,0,0-26.63,24.23,72.21,72.21,0,0,0-11.87-1.67,73.34,73.34,0,0,0-74.58,93.93,74.75,74.75,0,0,0-21.7,70.06,114.62,114.62,0,0,0-.09,186.51Z"/><path class="cls-11" d="M2821.27-33.68A113.13,113.13,0,0,0,2871.18,174a78.21,78.21,0,0,0,54.57,109.55,78.19,78.19,0,0,0,102.83,106.56,30.86,30.86,0,0,0,53.74,17.43,65.83,65.83,0,0,0,121.8-30.63c0-.52.05-1,.07-1.55a49.37,49.37,0,0,0,64.8-67.7,113.29,113.29,0,0,0,14.27,1.74,112.11,112.11,0,0,0,26.35-222.27,64.61,64.61,0,0,0-4.92-28.56A68.94,68.94,0,0,0,3352-2.88a68.79,68.79,0,0,0-5.29-30.8Z"/><path class="cls-13" d="M2885-33.68a109.36,109.36,0,0,0-13,149.29,86.89,86.89,0,0,0,33.21,124.9,123.92,123.92,0,0,0,156.59,59.6,119.08,119.08,0,0,0,219.74-71.68,109.42,109.42,0,0,0,12.87-192.85,93.07,93.07,0,0,0,7.7-32.1,93,93,0,0,0-5.38-37.16Z"/><path class="cls-14" d="M3229.85-33.68a89.19,89.19,0,0,1,7.07,33.46A70.91,70.91,0,0,1,3283.21,80a51.25,51.25,0,0,1,24.53,99.38,82,82,0,0,1-121.39,107.81,65.76,65.76,0,0,1-121.15-34.16A64.08,64.08,0,0,1,2987,197.45a80.27,80.27,0,0,1-81-134.14,70.91,70.91,0,0,1,29.58-80.54,89.53,89.53,0,0,1-1-16.45Z"/><polygon class="cls-10" points="3159.91 1774.21 3142.72 58.05 3101.14 54.73 3010.59 1774.21 3159.91 1774.21"/><path class="cls-10" d="M3092.67,946.29,2978.75,833l-24.42,61.15L3072,1063.28S3095.12,944.11,3092.67,946.29Z"/><polygon class="cls-10" points="3097.09 601.47 3444.87 296.21 3444.87 338.07 3110.86 683.39 3097.09 601.47"/><polygon class="cls-10" points="3092.77 397.26 2801.06 153.13 2781.11 177.46 3090.9 469 3092.77 397.26"/><polygon class="cls-10" points="2925.05 292.46 2882.85 141.67 2904.04 135.95 2961.33 306.17 2925.05 292.46"/><polygon class="cls-10" points="3335.3 411.4 3374.21 260.7 3357.91 262.07 3291.43 448.24 3335.3 411.4"/><path class="cls-14" d="M3255.2,206.57a110.35,110.35,0,0,1-150.06.8,87.29,87.29,0,0,1-110.83-26.67,63,63,0,0,1-109.44-62.28,100.37,100.37,0,0,1-56.22-30.36,100.91,100.91,0,0,1-12.41-121.74h575.15c.52.53,1,1.07,1.55,1.62a109.28,109.28,0,0,1-5,154.44,109.85,109.85,0,0,1-11.67,9.52,64.09,64.09,0,1,1-110.3,63A111,111,0,0,1,3255.2,206.57Z"/><path class="cls-12" d="M2570.16-33.68a124.89,124.89,0,0,0,27.37,69.55,93.29,93.29,0,0,0,62.52,157.07,94.37,94.37,0,0,0,13.47-.19A85.3,85.3,0,0,0,2844,198.32c.1-1.75.15-3.48.14-5.2a72,72,0,0,0,107.63-31.92,86.65,86.65,0,0,0,72.13-124.36,78.49,78.49,0,0,0,33.26-59.74,80.64,80.64,0,0,0-.1-10.78Z"/><path class="cls-11" d="M2828.89-33.68a86.76,86.76,0,0,0,6.28,16.11,87.5,87.5,0,0,0,6.49,10.76,79.58,79.58,0,0,0,75.79,139.89c1.45-.74,2.86-1.52,4.25-2.33a67.15,67.15,0,0,0,76.38,71.63,80.83,80.83,0,0,0,134.11-.47,73.36,73.36,0,0,0,102.93-55.15,113.24,113.24,0,0,0,73.27-161.09,113.63,113.63,0,0,0-12.45-19.35Z"/><path class="cls-12" d="M3069.46-33.68a113.85,113.85,0,0,0-3,20.07,113.49,113.49,0,0,0,101.92,119.5,78.45,78.45,0,0,0,54.73,109.88,78.43,78.43,0,0,0,103.15,106.87,30.95,30.95,0,0,0,53.89,17.49,66.11,66.11,0,0,0,64.69,30.92V-33.68Z"/><path class="cls-14" d="M2881-33.68a85.72,85.72,0,0,0,9,31.66,85.67,85.67,0,0,0,115.2,37.47c1.56-.8,3.08-1.63,4.57-2.51a72.31,72.31,0,0,0,82.23,77.12,87,87,0,0,0,144.36-.52,79,79,0,0,0,110.8-59.36,122.24,122.24,0,0,0,25.6-9.62,121.41,121.41,0,0,0,61.59-74.24Z"/><path class="cls-12" d="M2952.29-33.68a79.93,79.93,0,0,0,29,33.18,80.19,80.19,0,0,0,72.2,7.69,49.9,49.9,0,0,0,91,31.36c.66.47,1.34.93,2,1.37a65.73,65.73,0,0,0,90.89-19.38,67.06,67.06,0,0,0,4.7-8.57l.6.4A70.59,70.59,0,0,0,3340.3-8.45a70.35,70.35,0,0,0,10.13-25.23Z"/><path class="cls-13" d="M2631.68,1626.83c289.75,0,565,12,813.19,33.61V2082.1H680.76c-22.44-23.1-34.31-46.92-34.31-71.28C646.45,1798.78,1535.45,1626.83,2631.68,1626.83Z"/><path class="cls-14" d="M519.19,1752c854.75,0,1547.92,145.13,1547.92,324.1,0,2-.19,4-.36,6H-33.69V1773.33C138,1759.57,324.39,1752,519.19,1752Z"/><path class="cls-12" d="M3444.87,1757c-61.49-4.83-128.52-8.49-201.6-10.83-422.26-13.5-1121.07,256.41-1663,228.92-579.15-29.37-1264-14.21-1614,60.79v46.27H3444.87Z"/><path class="cls-15" d="M1471.8,2082.1c-1.64-36.28.81-75.57.81-105.54,0-89,67.78,47.32,76.71,66.87,7,15.42,12.68,28.34,17.18,38.67Zm112.16,0c-.09-10.2-.25-23-.25-38.67,0-107,30.51,1.38,55.55,25.73,34.66,33.69,22.43-85.5,34.39-141.47,36.38-170.25,92.58-159.37,92.58,5.14,0,32.37-7.66,86.69,2.65,115.75,20.67,58.28,23-39.81,47.62-72,53.36-69.78,46.38,49.67,35.35,105.54Zm346.93,0c29.33-9.6,61.14-18.09,86.65-18.09,53.7,0,72.57,7.28,71.38,18.09Z"/><path class="cls-16" d="M980.87,2082.1c-4.46-16.16-8.54-33-11.47-48.92-29.27-159,79.91-28.69,113.78,15.86,9.11,12,17.07,23.1,24,33.06Zm150.54,0c-.93-3.76-1.92-7.73-3-12-4.1-16.64-18.83-142.54,40-78.06,19.45,21.34,71.88,114.14,45.27,54.85-42.58-94.88,5.36-334.06,109.19-118.14,6.41,13.33,13.32,47.3,13.32,61.18,0,94.24,16.84,58.43,45.27-10.55,49.33-119.68,115.79-52.55,87.88,35.87-2.73,8.68-14.44,40.29-23,66.81Zm355.27,0h83.84c0-1.14,0-2.31,0-3.52C1570.53,2027.23,1524.71,2053,1486.68,2082.1Z"/><path class="cls-15" d="M614.58,2082.1c-35.64-145,69.87-135.45,125.73,0Zm131.06,0H834c29.9-149-118.43-193.1-88.38,0Zm89.65,0c50.21-75.23,189.07-68.21,175.53,0Z"/><path class="cls-15" d="M2325.63,2082.1c-44.55-33.35-97.42-96-21.2-90.53,34.79,2.5,127.5,98,90.8,39.61-6.68-10.63-25.25-52.11-33.42-87-24.95-106.62,68.11-19.23,97,10.64,55.39,57.29,60.76,84.93,38.59,14.14-3.49-11.16-16.05-95.57,34.06-52.34,16.57,14.31,61.27,76.53,38.59,36.78-36.3-63.62,4.56-224,93.07-79.21,5.46,8.94,11.35,31.71,11.35,41,0,63.18,14.35,39.18,38.59-7.07,42.05-80.25,98.69-35.24,74.91,24-4.45,11.09-36.63,78-25,70.73,17.75-11.06,111.23-81.56,111.23-28.29,0,19.44-2.07,24.76-13.62,39.61-58,74.48-27.77,23.94,109,2.82,52.57-8.11,108.51,1.7,54.48,35.37-9.91,6.18-61.67,19.44-103.54,29.7Z"/><path class="cls-11" d="M1998.38,2082.1c-56.87-24.41-91.55-106.08,7.71-74.93,58.19,18.25,96.71,70,63.56-3.48-60-133,59.83-124.72,106.69-5.21-44.74-154.8,98.58-126.33,69.61-19.67,51.06-64.59,223.59-43.1,118.81,37-6.61,5.05-44.67,43.32-22.71,33,114-53.67,259.06,8.49,55.8,33.26Z"/><path class="cls-13" d="M2750.47,2082.1c-21.83-24.59-36-61.37,1.94-75.88,29.66-11.34,80.41,81.26,47.35,15.52-15-29.78-9-81.58-9-115.54,0-59.65,57.78,31.73,65.39,44.84,34.34,59.1,29.31,63.72,29.31,0,0-71.76,26,.92,47.36,17.24,29.54,22.6,19.11-57.32,29.31-94.85,31-114.15,78.92-106.86,78.92,3.45,0,21.7-6.53,58.12,2.25,77.6,17.62,39.08,19.59-26.69,40.59-48.28,54-55.56,35.5,67.81,24.8,86.22-7.45,12.83,88.65-27.59,146.56-27.59,208.9,0-200.45,101.52-31.56,67.26,40.44-8.2,243.17-26.86,214.2,34.49-2.89,6.13-14.67,11.25-33.11,15.52Z"/><path class="cls-16" d="M3150.21,2082.1c-38.35-28.71-83.85-82.64-18.24-77.93,29.94,2.16,109.75,84.4,78.16,34.1-5.75-9.16-21.74-44.86-28.77-74.91-21.48-91.78,58.63-16.56,83.48,9.16,47.68,49.31,52.3,73.11,33.22,12.17-3-9.61-13.82-82.27,29.31-45,14.28,12.31,52.75,65.88,33.22,31.66-31.24-54.77,3.94-192.81,80.12-68.19a52,52,0,0,1,4.16,9.44V2082.1Z"/><path class="cls-17" d="M253.76,1589.76c-14.65-6.91-34.53-5.08-53.52,11.93-28.79,25.8-22.34,71.86-28,111.83-1.25,8.87-14.09,22.64-21.29,3.59-8.29-21.93-20.12-59.86-43.54-58.75-31.66,1.49-53.1,36-37.09,70.49,9.7,20.93,51.38,14.32,66.78,31.5,7.49,8.36.64,24-10.58,24.38-8.66.28-21.65-5.7-34-19.16-19.76-21.59-42.2-36.63-58-18.17V1820c20.51,7.8,67.68-12.56,84.43-1.12,9.36,6.39,7,32.31-4.21,33.75-21.6,2.76-38.37-24.67-60.12-25.51a30.81,30.81,0,0,0-20.1,6.82v57.22c21.28,8.29,47.69-8.85,69.9-2,7.11,2.18,3.16,20.19-4.07,21.93-18,4.34-38.3.26-55-7.68a20.78,20.78,0,0,0-10.8-1.65v59c18-5.77,38.44-21.87,56.65-20.12,7.28.7,4,23.7-8.49,24.68-16,1.25-34.57-6.65-48.16,1.47v29.8c7.38,4.1,17,6.21,24.67,4.94,13.93-2.31,25.67-10.25,39.23-15.71-6.3,31.63-11.83,63.84-16.52,96.32h7c4.2-32.5,9.27-64.73,15.25-96.34,22.09,15.13,39.55,33.6,67,30,30.93-4.09,33.26-35.17,13.83-49.22-12.91-9.33-35.19,4.42-49.5-6.84-11-8.63-4.31-28.84,9-25.7,35.27,8.31,61.87,36.18,94.61,20.64,22.44-10.65,30.68-52.41,9.64-65.62-25.82-16.22-62,7.75-91-1.62-13.47-4.35-5.48-26.59,8-30.86,34.61-10.93,82,35.32,110.71,13.13,21.63-16.72,27.5-62.57,3.3-75.29-27.48-14.44-60.29,16.67-91.28,15-12.7-.7-12.57-20.14-1.38-26.17,26.16-14.09,68,10.46,88.46-11.09,17.13-18.06,15.63-64.89-7.41-74.31-24.75-10.12-40.5,42.56-67.21,43.8-12.78.59-17.79-18.54-6.38-23.07,17.72-7,46-34,66.8-57.67C286.66,1632.18,276.5,1600.46,253.76,1589.76Z"/><path class="cls-18" d="M223.23,2082.1c-32.88-76.18,24.17-159.18,108.19-162.73-5.35,25.33-15.93,50.1-16.06,76-.12,23,15.93,24.2,21.92,1.68,6.74-25.39,1.58-53.18,16.17-76.77,4.87-7.86,10.17-17.65,20.73-22.24,27.75-12.06,72.28-8.34,89.75-7.23-26.34,19.5-40.82,42.19-43.09,76.72-1.43,21.66,18.08,34,25.87,7,6.11-21.2,11-42.67,25-61.94,24.75-34,59.61-27.62,93.81-7.46-16.92,11-32.55,18.48-40.91,46.17-8.62,28.52-4.46,34.6,15.54,12.6,10.68-11.75,14.39-25.92,23.4-34.91,34.86-34.79,65.19-7.56,95.79,10.7-24.46-2.33-43.34,17.12-62.3,30.3-26.46,18.39-16.6,34.67,16.05,19.81,12.49-5.69,16.63-20.73,27.9-26.57,43.89-22.73,77.75,26.55,93.48,62.06-19.14,2.4-33.45,10.85-44.33,23.6-15.5,18.17-21.32,29-26.56,33.21H651.22c-7.77-3.77-20.13-12.61-44.08-25.89-14.06-7.8-33.46-6-18.37,17.06a96.28,96.28,0,0,0,6.53,8.83Zm266.5-136h0c.08,5.33,3.57,7,10.08,1.5,3.73-3.14,4.41-8.48,6.72-13.25,1.1-2.28,1.67-7,3.05-9.83,3.16-6.54,1.69-8.66-5.39-6.35-4.85,1.59-7.5,11.24-9.51,16-1.76,4.17-5,6.73-4.95,11.93ZM361.27,2022h0c8.89,28.14,22.42,1.4,28.53-10.79,4.3-8.6,19.75-50.3,4.39-50.81-5.75-.19-19.2,11-21.35,15.82-5.6,12.58-16.69,29.57-11.57,45.78Zm-103.48,10.4h0c-4.53,37.8,10.7,2.69,20.39-5.35,8.79-7.28,10-24.3,11.85-37,7.1-47.66-18.13-8.8-22,9.4C265.5,2011.41,259.1,2021.47,257.79,2032.38Z"/><path class="cls-18" d="M-33.69,1517.09c2.68,8.9,5.55,17.7,7.8,26.29,11.49,43.9,37.8,38.74,34-11.63-1.47-19.27-19.36-32-21.62-49.77-8.79-69,72.79-90,127.37-93.55-6.1,26.48-1.86,49.5,9.73,70.06,42.63,75.65,51.61,42.21-30.53,113.28-17.13,14.82-24.12,41.35,13.65,32.57,31.4-7.31,69.26-28,82-72.12,58.62,98.35,41.9,179.6-23.81,215.1-15.17,8.19-33,15-53.13,20.55-55,15.14-17.2,48,7.58,36.79,30-13.53,54.91-36.22,82.37-54.34,33.64,79.71,14.76,115.58-81,183.19-36,25.45-31.21,42.65,7.76,31.86,38.81-10.74,66.39-37.71,92-62.87,25.61,80.59-24.38,150.15-93.85,179.6H-33.69v-565ZM38.55,1869.9h0c-14.16-2.58,15,20.16,21.4,23,6.06,2.68,26.07-.75,33.18-3.27,30-10.65,30.59-73-3.19-49.46C71.76,1852.8,66.36,1875,38.55,1869.9Zm55.84-141.63h0c16.38,4.57,62.63-3.55,28.43-22.19-7.49-4.09-20.77-1.18-29.57-1C81.78,1705.2,83,1725.07,94.39,1728.27Z"/><path class="cls-15" d="M449.64,1736.23c-13.46-9.56-33.72-11.3-55.82,2.35-33.51,20.69-35.32,68-48.16,107.12-2.85,8.67-18.19,20.17-22-.23-4.38-23.49-9.42-63.64-33.11-66.74-32-4.2-59.72,26.54-49.87,64,6,22.73,49,23.6,61.31,43.6,6,9.73-3.67,24.19-15,22.54-8.73-1.27-20.68-9.6-30.61-25.32-20.37-32.22-47.07-54.5-70.68-6.81-7.77,15.72-10.22,34.41-2.35,46.33,12.64,19.14,73.58,2.67,89.94,18.74,8.24,8.09,1.25,33.66-10.28,33.09-22.16-1.11-34-31.63-55.71-36.39-31-6.79-60.86,39.57-33.68,59.27,19.82,14.37,50.71.67,72.48,11.86,6.74,3.46-.46,20.81-8,21.25-18.84,1.12-38.46-6.62-53.81-17.59-20.23-14.47-74.37,15.73-45,48.77,18.49,20.81,57.5-10.74,84.31-3.22,6.81,1.9.46,22.21-11,23.23h49.59c-4.62-10.75,4.78-25.2,16.12-20.28,12.34,5.34,23.05,13.07,33.41,20.28h79.44c9.61-15.09,11.84-35.7-.2-46.66-23-20.9-63.59-3.37-91-18-12.73-6.78-.71-27.65,13.58-29.51,36.68-4.74,75.88,50.16,108.67,33.07,24.7-12.88,38.83-57.81,16.84-74.92-24.95-19.42-63.46,5.89-94.23-1.39-12.61-3-9-22.45,3.32-26.49,28.77-9.43,66.32,22.71,90.71,4.77,20.43-15,27.34-62.26,5.93-75.85-23-14.6-48.27,35.41-75.28,31.84-12.92-1.7-14.52-21.79-2.25-24.27,19-3.85,52.23-25.87,77.35-45.84,30.45-24.18,26-57.82,5.08-72.64ZM210.74,2082.1H151c2.12-2.46,5.41-4.77,10.13-6.8,15.31-6.58,33,5.14,49.54,6.8Z"/><path class="cls-19" d="M2328.22,952.93c9.55-10,20.06-38.21,37.63-22.41-.45,27.35-19.95,27.91-37.63,22.41Zm591.32,229.37c4.09-13.19.93-43.15,23.69-36.84,11.78,24.68-5.42,33.88-23.69,36.84ZM2828.86,1169c-3.29-8.6-3.73-44.26,20.09-38.17,17.5,15.67-2.42,33.7-20.09,38.17Zm195.83-14.51c-10.53-11.8-21.45-44.5-42.16-27.12-.56,31.31,21.73,32.72,42.16,27.12Zm-76,674.86c6.72-16.57,11.79-50.23-16.68-50.56-24.17,12.2-13.87,36,3,50.56Zm-377-168.72c4.1-13.2.93-43.15,23.7-36.84,11.78,24.68-5.43,33.88-23.7,36.84Zm-271.77-404c-3.29-8.59-3.73-44.25,20.09-38.16,17.5,15.66-2.42,33.69-20.09,38.16Zm809.86,8c-7.87-11.86-17.32-22.45-31.09-10.89-.45,25.67,14.45,31.24,31.09,29.32v-18.43ZM2044.3,1630.07c-4.42-11.8-4.69-60.67,27.88-52.1,23.83,21.63-3.63,46.14-27.88,52.1ZM2355.91,1046c1.33-7.58,16.34-33.36,30.81-18.76,5.83,18.77-16.21,23.14-30.81,18.76Zm64.54,40.19c2.45-7.3,1.56-37.12-18.12-31.19-14.08,13.71,3.2,28.07,18.12,31.19Zm-205.15,87.29c11.32-7.92,27.16-33.53,41.29-14.59-5.81,26.73-25,23.45-41.29,14.59ZM2305,1409.05c12.27-2.88,53-29.82,27.8-52.13-31.22-7.8-36.33,28.66-27.8,52.13Zm-182.53-117.8c9.54-10,20.06-38.21,37.62-22.42-.45,27.35-19.95,27.92-37.62,22.42Zm653.32,96c-4-5.64-16.88-13.47-7.46-20.62,13.4,2.81,11.83,12.45,7.46,20.62ZM2582,1177c-9-1.88-39.22-20.81-21.21-37.55,22.64-6.24,27,20.27,21.21,37.55ZM3073,1389.45c-10.54-11.79-21.46-44.49-42.17-27.11-.55,31.3,21.74,32.71,42.17,27.11Zm-569.13-88.82c4.1-13.2.93-43.15,23.7-36.85,11.78,24.69-5.42,33.89-23.7,36.85Zm453.77,267.63c1.26-15.77,17.38-46.25-9.49-49.24-23,21.21-8.66,38.31,9.49,49.24ZM2844.16,967.88c-7.67-1.6-33.39-17.71-18.06-32,19.27-5.32,23,17.25,18.06,32Zm213.1,22.87c-9-10-18.26-37.87-35.89-23.08-.48,26.65,18.5,27.85,35.89,23.08Zm-467.22,12c12.27-2.88,53-29.83,27.8-52.14C2586.62,942.82,2581.52,979.28,2590,1002.76Z"/><path class="cls-20" d="M2763.36,317.34c7.14-7.47,15-28.57,28.13-16.76-.34,20.45-14.92,20.87-28.13,16.76Zm442.17,171.52c3.07-9.87.7-32.26,17.72-27.55,8.81,18.46-4.05,25.34-17.72,27.55Zm-67.8-10c-2.46-6.42-2.79-33.09,15-28.54,13.09,11.72-1.81,25.2-15,28.54ZM3284.17,468c-7.87-8.82-16-33.27-31.53-20.27-.41,23.4,16.25,24.46,31.53,20.27ZM3227.38,972.7c5-12.39,8.81-37.56-12.48-37.81-18.08,9.13-10.37,27,2.23,37.81Zm-282-126.17c3.06-9.87.69-32.27,17.72-27.55,8.81,18.46-4.06,25.34-17.72,27.55ZM2742.19,544.42c-2.46-6.43-2.79-33.1,15-28.54,13.09,11.71-1.81,25.19-15,28.54Zm605.61,6c-5.89-8.86-13-16.78-23.25-8.14-.34,19.2,10.8,23.36,23.25,21.93V550.37ZM2551,823.7c-3.31-8.83-3.51-45.37,20.85-39,17.82,16.18-2.72,34.51-20.85,39Zm233-436.8c1-5.67,12.22-24.95,23-14,4.36,14-12.12,17.31-23,14ZM2832.32,417c1.83-5.45,1.17-27.75-13.55-23.32-10.52,10.25,2.4,21,13.55,23.32Zm-153.41,65.28c8.47-5.92,20.31-25.07,30.88-10.91-4.34,20-18.73,17.54-30.88,10.91ZM2746,658.43c9.17-2.16,39.65-22.3,20.79-39-23.35-5.84-27.17,21.43-20.79,39Zm-136.5-88.1c7.14-7.47,15-28.57,28.14-16.76-.34,20.45-14.92,20.87-28.14,16.76ZM3098,642.11c-3-4.22-12.62-10.08-5.58-15.42,10,2.1,8.85,9.31,5.58,15.42ZM2953.11,484.92c-6.74-1.41-29.33-15.56-15.87-28.08,16.93-4.67,20.21,15.16,15.87,28.08Zm367.21,158.85c-7.88-8.82-16-33.28-31.53-20.28-.41,23.41,16.25,24.46,31.53,20.28Zm-425.58-66.43c3.06-9.86.69-32.26,17.72-27.55,8.81,18.46-4.06,25.34-17.72,27.55Zm339.32,200.14c.94-11.79,13-34.58-7.1-36.82-17.22,15.86-6.47,28.65,7.1,36.82Zm-84.89-449c-5.74-1.2-25-13.25-13.51-23.9,14.41-4,17.2,12.9,13.51,23.9Zm159.35,17.1c-6.7-7.5-13.65-28.32-26.84-17.25-.35,19.92,13.84,20.82,26.84,17.25Zm-349.38,9c9.18-2.15,39.66-22.3,20.79-39C2956.58,309.78,2952.77,337.05,2959.14,354.6Z"/></svg>