<svg xmlns="http://www.w3.org/2000/svg" xmlns:xlink="http://www.w3.org/1999/xlink" viewBox="0 0 1920 1080">
  <defs>
    <style>
      .cls-1 {
        fill: none;
      }

      .cls-2 {
        isolation: isolate;
      }

      .cls-3 {
        clip-path: url(#clip-path);
      }

      .cls-15, .cls-4 {
        fill: #fff;
      }

      .cls-5 {
        fill: #5dd782;
        opacity: 0.3;
      }

      .cls-6 {
        fill: #61d983;
        opacity: 0.28;
      }

      .cls-7 {
        fill: #3ecf93;
      }

      .cls-15, .cls-26, .cls-8 {
        mix-blend-mode: overlay;
      }

      .cls-8 {
        fill: url(#radial-gradient);
      }

      .cls-9 {
        opacity: 0.81;
      }

      .cls-11, .cls-9 {
        mix-blend-mode: multiply;
      }

      .cls-10 {
        opacity: 0.65;
        fill: url(#linear-gradient);
      }

      .cls-11 {
        fill: #d7d7d7;
        opacity: 0.33;
      }

      .cls-12 {
        fill: #7dc6c2;
      }

      .cls-13, .cls-17 {
        fill: #e8eaf1;
      }

      .cls-14 {
        fill: #80769f;
      }

      .cls-15 {
        opacity: 0.61;
      }

      .cls-16 {
        fill: #ece9f5;
      }

      .cls-17, .cls-31, .cls-32 {
        mix-blend-mode: soft-light;
      }

      .cls-18 {
        fill: #843be3;
      }

      .cls-19 {
        fill: #fdd474;
      }

      .cls-20 {
        fill: #877f9f;
      }

      .cls-21 {
        fill: #4da9ff;
      }

      .cls-22 {
        fill: #c3bfcf;
      }

      .cls-23 {
        fill: #473f65;
      }

      .cls-24 {
        fill: #f4af9f;
      }

      .cls-25 {
        fill: #e1708b;
      }

      .cls-26 {
        opacity: 0.72;
      }

      .cls-27 {
        fill: url(#Áåçûìÿííûé_ãðàäèåíò_20);
      }

      .cls-28 {
        fill: url(#Áåçûìÿííûé_ãðàäèåíò_20-2);
      }

      .cls-29 {
        fill: #e9989c;
      }

      .cls-30 {
        fill: #f4f6f8;
      }

      .cls-31 {
        fill: #656565;
      }

      .cls-32 {
        fill: #333;
      }

      .cls-33 {
        fill: #70e286;
      }
    </style>
    <clipPath id="clip-path">
      <path class="cls-1" d="M1935,1062.17a31.87,31.87,0,0,1-31.92,31.83H19.92A31.87,31.87,0,0,1-12,1062.17V19.83A31.87,31.87,0,0,1,19.92-12H1903.08A31.87,31.87,0,0,1,1935,19.83Z"/>
    </clipPath>
    <radialGradient id="radial-gradient" cx="956.03" cy="589.76" r="436.94" gradientTransform="translate(-1855.19 -894.85) scale(2.94 2.93)" gradientUnits="userSpaceOnUse">
      <stop offset="0" stop-color="#ffcf70"/>
      <stop offset="0.09" stop-color="#f7ca6f"/>
      <stop offset="0.24" stop-color="#e1bc6d"/>
      <stop offset="0.42" stop-color="#bca669"/>
      <stop offset="0.63" stop-color="#8a8664"/>
      <stop offset="0.85" stop-color="#4a5f5e"/>
      <stop offset="1" stop-color="#1d4359"/>
    </radialGradient>
    <linearGradient id="linear-gradient" x1="-1.54" y1="527.93" x2="346.92" y2="1105.82" gradientUnits="userSpaceOnUse">
      <stop offset="0" stop-color="#e1f0f7"/>
      <stop offset="1" stop-color="#93a19d"/>
    </linearGradient>
    <linearGradient id="Áåçûìÿííûé_ãðàäèåíò_20" data-name="Áåçûìÿííûé ãðàäèåíò 20" x1="294.38" y1="655.74" x2="404.93" y2="655.74" gradientUnits="userSpaceOnUse">
      <stop offset="0" stop-color="gray"/>
      <stop offset="1" stop-color="#d6d6d6"/>
    </linearGradient>
    <linearGradient id="Áåçûìÿííûé_ãðàäèåíò_20-2" x1="294.38" y1="654.63" x2="404.93" y2="654.63" xlink:href="#Áåçûìÿííûé_ãðàäèåíò_20"/>
  </defs>
  <title>Baner1</title>
  <g class="cls-2">
    <g id="Capa_1" data-name="Capa 1">
      <g class="cls-3">
        <rect class="cls-4" x="-12" y="-12.01" width="1947" height="1106"/>
        <path class="cls-5" d="M1935,660.18c0-23.84-51.85-19.47-67.41,50.63-33.46,150.79-57,210.44-159.76,266.3-47.12,25.59-131.87,65.43-159,116.88H1935Z"/>
        <path class="cls-6" d="M1255.23-12c-65.33,40-95,71.07-140,145.92-27.66,46-42.51,107.53-41.28,169.07a335.55,335.55,0,0,0,6.71,61c16.1,88.46,60.78,206.22-28.59,273-24.48,19.1-50.72,29.36-78.15,35.24a346.4,346.4,0,0,1-42,6.09c-125.6,0-253.28,25.51-333.08,136.9-60.65,85.93-77.13,185.06-54.64,278.74H-12V-12S1255-12,1255.23-12Z"/>
        <path class="cls-6" d="M1231-12c-76.25,38.05-104.17,71.06-149.17,145.91-36.89,61.35-51,150.26-34.58,230.05,13,63.68,29.25,132.78,18.12,195.76C1047.31,660.15,948.17,655,875.33,659.94c-69.59,4.61-148.53,22.47-208.42,64-55.77,38.74-92.12,86.85-115.07,151.65-22.67,64.61-33.61,128-16.08,218.45H-12L-4.58-7.7S1230.81-12,1231-12Z"/>
        <g>
          <path class="cls-7" d="M1229.77-12c-85.38,24.14-160.78,133-184.5,204.09-21.42,64.16-21.36,130.63-13.86,196.88,6,53,15,109.79-1.53,161.77-26.39,82.89-121.79,81.33-193.3,87.33-68,5.71-145.42,23.2-202,62.68-52.76,36.81-83.67,93.2-100.52,154C517.29,915.27,504.1,982,516,1044.64c3.1,16.35,5.6,34.07,13.1,49.11-161.59,0-541.11.25-541.11.25V-12Z"/>
          <path class="cls-8" d="M1229.77-12c-85.38,24.14-160.78,133-184.5,204.09-21.42,64.16-21.36,130.63-13.86,196.88,6,53,15,109.79-1.53,161.77-26.39,82.89-121.79,81.33-193.3,87.33-68,5.71-145.42,23.2-202,62.68-52.76,36.81-83.67,93.2-100.52,154C517.29,915.27,504.1,982,516,1044.64c3.1,16.35,5.6,34.07,13.1,49.11-161.59,0-541.11.25-541.11.25V-12Z"/>
        </g>
        <g class="cls-9">
          <polygon class="cls-10" points="170.95 1094 -12 830.43 -11.86 190.97 404.87 1093.89 170.95 1094"/>
        </g>
        <g>
          <path class="cls-11" d="M959.93,521.13,484,545.45a39.74,39.74,0,0,0-13.15,3.11,53.86,53.86,0,0,0-12.35,7.28,56.41,56.41,0,0,0-10.22,10.38,46,46,0,0,0-6.77,12.46L327.18,907.47A41.06,41.06,0,0,0,324.77,922a28.38,28.38,0,0,0,3,12.21,22.22,22.22,0,0,0,7.74,8.65,24.6,24.6,0,0,0,11.92,3.72l507.18,29.39a47.89,47.89,0,0,0,17.73-2.44A56.64,56.64,0,0,0,901,951.63,49.21,49.21,0,0,0,908.19,935l84.43-379.9a29.13,29.13,0,0,0-.12-13.92,24.86,24.86,0,0,0-6.27-11,28.74,28.74,0,0,0-11.23-7,39.43,39.43,0,0,0-15.07-2Z"/>
          <path class="cls-12" d="M258.32,849l-38.11-1c-8.82,10.06-16.22,21.18-21.11,32.71-1,2.45-2,4.9-2.76,7.4-14.87,46-4.86,99,31.17,132.91A102,102,0,0,0,251,1038c1.57-32.5,5.93-89.72,10.3-113.94C267.28,890.93,258.32,849,258.32,849Z"/>
          <path class="cls-4" d="M316.62,721.46h0c-8.07,15.62-7.78,28.13-7.78,28.13h0S308.55,737.08,316.62,721.46Z"/>
          <path class="cls-4" d="M334.35,755.8l-3-.5Z"/>
          <path class="cls-4" d="M340.57,756.7c-1-.13-2-.28-3-.42C338.54,756.42,339.55,756.57,340.57,756.7Z"/>
          <path class="cls-4" d="M319.38,752.84l-1.62-.43Z"/>
          <path class="cls-4" d="M328.51,754.79l-1.26-.23Z"/>
          <path class="cls-4" d="M355.91,758.42c-1.66-.15-3.33-.33-5-.5C352.58,758.09,354.25,758.27,355.91,758.42Z"/>
          <path class="cls-4" d="M315.8,751.9l-1.74-.52Z"/>
          <path class="cls-4" d="M347,757.5l-2.7-.32Z"/>
          <path class="cls-4" d="M359.76,758.75c5.86.47,11.66.86,17.15,1.15h0C371.42,759.61,365.62,759.24,359.76,758.75Z"/>
          <path class="cls-4" d="M380.44,760.08l-3.53-.18h0l3.53.18Z"/>
          <path class="cls-13" d="M344.32,757.18c-1.26-.15-2.5-.32-3.75-.48C341.82,756.86,343.06,757,344.32,757.18Z"/>
          <path class="cls-13" d="M337.53,756.28l-3.18-.48Z"/>
          <path class="cls-13" d="M350.91,757.92c-1.29-.12-2.59-.28-3.89-.42C348.32,757.64,349.62,757.8,350.91,757.92Z"/>
          <path class="cls-13" d="M308.84,749.59h0c1.62.64,3.37,1.23,5.22,1.79C312.21,750.82,310.46,750.23,308.84,749.59Z"/>
          <path class="cls-13" d="M359.76,758.75l-3.85-.33Z"/>
          <path class="cls-13" d="M327.25,754.56c-2.74-.54-5.37-1.1-7.87-1.72C321.88,753.46,324.51,754,327.25,754.56Z"/>
          <path class="cls-13" d="M317.76,752.41c-.66-.16-1.32-.34-2-.51C316.44,752.07,317.1,752.25,317.76,752.41Z"/>
          <path class="cls-13" d="M331.31,755.3c-.95-.16-1.88-.34-2.8-.51C329.43,755,330.36,755.14,331.31,755.3Z"/>
          <g>
            <polygon class="cls-14" points="194.04 871.25 68.76 909.68 108.83 1039.5 228.14 983.61 207.41 871.61 194.04 871.25"/>
            <polygon class="cls-15" points="194.04 871.25 68.76 909.68 108.83 1039.5 228.14 983.61 207.41 871.61 194.04 871.25"/>
          </g>
          <polygon class="cls-16" points="210.98 865.07 89.49 863.44 92.41 1003.33 211.5 989.5 223.71 869.22 210.98 865.07"/>
          <path class="cls-17" d="M334.74,880.9a17.6,17.6,0,0,1-8.54-2.59,15.91,15.91,0,0,1-5.6-6.13,20.21,20.21,0,0,1-2.18-8.69,28.78,28.78,0,0,1,1.67-10.34L428.37,538.49a32.81,32.81,0,0,1,4.84-9,40,40,0,0,1,7.36-7.47,38.71,38.71,0,0,1,8.88-5.23,28.42,28.42,0,0,1,9.46-2.21L919.76,493a27.49,27.49,0,0,1,10.74,1.5,20.45,20.45,0,0,1,8,5.08,18.13,18.13,0,0,1,4.4,7.92,21,21,0,0,1,0,9.95l-81.77,360A34.92,34.92,0,0,1,856,889.27a40.17,40.17,0,0,1-8.91,9.4,39.37,39.37,0,0,1-11.4,6.1,33.84,33.84,0,0,1-12.56,1.78L334.74,880.9ZM933.13,474.37,457.23,498.7a39.68,39.68,0,0,0-13.15,3.11,53.5,53.5,0,0,0-12.35,7.28,56.47,56.47,0,0,0-10.23,10.38,46.36,46.36,0,0,0-6.76,12.45L300.39,860.73A40.71,40.71,0,0,0,298,875.21a28.38,28.38,0,0,0,3,12.21,22,22,0,0,0,7.74,8.64,24.4,24.4,0,0,0,11.92,3.73l507.16,29.39a47.66,47.66,0,0,0,17.74-2.45,55.56,55.56,0,0,0,16.09-8.56,56.65,56.65,0,0,0,12.58-13.28,49.32,49.32,0,0,0,7.21-16.62l84.44-379.89a29.08,29.08,0,0,0-.13-13.94,25,25,0,0,0-6.25-11,28.83,28.83,0,0,0-11.24-7,39.45,39.45,0,0,0-15.08-2Z"/>
          <path class="cls-18" d="M657.77,601a13.78,13.78,0,0,1-6.09-1.16,10.8,10.8,0,0,1-4.22-3.5,11.64,11.64,0,0,1-2-5.25,16.09,16.09,0,0,1,.61-6.48,22.29,22.29,0,0,1,3.18-6.52,26,26,0,0,1,5.06-5.4,25,25,0,0,1,6.28-3.73,19.75,19.75,0,0,1,6.81-1.51,13.93,13.93,0,0,1,6.08,1.11,10.81,10.81,0,0,1,4.26,3.42,11.41,11.41,0,0,1,2.06,5.24,15.74,15.74,0,0,1-.54,6.5,22.27,22.27,0,0,1-3.17,6.59,26.32,26.32,0,0,1-5.12,5.47,25.42,25.42,0,0,1-6.35,3.74,19.44,19.44,0,0,1-6.86,1.48Zm12.29-42.76a30.8,30.8,0,0,0-10.53,2.34,40,40,0,0,0-9.68,5.79,41.82,41.82,0,0,0-7.85,8.37,35.2,35.2,0,0,0-4.94,10.12,25.09,25.09,0,0,0-1,10.05,18.08,18.08,0,0,0,3,8.18,16.31,16.31,0,0,0,6.51,5.46,20.81,20.81,0,0,0,9.41,1.86,29.83,29.83,0,0,0,10.66-2.28,39.2,39.2,0,0,0,9.87-5.84,41.93,41.93,0,0,0,7.95-8.51,35.24,35.24,0,0,0,4.93-10.3,25.12,25.12,0,0,0,.83-10.13,17.94,17.94,0,0,0-3.22-8.12,16.72,16.72,0,0,0-6.62-5.3,21.28,21.28,0,0,0-9.4-1.69ZM481.67,833.05a1,1,0,0,1-.5-.14.83.83,0,0,1-.33-.34,1.14,1.14,0,0,1-.16-.48,1.76,1.76,0,0,1,.07-.58A1.81,1.81,0,0,1,481,831a2.47,2.47,0,0,1,.44-.47,2.86,2.86,0,0,1,.54-.3,1.29,1.29,0,0,1,.57-.09l115.08,4.25a1.31,1.31,0,0,1,.53.15,1,1,0,0,1,.38.34,1.24,1.24,0,0,1,.17.5,1.4,1.4,0,0,1,0,.6,1.66,1.66,0,0,1-.29.58,2.15,2.15,0,0,1-1,.78,1.61,1.61,0,0,1-.61.11l-115.12-4.36Zm4.54-14.6a1,1,0,0,1-.49-.13.79.79,0,0,1-.35-.33,1.08,1.08,0,0,1-.15-.48,1.28,1.28,0,0,1,.07-.57,2.55,2.55,0,0,1,.29-.57,1.92,1.92,0,0,1,.44-.46,2.56,2.56,0,0,1,.53-.3,1.71,1.71,0,0,1,.58-.09L602,819.33a1.29,1.29,0,0,1,.53.12,1.59,1.59,0,0,1,.39.33,1.28,1.28,0,0,1,.16.5,1.26,1.26,0,0,1-.06.6,1.69,1.69,0,0,1-.28.59,2.26,2.26,0,0,1-.45.48,2.46,2.46,0,0,1-.55.3,1.66,1.66,0,0,1-.61.1l-114.89-3.9Zm-40.06,15.42L453,812.24l20.23.66-6.83,21.75-20.29-.78Zm47.47-39.24a1.15,1.15,0,0,1-.5-.12,1,1,0,0,1-.34-.32,1,1,0,0,1-.15-.47,1.28,1.28,0,0,1,.07-.57,2.16,2.16,0,0,1,.28-.57,2.34,2.34,0,0,1,.44-.45,1.54,1.54,0,0,1,.53-.29,1.3,1.3,0,0,1,.57-.12L609,794.79a1,1,0,0,1,.54.14.84.84,0,0,1,.37.33,1.46,1.46,0,0,1,.19.48,1.52,1.52,0,0,1-.06.59,2.28,2.28,0,0,1-.28.59,2.8,2.8,0,0,1-.45.46,1.73,1.73,0,0,1-.56.31,1.58,1.58,0,0,1-.6.1l-114.5-3.16Zm4.46-14.35a1,1,0,0,1-.49-.13,1,1,0,0,1-.35-.31,1.08,1.08,0,0,1-.15-.47,1.41,1.41,0,0,1,.06-.57,2,2,0,0,1,.28-.55,2.18,2.18,0,0,1,.45-.46,2.13,2.13,0,0,1,.53-.3,1.59,1.59,0,0,1,.57-.1L613.2,780a1,1,0,0,1,.53.13.87.87,0,0,1,.38.33,1.06,1.06,0,0,1,.17.48,1.18,1.18,0,0,1,0,.58,2.16,2.16,0,0,1-.28.57,2,2,0,0,1-.45.47,1.74,1.74,0,0,1-.55.3,1.81,1.81,0,0,1-.6.11l-114.27-2.71Zm-39.75,15.34,6.78-21.27,20.12.45-6.72,21.4-20.18-.58Zm47.2-39.31a1.15,1.15,0,0,1-.5-.12.9.9,0,0,1-.33-.31,1.05,1.05,0,0,1-.16-.46,1.36,1.36,0,0,1,.06-.56,2.67,2.67,0,0,1,.28-.56,2.09,2.09,0,0,1,.44-.45,2.86,2.86,0,0,1,.54-.3,1.54,1.54,0,0,1,.56-.1l113.83,1.89a1.12,1.12,0,0,1,.53.13,1,1,0,0,1,.38.33,1.05,1.05,0,0,1,.18.47,1.43,1.43,0,0,1-.05.57,2.22,2.22,0,0,1-.28.58,2.79,2.79,0,0,1-.45.46,2.46,2.46,0,0,1-.55.3,1.42,1.42,0,0,1-.6.11l-113.88-2Zm4.39-14.12a1.07,1.07,0,0,1-.49-.12.87.87,0,0,1-.35-.31,1.09,1.09,0,0,1-.15-.45,1.78,1.78,0,0,1,.06-.55,1.86,1.86,0,0,1,.29-.56,2,2,0,0,1,.43-.45,3.12,3.12,0,0,1,.53-.3,1.54,1.54,0,0,1,.56-.1l113.6,1.48a1.09,1.09,0,0,1,.53.11,1,1,0,0,1,.37.31,1.09,1.09,0,0,1,.19.47,1.48,1.48,0,0,1,0,.58,1.73,1.73,0,0,1-.28.56,2.38,2.38,0,0,1-1,.78,1.77,1.77,0,0,1-.6.11l-113.64-1.56Zm-39.49,15.48,6.66-20.94,20,.25-6.61,21-20.07-.35Zm191.75,29a64.69,64.69,0,0,1,9.48-19.89,74.33,74.33,0,0,1,15.35-16A72.74,72.74,0,0,1,706.26,740a60.81,60.81,0,0,1,21.22-3.85l-13.73,52.08,53.62,1.31a60.25,60.25,0,0,1-3.68,10.3,67.15,67.15,0,0,1-5.43,9.58,73,73,0,0,1-6.93,8.7,77.12,77.12,0,0,1-8.17,7.58l16.6,23.33a25,25,0,0,1,3-1.61,22.47,22.47,0,0,1,3.18-1.18,21.93,21.93,0,0,1,3.28-.67,19.92,19.92,0,0,1,3.36-.17,16.86,16.86,0,0,1,7.08,1.78,14.42,14.42,0,0,1,5.12,4.34,14.8,14.8,0,0,1,2.66,6.25,18,18,0,0,1-.3,7.52,22.74,22.74,0,0,1-3.36,7.44A25.82,25.82,0,0,1,771,882.59a21.45,21.45,0,0,1-7.88,1.15,16.53,16.53,0,0,1-7.09-1.86,14.69,14.69,0,0,1-5.06-4.41,15,15,0,0,1-2.55-6.3,18.15,18.15,0,0,1,.37-7.49,22.9,22.9,0,0,1,1.13-3.33,25.48,25.48,0,0,1,1.63-3.1,24.92,24.92,0,0,1,2.07-2.85,29.21,29.21,0,0,1,2.44-2.54l-16.58-23.38a75.43,75.43,0,0,1-9.17,5.5,69.35,69.35,0,0,1-9.76,4,62.93,62.93,0,0,1-10.12,2.37,56.87,56.87,0,0,1-10.25.58,45.2,45.2,0,0,1-19.42-5,37.57,37.57,0,0,1-13.53-11.94,39.51,39.51,0,0,1-6.55-17,50.09,50.09,0,0,1,1.51-20.33Zm147.39-45.33a3.77,3.77,0,0,1,0-.58c0-.19,0-.39,0-.59s0-.39.09-.58.08-.41.13-.62a10.87,10.87,0,0,1,1.65-3.6,13.26,13.26,0,0,1,2.78-2.92,13.08,13.08,0,0,1,3.55-2,11.59,11.59,0,0,1,3.94-.69,8.9,8.9,0,0,1,3.6.77,7.05,7.05,0,0,1,2.6,2,6.87,6.87,0,0,1,1.38,3,8.53,8.53,0,0,1-.12,3.64,10.82,10.82,0,0,1-1.64,3.61,13,13,0,0,1-2.79,2.95,14,14,0,0,1-3.58,2,11.3,11.3,0,0,1-4,.68,9.23,9.23,0,0,1-2.15-.28,7.53,7.53,0,0,1-1.84-.7,6.71,6.71,0,0,1-1.52-1.1,6.57,6.57,0,0,1-1.15-1.42l-41.32,17.67A35,35,0,0,1,770,767a37.38,37.38,0,0,1,.17,4.64,40.76,40.76,0,0,1-.39,4.84,46.45,46.45,0,0,1-1,5l-.06.24-45.17-1L735,736.86h.26a40.85,40.85,0,0,1,11.37,1.68,34.49,34.49,0,0,1,9.51,4.52,31.71,31.71,0,0,1,12.09,16l41.3-17.68ZM444.76,684.65a1.61,1.61,0,0,1-.76-.18,1.31,1.31,0,0,1-.52-.47,1.56,1.56,0,0,1-.22-.69,2.4,2.4,0,0,1,.11-.85,3.46,3.46,0,0,1,.45-.85,3.77,3.77,0,0,1,.68-.7,3.27,3.27,0,0,1,.83-.47,2.41,2.41,0,0,1,.86-.18l119.92-.32a1.81,1.81,0,0,1,.8.18,1.51,1.51,0,0,1,.58.48,1.45,1.45,0,0,1,.25.72,1.94,1.94,0,0,1-.08.88,3.3,3.3,0,0,1-.44.88,4.33,4.33,0,0,1-.7.72,3.19,3.19,0,0,1-.86.48,2.69,2.69,0,0,1-.92.18l-120,.19Zm283.57-.44a2.11,2.11,0,0,1-.89-.18,1.79,1.79,0,0,1-.64-.5,1.67,1.67,0,0,1-.32-.76,2.2,2.2,0,0,1,0-.91,3.11,3.11,0,0,1,.44-.92,3.36,3.36,0,0,1,.72-.74,3,3,0,0,1,.91-.5,2.43,2.43,0,0,1,1-.2l89.39-.23a2.32,2.32,0,0,1,.94.18,1.78,1.78,0,0,1,.69.51,1.89,1.89,0,0,1,.35.76,2.15,2.15,0,0,1,0,.94,3,3,0,0,1-.43.94,3.33,3.33,0,0,1-.74.76,3.73,3.73,0,0,1-.93.53,3.35,3.35,0,0,1-1,.19l-89.47.13Zm-278.49-15a1.48,1.48,0,0,1-.75-.16,1.22,1.22,0,0,1-.52-.46,1.56,1.56,0,0,1-.22-.69,2.34,2.34,0,0,1,.11-.84,3.12,3.12,0,0,1,.44-.85,4.93,4.93,0,0,1,.68-.69,2.83,2.83,0,0,1,.83-.46,2,2,0,0,1,.86-.18L570.91,664a1.67,1.67,0,0,1,.83.16,1.37,1.37,0,0,1,.56.48,1.48,1.48,0,0,1,.26.7,2,2,0,0,1-.08.87,2.93,2.93,0,0,1-.45.88,3.57,3.57,0,0,1-.68.72,4.08,4.08,0,0,1-.86.48,2.51,2.51,0,0,1-.92.18l-119.73.67Zm282.92-1.59a2.08,2.08,0,0,1-.89-.18,1.48,1.48,0,0,1-.63-.5,1.52,1.52,0,0,1-.33-.73,2,2,0,0,1,.05-.91,2.84,2.84,0,0,1,.44-.91,3.11,3.11,0,0,1,.71-.74,3.58,3.58,0,0,1,.91-.52,3.7,3.7,0,0,1,1-.19l89.16-.59a2.32,2.32,0,0,1,.94.17,2.21,2.21,0,0,1,.68.51,1.69,1.69,0,0,1,.36.75,2.16,2.16,0,0,1,0,.94,2.68,2.68,0,0,1-.42.93,3.75,3.75,0,0,1-.73.76,3.16,3.16,0,0,1-.94.5,2.82,2.82,0,0,1-1,.2l-89.22.51Zm-278-13.4A1.67,1.67,0,0,1,454,654a1.51,1.51,0,0,1-.51-.46,1.56,1.56,0,0,1-.22-.68,2.14,2.14,0,0,1,.11-.84,2.93,2.93,0,0,1,.44-.84,4.09,4.09,0,0,1,.68-.7,3.31,3.31,0,0,1,.82-.46,2.35,2.35,0,0,1,.86-.17l119.4-1.29a1.89,1.89,0,0,1,.81.16,1.35,1.35,0,0,1,.56.47,1.65,1.65,0,0,1,.27.7,2.44,2.44,0,0,1-.09.87,3.1,3.1,0,0,1-.44.87,3.32,3.32,0,0,1-.69.71,3.08,3.08,0,0,1-.86.49,2.9,2.9,0,0,1-.91.19l-119.47,1.14Zm282.27-2.72a2.28,2.28,0,0,1-.89-.17,1.94,1.94,0,0,1-.63-.49,1.62,1.62,0,0,1-.33-.73,2.25,2.25,0,0,1,0-.89,3,3,0,0,1,.45-.92,3.28,3.28,0,0,1,.7-.74,3.08,3.08,0,0,1,.9-.5,2.9,2.9,0,0,1,1-.19l88.92-1a2.54,2.54,0,0,1,.94.16,1.71,1.71,0,0,1,.67.5,1.69,1.69,0,0,1,.36.75,2.26,2.26,0,0,1,0,.93,3.22,3.22,0,0,1-.43.92,3.47,3.47,0,0,1-.73.75,3.54,3.54,0,0,1-.92.53,3.13,3.13,0,0,1-1,.19l-89,.86ZM459.8,639a1.48,1.48,0,0,1-.75-.16,1.34,1.34,0,0,1-.52-.45,1.52,1.52,0,0,1-.22-.68,2.07,2.07,0,0,1,.11-.83,2.88,2.88,0,0,1,.44-.83,3.65,3.65,0,0,1,.67-.69,3.22,3.22,0,0,1,.82-.47,2.6,2.6,0,0,1,.87-.18l119.12-1.77a1.8,1.8,0,0,1,.82.17,1.48,1.48,0,0,1,.56.46,1.56,1.56,0,0,1,.27.7,2.22,2.22,0,0,1-.09.86,3,3,0,0,1-.44.85,3.1,3.1,0,0,1-.69.71,3.29,3.29,0,0,1-.85.49,2.61,2.61,0,0,1-.92.19L459.8,639Zm281.62-3.86a2.11,2.11,0,0,1-.89-.17,1.57,1.57,0,0,1-.64-.49,1.53,1.53,0,0,1-.32-.72,2.1,2.1,0,0,1,0-.89,3.18,3.18,0,0,1,.43-.89,3.32,3.32,0,0,1,.71-.74,3.79,3.79,0,0,1,.89-.51,2.68,2.68,0,0,1,1-.19l88.69-1.32a2.3,2.3,0,0,1,.93.17,1.73,1.73,0,0,1,.68.49,1.87,1.87,0,0,1,.36.75,2,2,0,0,1,0,.91,2.85,2.85,0,0,1-.43.92,3.57,3.57,0,0,1-1.65,1.27,3,3,0,0,1-1,.19l-88.75,1.22Zm-186.48-18.8,8.31-26.9,30.21-.78-8.2,27.09-30.32.59Zm-44.9.86,14.58-45.64,29.44-.93-14.4,46-29.62.57Zm143.56-1.7a25.45,25.45,0,0,1-11.32-2.25,19.71,19.71,0,0,1-7.81-6.52,21.32,21.32,0,0,1-3.66-9.75,29.6,29.6,0,0,1,1.14-12,41.42,41.42,0,0,1,5.91-12.05,49.1,49.1,0,0,1,9.38-9.94,46.76,46.76,0,0,1,11.62-6.89,36.91,36.91,0,0,1,12.62-2.82,25.81,25.81,0,0,1,11.3,2,19.9,19.9,0,0,1,8,6.3,21,21,0,0,1,3.91,9.66,29,29,0,0,1-.93,12.09,41.07,41.07,0,0,1-5.91,12.26,49.18,49.18,0,0,1-9.56,10.2,46.8,46.8,0,0,1-11.86,7,37.35,37.35,0,0,1-12.82,2.72ZM489.73,548.06,518.39,547l-22.73,70.43-29,.56,23-69.92Zm257.58,65.37,20.76-77.95,88-3.35-19.61,79.6-89.13,1.7ZM919.76,493,458.91,514.62a28.42,28.42,0,0,0-9.46,2.21,38.71,38.71,0,0,0-8.88,5.23,40,40,0,0,0-7.36,7.47,32.81,32.81,0,0,0-4.84,9L320.09,853.15a28.78,28.78,0,0,0-1.67,10.34,20.21,20.21,0,0,0,2.18,8.69,15.91,15.91,0,0,0,5.6,6.13,17.6,17.6,0,0,0,8.54,2.59L823.1,906.55a33.84,33.84,0,0,0,12.56-1.78,39.37,39.37,0,0,0,11.4-6.1,40.17,40.17,0,0,0,8.91-9.4,34.92,34.92,0,0,0,5.15-11.74l81.77-360a21,21,0,0,0,0-9.95,18.13,18.13,0,0,0-4.4-7.92,20.45,20.45,0,0,0-8-5.08,27.49,27.49,0,0,0-10.74-1.5Z"/>
          <polygon class="cls-19" points="497.11 736.98 477.09 736.73 470.43 757.67 490.5 758.02 497.11 736.98 497.11 736.98"/>
          <polygon class="cls-13" points="485.23 774.8 465.11 774.36 458.33 795.62 478.51 796.2 485.23 774.8 485.23 774.8"/>
          <polygon class="cls-13" points="473.27 812.9 453.04 812.24 446.15 833.87 466.44 834.65 473.27 812.9 473.27 812.9"/>
          <path class="cls-20" d="M624.4,740.83l-113.6-1.48a1.54,1.54,0,0,0-.56.1,3.12,3.12,0,0,0-.53.3,2,2,0,0,0-.43.45,1.86,1.86,0,0,0-.29.56,1.78,1.78,0,0,0-.06.55,1.09,1.09,0,0,0,.15.45.87.87,0,0,0,.35.31,1.07,1.07,0,0,0,.49.12l113.64,1.56a1.77,1.77,0,0,0,.6-.11,2.38,2.38,0,0,0,1-.78,1.73,1.73,0,0,0,.28-.56,1.48,1.48,0,0,0,0-.58,1.09,1.09,0,0,0-.19-.47,1,1,0,0,0-.37-.31,1.09,1.09,0,0,0-.53-.11Z"/>
          <path class="cls-20" d="M620.25,755.34l-113.83-1.89a1.54,1.54,0,0,0-.56.1,2.86,2.86,0,0,0-.54.3,2.09,2.09,0,0,0-.44.45,2.67,2.67,0,0,0-.28.56,1.36,1.36,0,0,0-.06.56,1.05,1.05,0,0,0,.16.46.9.9,0,0,0,.33.31,1.15,1.15,0,0,0,.5.12l113.88,2a1.42,1.42,0,0,0,.6-.11,2.46,2.46,0,0,0,.55-.3,2.79,2.79,0,0,0,.45-.46,2.22,2.22,0,0,0,.28-.58,1.43,1.43,0,0,0,.05-.57,1.05,1.05,0,0,0-.18-.47,1,1,0,0,0-.38-.33,1.12,1.12,0,0,0-.53-.13Z"/>
          <path class="cls-20" d="M613.2,780,499,777.39a1.59,1.59,0,0,0-.57.1,2.13,2.13,0,0,0-.53.3,2.18,2.18,0,0,0-.45.46,2,2,0,0,0-.28.55,1.41,1.41,0,0,0-.06.57,1.08,1.08,0,0,0,.15.47,1,1,0,0,0,.35.31,1,1,0,0,0,.49.13L612.35,783a1.81,1.81,0,0,0,.6-.11,1.74,1.74,0,0,0,.55-.3,2,2,0,0,0,.45-.47,2.16,2.16,0,0,0,.28-.57,1.18,1.18,0,0,0,0-.58,1.06,1.06,0,0,0-.17-.48.87.87,0,0,0-.38-.33,1,1,0,0,0-.53-.13Z"/>
          <path class="cls-20" d="M609,794.79l-114.45-3.07a1.3,1.3,0,0,0-.57.12,1.54,1.54,0,0,0-.53.29,2.34,2.34,0,0,0-.44.45,2.16,2.16,0,0,0-.28.57,1.28,1.28,0,0,0-.07.57,1,1,0,0,0,.15.47,1,1,0,0,0,.34.32,1.15,1.15,0,0,0,.5.12l114.5,3.16a1.58,1.58,0,0,0,.6-.1,1.73,1.73,0,0,0,.56-.31,2.8,2.8,0,0,0,.45-.46,2.28,2.28,0,0,0,.28-.59,1.52,1.52,0,0,0,.06-.59,1.46,1.46,0,0,0-.19-.48.84.84,0,0,0-.37-.33,1,1,0,0,0-.54-.14Z"/>
          <path class="cls-20" d="M602,819.33l-114.84-3.81a1.71,1.71,0,0,0-.58.09,2.56,2.56,0,0,0-.53.3,1.92,1.92,0,0,0-.44.46,2.55,2.55,0,0,0-.29.57,1.28,1.28,0,0,0-.07.57,1.08,1.08,0,0,0,.15.48.79.79,0,0,0,.35.33,1,1,0,0,0,.49.13l114.89,3.9a1.66,1.66,0,0,0,.61-.1,2.46,2.46,0,0,0,.55-.3,2.26,2.26,0,0,0,.45-.48,1.69,1.69,0,0,0,.28-.59,1.26,1.26,0,0,0,.06-.6,1.28,1.28,0,0,0-.16-.5,1.59,1.59,0,0,0-.39-.33,1.29,1.29,0,0,0-.53-.12Z"/>
          <path class="cls-20" d="M597.67,834.35,482.59,830.1a1.29,1.29,0,0,0-.57.09,2.86,2.86,0,0,0-.54.3,2.47,2.47,0,0,0-.44.47,1.81,1.81,0,0,0-.29.55,1.76,1.76,0,0,0-.07.58,1.14,1.14,0,0,0,.16.48.83.83,0,0,0,.33.34,1,1,0,0,0,.5.14l115.12,4.36a1.61,1.61,0,0,0,.61-.11,2.15,2.15,0,0,0,1-.78,1.66,1.66,0,0,0,.29-.58,1.4,1.4,0,0,0,0-.6,1.24,1.24,0,0,0-.17-.5,1,1,0,0,0-.38-.34,1.31,1.31,0,0,0-.53-.15Z"/>
          <polygon class="cls-4" points="518.39 546.99 489.73 548.06 466.71 617.98 495.66 617.42 518.39 546.99 518.39 546.99"/>
          <polygon class="cls-21" points="554.06 570.58 524.62 571.51 510.04 617.15 539.66 616.58 554.06 570.58 554.06 570.58"/>
          <polygon class="cls-19" points="593.47 588.61 563.25 589.39 554.94 616.29 585.26 615.7 593.47 588.61 593.47 588.61"/>
          <path class="cls-19" d="M809.57,741.37l-41.3,17.68c.09.28.19.58.29.86s.18.6.26.89.17.59.24.9.15.6.21.91l41.32-17.67a6.21,6.21,0,0,1-.42-.81,9,9,0,0,1-.31-.87,9.4,9.4,0,0,1-.2-.92c0-.32-.08-.63-.09-1Z"/>
          <path class="cls-4" d="M743.16,825.73l-.91.71-.91.69c-.3.23-.62.45-.93.68s-.61.45-.94.67l16.58,23.38.88-.75c.29-.25.6-.5.91-.73s.63-.45.95-.68l1-.64-16.6-23.33Z"/>
          <path class="cls-4" d="M727.48,736.18A60.81,60.81,0,0,0,706.26,740,72.74,72.74,0,0,0,687,750.78a74.33,74.33,0,0,0-15.35,16,64.69,64.69,0,0,0-9.48,19.89A50.09,50.09,0,0,0,660.67,807a39.51,39.51,0,0,0,6.55,17A37.57,37.57,0,0,0,680.75,836a45.2,45.2,0,0,0,19.42,5A59.39,59.39,0,0,0,722,837.52a72.53,72.53,0,0,0,20-10.85,74.35,74.35,0,0,0,15.88-16.58,64.25,64.25,0,0,0,9.55-20.52l-53.62-1.31,13.73-52.08Z"/>
          <path class="cls-19" d="M735.3,736.87H735L723.57,780.7l45.17,1,.06-.24a46.45,46.45,0,0,0,1-5,40.76,40.76,0,0,0,.39-4.84A37.38,37.38,0,0,0,770,767a35,35,0,0,0-.72-4.41c-.06-.31-.14-.61-.21-.91s-.15-.61-.24-.9-.17-.59-.26-.89-.2-.58-.29-.86a31.71,31.71,0,0,0-12.09-16,34.49,34.49,0,0,0-9.51-4.52,40.85,40.85,0,0,0-11.37-1.68Z"/>
          <path class="cls-4" d="M772.6,845.43a19.92,19.92,0,0,0-3.36.17,21.93,21.93,0,0,0-3.28.67,22.47,22.47,0,0,0-3.18,1.18,25,25,0,0,0-3,1.61l-1,.64c-.32.23-.64.44-.95.68s-.62.48-.91.73l-.88.75a29.21,29.21,0,0,0-2.44,2.54,24.92,24.92,0,0,0-2.07,2.85,25.48,25.48,0,0,0-1.63,3.1,22.9,22.9,0,0,0-1.13,3.33,18.15,18.15,0,0,0-.37,7.49,15,15,0,0,0,2.55,6.3,14.69,14.69,0,0,0,5.06,4.41,16.53,16.53,0,0,0,7.09,1.86,21.45,21.45,0,0,0,7.88-1.15,25.82,25.82,0,0,0,12.81-9.83,22.74,22.74,0,0,0,3.36-7.44,18,18,0,0,0,.3-7.52,14.8,14.8,0,0,0-2.66-6.25,14.42,14.42,0,0,0-5.12-4.34,16.86,16.86,0,0,0-7.08-1.78Z"/>
          <path class="cls-19" d="M821.76,729.84a11.59,11.59,0,0,0-3.94.69,13.08,13.08,0,0,0-3.55,2,13.26,13.26,0,0,0-2.78,2.92,10.87,10.87,0,0,0-1.65,3.6c-.05.21-.09.42-.13.62s-.06.39-.09.58,0,.4,0,.59a3.77,3.77,0,0,0,0,.58c0,.34,0,.65.09,1a9.4,9.4,0,0,0,.2.92,9,9,0,0,0,.31.87,6.21,6.21,0,0,0,.42.81,6.57,6.57,0,0,0,1.15,1.42,6.71,6.71,0,0,0,1.52,1.1,7.53,7.53,0,0,0,1.84.7,9.23,9.23,0,0,0,2.15.28,11.3,11.3,0,0,0,4-.68,14,14,0,0,0,3.58-2,13,13,0,0,0,2.79-2.95,10.82,10.82,0,0,0,1.64-3.61,8.53,8.53,0,0,0,.12-3.64,6.87,6.87,0,0,0-1.38-3,7.05,7.05,0,0,0-2.6-2,8.9,8.9,0,0,0-3.6-.77Z"/>
          <path class="cls-19" d="M655.06,610.36a20.81,20.81,0,0,1-9.41-1.86,16.31,16.31,0,0,1-6.51-5.46,18.08,18.08,0,0,1-3-8.18,25.09,25.09,0,0,1,1-10.05A35.2,35.2,0,0,1,642,574.69a41.82,41.82,0,0,1,7.85-8.37,40,40,0,0,1,9.68-5.79,30.8,30.8,0,0,1,10.53-2.34,21.28,21.28,0,0,1,9.4,1.69,16.72,16.72,0,0,1,6.62,5.3,17.94,17.94,0,0,1,3.22,8.12,25.12,25.12,0,0,1-.83,10.13,35.24,35.24,0,0,1-4.93,10.3,41.93,41.93,0,0,1-7.95,8.51,39.2,39.2,0,0,1-9.87,5.84,29.83,29.83,0,0,1-10.66,2.28Zm16.42-57.12a36.91,36.91,0,0,0-12.62,2.82A46.76,46.76,0,0,0,647.24,563a49.1,49.1,0,0,0-9.38,9.94A41.42,41.42,0,0,0,632,584.94a29.6,29.6,0,0,0-1.14,12,21.32,21.32,0,0,0,3.66,9.75,19.71,19.71,0,0,0,7.81,6.52,25.45,25.45,0,0,0,11.32,2.25,37.35,37.35,0,0,0,12.82-2.72,46.8,46.8,0,0,0,11.86-7,49.18,49.18,0,0,0,9.56-10.2,41.07,41.07,0,0,0,5.91-12.26,29,29,0,0,0,.93-12.09,21,21,0,0,0-3.91-9.66,19.9,19.9,0,0,0-8-6.3,25.81,25.81,0,0,0-11.3-2Z"/>
          <path class="cls-19" d="M667.41,567.4a19.75,19.75,0,0,0-6.81,1.51,25,25,0,0,0-6.28,3.73,26,26,0,0,0-5.06,5.4,22.29,22.29,0,0,0-3.18,6.52,16.09,16.09,0,0,0-.61,6.48,11.64,11.64,0,0,0,2,5.25,10.8,10.8,0,0,0,4.22,3.5,13.78,13.78,0,0,0,6.09,1.16,19.44,19.44,0,0,0,6.86-1.48,25.42,25.42,0,0,0,6.35-3.74,26.32,26.32,0,0,0,5.12-5.47,22.27,22.27,0,0,0,3.17-6.59,15.74,15.74,0,0,0,.54-6.5,11.41,11.41,0,0,0-2.06-5.24,10.81,10.81,0,0,0-4.26-3.42,13.93,13.93,0,0,0-6.08-1.11Z"/>
          <path class="cls-22" d="M831.33,629.17l-88.69,1.32a2.68,2.68,0,0,0-1,.19,3.79,3.79,0,0,0-.89.51,3.32,3.32,0,0,0-.71.74,3.18,3.18,0,0,0-.43.89,2.1,2.1,0,0,0,0,.89,1.53,1.53,0,0,0,.32.72,1.57,1.57,0,0,0,.64.49,2.11,2.11,0,0,0,.89.17l88.75-1.22a3,3,0,0,0,1-.19,3.57,3.57,0,0,0,1.65-1.27,2.85,2.85,0,0,0,.43-.92,2,2,0,0,0,0-.91,1.87,1.87,0,0,0-.36-.75,1.73,1.73,0,0,0-.68-.49,2.3,2.3,0,0,0-.93-.17Z"/>
          <path class="cls-22" d="M827.21,645.88l-88.92,1a2.9,2.9,0,0,0-1,.19,3.08,3.08,0,0,0-.9.5,3.28,3.28,0,0,0-.7.74,3,3,0,0,0-.45.92,2.25,2.25,0,0,0,0,.89,1.62,1.62,0,0,0,.33.73,1.94,1.94,0,0,0,.63.49,2.28,2.28,0,0,0,.89.17l89-.86a3.13,3.13,0,0,0,1-.19,3.54,3.54,0,0,0,.92-.53,3.47,3.47,0,0,0,.73-.75,3.22,3.22,0,0,0,.43-.92,2.26,2.26,0,0,0,0-.93,1.69,1.69,0,0,0-.36-.75,1.71,1.71,0,0,0-.67-.5,2.54,2.54,0,0,0-.94-.16Z"/>
          <path class="cls-22" d="M823.16,662.32l-89.16.59a3.7,3.7,0,0,0-1,.19,3.58,3.58,0,0,0-.91.52,3.11,3.11,0,0,0-.71.74,2.84,2.84,0,0,0-.44.91,2,2,0,0,0-.05.91,1.52,1.52,0,0,0,.33.73,1.48,1.48,0,0,0,.63.5,2.08,2.08,0,0,0,.89.18l89.22-.51a2.82,2.82,0,0,0,1-.2,3.16,3.16,0,0,0,.94-.5,3.75,3.75,0,0,0,.73-.76,2.68,2.68,0,0,0,.42-.93,2.16,2.16,0,0,0,0-.94,1.69,1.69,0,0,0-.36-.75,2.21,2.21,0,0,0-.68-.51,2.32,2.32,0,0,0-.94-.17Z"/>
          <path class="cls-22" d="M819,679.27l-89.39.23a2.43,2.43,0,0,0-1,.2,3,3,0,0,0-.91.5,3.36,3.36,0,0,0-.72.74,3.11,3.11,0,0,0-.44.92,2.2,2.2,0,0,0,0,.91,1.67,1.67,0,0,0,.32.76,1.79,1.79,0,0,0,.64.5,2.11,2.11,0,0,0,.89.18l89.47-.13a3.35,3.35,0,0,0,1-.19,3.73,3.73,0,0,0,.93-.53,3.33,3.33,0,0,0,.74-.76,3,3,0,0,0,.43-.94,2.15,2.15,0,0,0,0-.94,1.89,1.89,0,0,0-.35-.76,1.78,1.78,0,0,0-.69-.51,2.32,2.32,0,0,0-.94-.18Z"/>
          <path class="cls-22" d="M580.34,632.89l-119.12,1.77a2.6,2.6,0,0,0-.87.18,3.22,3.22,0,0,0-.82.47,3.65,3.65,0,0,0-.67.69,2.88,2.88,0,0,0-.44.83,2.07,2.07,0,0,0-.11.83,1.52,1.52,0,0,0,.22.68,1.34,1.34,0,0,0,.52.45,1.48,1.48,0,0,0,.75.16L579,637.32a2.61,2.61,0,0,0,.92-.19,3.29,3.29,0,0,0,.85-.49,3.1,3.1,0,0,0,.69-.71,3,3,0,0,0,.44-.85,2.22,2.22,0,0,0,.09-.86,1.56,1.56,0,0,0-.27-.7,1.48,1.48,0,0,0-.56-.46,1.8,1.8,0,0,0-.82-.17Z"/>
          <path class="cls-22" d="M575.6,648.59l-119.4,1.29a2.35,2.35,0,0,0-.86.17,3.31,3.31,0,0,0-.82.46,4.09,4.09,0,0,0-.68.7,2.93,2.93,0,0,0-.44.84,2.14,2.14,0,0,0-.11.84,1.56,1.56,0,0,0,.22.68,1.51,1.51,0,0,0,.51.46,1.67,1.67,0,0,0,.76.16l119.47-1.14a2.9,2.9,0,0,0,.91-.19,3.08,3.08,0,0,0,.86-.49,3.32,3.32,0,0,0,.69-.71,3.1,3.1,0,0,0,.44-.87,2.44,2.44,0,0,0,.09-.87,1.65,1.65,0,0,0-.27-.7,1.35,1.35,0,0,0-.56-.47,1.89,1.89,0,0,0-.81-.16Z"/>
          <path class="cls-22" d="M570.91,664l-119.64.81a2,2,0,0,0-.86.18,2.83,2.83,0,0,0-.83.46,4.93,4.93,0,0,0-.68.69,3.12,3.12,0,0,0-.44.85,2.34,2.34,0,0,0-.11.84,1.56,1.56,0,0,0,.22.69,1.22,1.22,0,0,0,.52.46,1.48,1.48,0,0,0,.75.16l119.73-.67a2.51,2.51,0,0,0,.92-.18,4.08,4.08,0,0,0,.86-.48,3.57,3.57,0,0,0,.68-.72,2.93,2.93,0,0,0,.45-.88,2,2,0,0,0,.08-.87,1.48,1.48,0,0,0-.26-.7,1.37,1.37,0,0,0-.56-.48,1.67,1.67,0,0,0-.83-.16Z"/>
          <path class="cls-22" d="M566.11,679.94l-119.92.32a2.41,2.41,0,0,0-.86.18,3.27,3.27,0,0,0-.83.47,3.77,3.77,0,0,0-.68.7,3.46,3.46,0,0,0-.45.85,2.4,2.4,0,0,0-.11.85,1.56,1.56,0,0,0,.22.69,1.31,1.31,0,0,0,.52.47,1.61,1.61,0,0,0,.76.18l120-.19a2.69,2.69,0,0,0,.92-.18,3.19,3.19,0,0,0,.86-.48,4.33,4.33,0,0,0,.7-.72,3.3,3.3,0,0,0,.44-.88,1.94,1.94,0,0,0,.08-.88,1.45,1.45,0,0,0-.25-.72,1.51,1.51,0,0,0-.58-.48,1.81,1.81,0,0,0-.8-.18Z"/>
          <polygon class="cls-4" points="856.05 532.13 768.07 535.48 747.31 613.43 836.44 611.73 856.05 532.13 856.05 532.13"/>
          <path class="cls-23" d="M403.32,642.36h0a3.29,3.29,0,0,1-4.47-1.51l-15.4-35.19a3.57,3.57,0,0,1,1.83-4.54h0a3.26,3.26,0,0,1,4.46,1.52l15.4,35.19A3.55,3.55,0,0,1,403.32,642.36Z"/>
          <g>
            <g>
              <path class="cls-24" d="M402.43,664.89C401.17,641.76,384.89,628,384.89,628c-4.12-18.68-14.2-35.46-18.24-41.6-.86-1.3-1.38-2-1.38-2l-53.63,13.09s31.09,50.64,30.25,53.26-14.61,6.56-14.61,6.56-20-21-30-9.61,9.59,28.8,9.59,28.8l1.26,21-11.27,4.37,1.24,18.33c10,7.86,65.54,7,66.8,7s.41-11.78.41-11.78,27.05,2.25,33-2.18C409.21,704.94,403.68,688,402.43,664.89Z"/>
              <path class="cls-25" d="M398.24,713.14a14.78,14.78,0,0,0,4.37-5.16c-45.73,7.79-52.41-53.28-52.41-53.28S334,620.66,334,610.8c0-8.83,28-20.08,33.92-22.36l-1.31-2c-.86-1.31-1.38-2-1.38-2l-53.63,13.09s31.09,50.64,30.25,53.26-14.61,6.56-14.61,6.56-20-21-30-9.61,9.59,28.8,9.59,28.8l1.26,21-11.27,4.37,1.24,18.33c1.66,1.29,4.55,2.34,8.2,3.21l33.17,1.56c3.82-12,20.21-11.5,20.21-11.5l7.09,2C372.42,715.82,393.14,717,398.24,713.14Z"/>
            </g>
            <g class="cls-26">
              <path class="cls-27" d="M402.43,664.89C401.17,641.76,384.89,628,384.89,628c-4.12-18.68-14.2-35.46-18.24-41.6-.86-1.3-1.38-2-1.38-2l-53.63,13.09s31.09,50.64,30.25,53.26-14.61,6.56-14.61,6.56-20-21-30-9.61,9.59,28.8,9.59,28.8l1.26,21-11.27,4.37,1.24,18.33c10,7.86,65.54,7,66.8,7s.41-11.78.41-11.78,27.05,2.25,33-2.18C409.21,704.94,403.68,688,402.43,664.89Z"/>
              <path class="cls-28" d="M398.24,713.14a14.78,14.78,0,0,0,4.37-5.16c-45.73,7.79-52.41-53.28-52.41-53.28S334,620.66,334,610.8c0-8.83,28-20.08,33.92-22.36l-1.31-2c-.86-1.31-1.38-2-1.38-2l-53.63,13.09s31.09,50.64,30.25,53.26-14.61,6.56-14.61,6.56-20-21-30-9.61,9.59,28.8,9.59,28.8l1.26,21-11.27,4.37,1.24,18.33c1.66,1.29,4.55,2.34,8.2,3.21l33.17,1.56c3.82-12,20.21-11.5,20.21-11.5l7.09,2C372.42,715.82,393.14,717,398.24,713.14Z"/>
            </g>
          </g>
          <path class="cls-23" d="M310.85,679.1S287.21,659,297.24,647.66s30,9.61,30,9.61,13.79-3.94,14.61-6.56-17.43-33.91-12.83-45c3.78-9.06,36-22.57,36.86-21.26,21.52-18.25,11.68-63.14,11.68-63.14-11.28,25.74-72.27,31.57-105.2,42.77-39,13.27-29.2,49.09-29.2,49.09-5.85,3.48-19.58,23.71,16.05,48,25.6,17.43,37.57,40.61,37.57,40.61s12.69-2.69,14.34-5.33C313.89,692.06,310.85,679.1,310.85,679.1Z"/>
          <path class="cls-23" d="M323.29,650.89l-2-3.09c1.34-.93,45.89-17.81,72.33-27.78l1.31,3.44C367.27,633.89,325.36,649.81,323.29,650.89Z"/>
          <path class="cls-29" d="M614.34,692s0-26.11,1.78-38.59a14.73,14.73,0,0,1,13.25-13.18s19.9-57.79,27.41-53.62-8.84,40.23-7.07,46.23S686.4,649,685.06,671.19s-25.63,38.36-25.63,38.36Z"/>
          <path class="cls-25" d="M630.2,637.87c-.53,1.48-.83,2.34-.83,2.34a14.73,14.73,0,0,0-13.25,13.18c-1.78,12.48-1.78,38.59-1.78,38.59l45.09,17.57s16.17-10.77,22.86-26.78C643.88,673.3,631.84,655.05,630.2,637.87Z"/>
          <path class="cls-13" d="M672.66,710.43l6.54-10.26c-10.6-25-57.79-30.76-57.79-30.76l-7.76,11.28C624.38,681.81,657.41,687.11,672.66,710.43Z"/>
          <path class="cls-23" d="M672.66,710.43c-15.25-23.32-48.28-28.62-59-29.74-2.18-.23-3.44-.28-3.44-.28l-81.14,107s-85.37-20-131.63-26.43c-2.65-.37-5.21-.67-7.71-.92,0,0-66.91-.86-68.45-1l-6-.6-4.66-.49-3.23-.39c-1.51-.18-3-.38-4.49-.58-1.22-.15-2.43-.34-3.63-.5l-3.8-.59-3.65-.58-3.34-.61c-.51-.08-1-.18-1.51-.28-3.28-.63-6.43-1.31-9.42-2.05l-1.93-.5-2.35-.64c-.7-.19-1.39-.4-2.08-.61-2.21-.68-4.3-1.37-6.24-2.13,0,0-117.8,8.38-110.36,115.64l45.42.92s2.78,87.1,5.25,133.92c1.55,29.39-4.2,56.19-19,95H414.73c-2.14-34.1-5.1-83.4-2.75-103.1,3.34-27.92,18.5-76.66,16.45-105.56,48.2.12,108.91-.71,126.52-5.32,30.53-8,120.24-165.28,120.24-165.28C674.42,713.24,673.55,711.81,672.66,710.43Z"/>
          <path class="cls-30" d="M390.27,758.46l-19-29.62-2.93-4.58-94.66-8c-9.17,19-8.42,33.9-8.42,33.9,1.95.7,4.06,1.35,6.29,2,.69.19,1.38.38,2.1.56s1.56.39,2.36.58l2,.44c3,.67,6.16,1.26,9.45,1.81l1.52.23,3.36.53,3.65.49c1.26.17,2.54.33,3.83.48l3.63.43c1.5.15,3,.31,4.51.44l3.23.31,4.68.38c2,.15,4,.3,6,.42,1.54.1,3.08.2,4.61.28,7,.41,14,.68,20.55.85l4.22.11c13.36.28,24.92.18,32.18.07l5.85-.12,2.24-.07Z"/>
          <path class="cls-13" d="M382.93,759.4c-3.26-.4-6.42-.85-9.51-1.31q-11.07-1.7-20.75-3.92c-4.82-1.11-9.38-2.29-13.71-3.54-46.92-13.54-65.28-34.38-65.28-34.38-9.16,18.94-8.41,33.88-8.41,33.88,2,.7,4.06,1.35,6.29,2l2.1.55,2.35.58,2,.44q4.51,1,9.46,1.82l1.52.23,3.35.52,3.66.51,3.83.47c1.2.14,2.42.28,3.63.4,1.49.17,3,.33,4.51.46,1.08.11,2.15.22,3.23.31,1.55.14,3.11.26,4.68.38q3,.24,6,.43l4.61.29c7,.39,14,.67,20.54.84l4.23.11c13.36.28,24.91.19,32.18.06,2.49,0,4.48-.09,5.85-.12l2.24-.06C388.56,760.05,385.72,759.73,382.93,759.4Z"/>
          <path class="cls-31" d="M428,885.36c-1.38-.1-69.53-5-90-13.36,0,0,61.3,32.43,89.62,30.5A104.75,104.75,0,0,0,428,885.36Z"/>
          <path class="cls-19" d="M694.68,571.2a21,21,0,0,0-3.91-9.66,19.9,19.9,0,0,0-8-6.3,25.81,25.81,0,0,0-11.3-2,36.91,36.91,0,0,0-12.62,2.82A46.76,46.76,0,0,0,647.24,563a49.1,49.1,0,0,0-9.38,9.94A41.42,41.42,0,0,0,632,584.94a29.6,29.6,0,0,0-1.14,12c.06.5.17,1,.26,1.46a46.07,46.07,0,0,1,5.54-.93,21.36,21.36,0,0,1-.52-2.6,25.09,25.09,0,0,1,1-10.05A35.2,35.2,0,0,1,642,574.69a41.82,41.82,0,0,1,7.85-8.37,40,40,0,0,1,9.68-5.79,30.8,30.8,0,0,1,10.53-2.34,21.28,21.28,0,0,1,9.4,1.69,16.72,16.72,0,0,1,6.62,5.3,17.94,17.94,0,0,1,3.22,8.12,25.12,25.12,0,0,1-.83,10.13,35.24,35.24,0,0,1-4.93,10.3,41.93,41.93,0,0,1-7.95,8.51,42.36,42.36,0,0,1-6.47,4.24,45.22,45.22,0,0,1,3.72,3,48.36,48.36,0,0,0,5.44-3.77,49.18,49.18,0,0,0,9.56-10.2,41.07,41.07,0,0,0,5.91-12.26A29,29,0,0,0,694.68,571.2Z"/>
          <g>
            <path class="cls-32" d="M836.68,469.75A90.82,90.82,0,0,1,781,450.93a3.64,3.64,0,0,1-.68-5.12,3.68,3.68,0,0,1,5.14-.67,85.48,85.48,0,0,0,55.23,17.22,3.55,3.55,0,0,1,3.8,3.5,3.64,3.64,0,0,1-3.51,3.79C839.55,469.71,838.12,469.75,836.68,469.75Z"/>
            <path class="cls-32" d="M875.84,460.6a3.65,3.65,0,0,1-1.63-6.92,85,85,0,0,0,37.17-36.38,3.66,3.66,0,0,1,6.49,3.39,92.27,92.27,0,0,1-40.4,39.52A3.65,3.65,0,0,1,875.84,460.6Z"/>
            <path class="cls-32" d="M693,400.11a3.63,3.63,0,0,1-1.79-.47,101.11,101.11,0,0,0-37.58-12.15,3.66,3.66,0,1,1,.87-7.26,108.45,108.45,0,0,1,40.29,13,3.65,3.65,0,0,1-1.79,6.84Z"/>
            <path class="cls-32" d="M556.81,428.74a3.66,3.66,0,0,1-2.91-5.86,109.85,109.85,0,0,1,63.4-40.78,3.65,3.65,0,1,1,1.61,7.13,102.48,102.48,0,0,0-59.17,38.06A3.65,3.65,0,0,1,556.81,428.74Z"/>
            <g>
              <path class="cls-4" d="M789.2,415.6c0,27.48-21.3,49.75-47.56,49.75s-47.57-22.27-47.57-49.75,21.3-49.73,47.57-49.73S789.2,388.14,789.2,415.6Z"/>
              <path class="cls-1" d="M789.2,415.6c0,27.48-21.3,49.75-47.56,49.75s-47.57-22.27-47.57-49.75,21.3-49.73,47.57-49.73S789.2,388.14,789.2,415.6Z"/>
            </g>
            <g>
              <path class="cls-4" d="M871.89,461.24c0,7.79-6,14.1-13.48,14.1s-13.49-6.31-13.49-14.1,6-14.1,13.49-14.1S871.89,453.45,871.89,461.24Z"/>
              <path class="cls-1" d="M871.89,461.24c0,7.79-6,14.1-13.48,14.1s-13.49-6.31-13.49-14.1,6-14.1,13.49-14.1S871.89,453.45,871.89,461.24Z"/>
            </g>
            <g>
              <path class="cls-4" d="M926.63,407.08a7.79,7.79,0,1,1-7.78-8.14A8,8,0,0,1,926.63,407.08Z"/>
              <path class="cls-1" d="M926.63,407.08a7.79,7.79,0,1,1-7.78-8.14A8,8,0,0,1,926.63,407.08Z"/>
            </g>
            <g>
              <path class="cls-4" d="M649.57,384.19c0,7.79-6,14.1-13.48,14.1S622.6,392,622.6,384.19s6-14.1,13.49-14.1S649.57,376.41,649.57,384.19Z"/>
              <path class="cls-1" d="M649.57,384.19c0,7.79-6,14.1-13.48,14.1S622.6,392,622.6,384.19s6-14.1,13.49-14.1S649.57,376.41,649.57,384.19Z"/>
            </g>
            <g>
              <path class="cls-4" d="M563.2,445.37c0,10.85-8.4,19.64-18.78,19.64s-18.78-8.79-18.78-19.64,8.41-19.64,18.78-19.64S563.2,434.52,563.2,445.37Z"/>
              <path class="cls-1" d="M563.2,445.37c0,10.85-8.4,19.64-18.78,19.64s-18.78-8.79-18.78-19.64,8.41-19.64,18.78-19.64S563.2,434.52,563.2,445.37Z"/>
            </g>
            <path class="cls-33" d="M769.71,413.09a.88.88,0,0,0-.71-1c-1.56-.57-3.11-1.15-4.64-1.8a1.91,1.91,0,0,1-.85-.94c-.62-1.49-1.18-3-1.71-4.54a1.46,1.46,0,0,1,0-1c.78-1.66,1.65-3.29,2.42-5a1,1,0,0,0-.1-.94c-1.24-1.35-2.55-2.66-3.81-4a.75.75,0,0,0-1.05-.18c-1.61.76-3.22,1.5-4.87,2.2a1.63,1.63,0,0,1-1.09,0c-1.55-.58-3.08-1.2-4.6-1.88a1.74,1.74,0,0,1-.86-.81c-.6-1.58-1.14-3.17-1.66-4.76-.16-.52-.37-.78-1-.78-1.78,0-3.57,0-5.36-.08a.88.88,0,0,0-1,.72c-.57,1.55-1.2,3.08-1.75,4.64a1.43,1.43,0,0,1-1,.93q-2.22.73-4.38,1.66a1.36,1.36,0,0,1-1.38,0c-1.54-.81-3.13-1.57-4.68-2.37a.81.81,0,0,0-1.13.18c-1.26,1.26-2.54,2.5-3.86,3.71-.45.4-.41.72-.18,1.21.75,1.57,1.49,3.16,2.15,4.77a1.6,1.6,0,0,1,0,1.16q-1,2.25-2.17,4.46a2.06,2.06,0,0,1-.92.88c-1.67.59-3.37,1.13-5.07,1.65a.87.87,0,0,0-.76,1c0,1.77,0,3.55-.09,5.32a.81.81,0,0,0,.64.95c1.73.58,3.44,1.18,5.12,1.86a1.93,1.93,0,0,1,.87.93c.66,1.45,1.2,2.95,1.89,4.38a1.51,1.51,0,0,1,0,1.55c-.75,1.48-1.46,3-2.22,4.43a.89.89,0,0,0,.17,1.22c1.27,1.25,2.52,2.52,3.73,3.84a.87.87,0,0,0,1.2.19c1.56-.74,3.14-1.41,4.69-2.15a1.39,1.39,0,0,1,1.38.06c1.47.75,3,1.38,4.49,2.11a1.6,1.6,0,0,1,.74.8c.61,1.71,1.17,3.43,1.71,5.16a.81.81,0,0,0,.92.68c1.79,0,3.58,0,5.36.1a.86.86,0,0,0,1-.72c.58-1.68,1.18-3.35,1.85-5a1.72,1.72,0,0,1,.85-.83c1.55-.69,3.11-1.33,4.68-1.94a1.52,1.52,0,0,1,1.09,0c1.81.83,3.6,1.74,5.46,2.64,1.49-1.45,3-2.87,4.42-4.35a1.07,1.07,0,0,0,.1-.94c-.7-1.64-1.48-3.25-2.19-4.87a1.53,1.53,0,0,1,0-1c.58-1.59,1.19-3.14,1.86-4.69a1.7,1.7,0,0,1,.84-.83c1.59-.61,3.18-1.14,4.79-1.68a.83.83,0,0,0,.67-.94Q769.62,415.78,769.71,413.09Zm-28.26,13.35a10.84,10.84,0,1,1,11-10.66A10.87,10.87,0,0,1,741.45,426.44Z"/>
          </g>
        </g>
      </g>
    </g>
  </g>
</svg>
